<svg xmlns="http://www.w3.org/2000/svg" xmlns:xlink="http://www.w3.org/1999/xlink" id="Layer_1" x="0" y="0" version="1.1" viewBox="0 0 612 792" xml:space="preserve" style="enable-background:new 0 0 612 792"><style type="text/css">.st0{fill:#1c1d1d}.st1{fill:#292929}.st2{fill:#363636}.st3{fill:#f7f6f6}.st4{fill:#edecec}.st5{fill:#3a3a3a}.st6{fill:none;stroke:#fff;stroke-miterlimit:10}</style><path d="M373.4,399c0.9-0.2,1.6-0.6,1.7-1.7c0.3-0.2,0.6-0.4,0.9-0.7c0.2,0,0.3-0.1,0.3-0.3c0.1-0.1,0.2-0.2,0.4-0.2	c6.9-5.3,12.7-11.6,17.8-18.6c3.2-4.3,5.8-8.8,8.1-13.6c4.8-9.9,7.1-20.5,8.5-31.3c1.7-13.8,1.3-27.6-1.7-41.3	c-1.9-8.4-4.7-16.5-8.5-24.2c-4.5-9-10.6-16.5-18.6-22.8c-6.4-5-13.1-9.1-20.5-12.5c-8.2-3.8-16.9-5.6-25.5-7.8	c-12.1-3.1-24.4-3.8-36.4-0.9c-11.9,2.8-23.5,7.3-34.2,13.4c-5.5,3.2-10.6,7.1-15.1,11.7c-6.5,6.6-11.5,14.4-15.8,22.6	c-2.5,4.7-4.9,9.5-6.7,14.6c-3.8,10.6-5,21.5-4.7,32.7c0.5,13.9,2.6,27.5,6.2,40.9c2.3,8.6,5.9,16.7,11.2,24	c3.8,5.2,7.6,10.3,13,13.9c1.3-1.1,3.4-1.3,3.6-3.5c0.1-0.2,0-0.4-0.1-0.5c-0.8,0-1.5,0-2.3,0c-2.1-2.1-5.2-3.5-5.9-6.7	c-0.7-2.9-0.9-6-1.3-9c-0.1-1,0.6-2.7-1.3-2.5c-1.8,0.1-1,1.8-1,2.7c0,1.8,0.2,3.6,0.4,5.6c-2.7-2.3-3.6-5-4.1-8.1	c-0.5-3.4,0.4-7-1.1-10.2c-3.3,2-0.6,5.3-2,8.2c-0.9-3-2.8-5.2-2.5-8.3c0.2-2.2,0-4.5-0.1-6.7c-0.7-0.3-1.3-0.9-2-0.1	c-0.2,0.2-0.2,0.5-0.3,0.8c-0.1-0.2-0.3-0.4-0.4-0.6c-1.8-3.6-2.4-7.4-2.5-11.4c1.9,3.5,3.8,7.1,5.7,10.6c1.5,2.3,3,4.6,4.5,7	c3.7,5.6,8.3,10.4,13.3,14.9c0.2-1,0.4-1.7,1.8-1c0.5,0.2,2.1,2,2.8-0.3c-4.6-3.4-8.5-7.6-12-12c-6.1-7.6-10.5-16.3-14.4-25.2	c-4.1-9.3-5.3-18.6-2.4-28.5c2-6.9,3.9-13.7,7.1-20.2c5.2-10.5,11.5-20.3,19.7-28.8c6.6-6.8,14.8-11,23.4-14.6	c5.2-2.2,10.7-3.4,16-5.2c6.4-2.1,13.1-3.2,19.8-3.5c12.3-0.5,24.2,1,35.8,5.4c4.7,1.8,9.4,3.4,13.9,5.9c7.3,4.2,13.9,9.2,19.9,15	c5.3,5.1,9.8,10.7,13.8,16.7c1.3,2,2.7,4.2,3,6.6c1.2,12,1.1,24-1.5,35.9c-2.5,11.4-6.7,22.1-12.9,32.1	c-7.2,11.7-16.7,21.2-28.1,28.7c-5,3.3-10.5,5.8-16.1,8c1,1.7,3,1.5,4.5,2.1c0.3,0,0.7,0,1-0.1c0.3-0.4,0.8-0.5,1.2-0.5	c0.2-0.1,0.4-0.2,0.6-0.4c0.2-0.1,0.4-0.1,0.6-0.2c0.2-0.1,0.3-0.2,0.5-0.3c3.2-1,5.6-3.4,8.6-4.8c0.1-0.3,0.2-0.5,0.6-0.4	c1.1-0.6,2.2-1.3,3.3-1.9c0.4-0.6,1.1-1,1.8-1.2c3.1-3.6,7.2-6.1,10.6-9.5c6.3-6.4,11.7-13.4,16.2-21.2c4.5-7.7,7.7-15.9,10-24.5	c2.7-10.4,3.6-21,3.3-31.6c0.7,0.8,0.8,2,0.9,3.1c1.2,11.9,0.8,23.8-1.1,35.7c-2.8,17.1-9.7,32.1-21.6,44.8c-4,4.2-8.3,8.1-12.6,12	c-0.2,0.1-0.3,0.3-0.5,0.4l-0.1,0.1C371.4,397.2,371.6,398.5,373.4,399z M375,395.6c-0.4-0.1-0.8-0.2-1.2-0.3	c0.1-0.1,0.1-0.2,0.2-0.2C374.4,394.9,374.8,395.1,375,395.6c0.1,0.1,0.1,0.1,0.2,0.2C375.1,395.7,375,395.6,375,395.6z M227.7,305.2c-0.1-6.2,1.3-12.2,3.4-18c2-5.6,4.8-10.9,7.6-16.1c4.4-8.2,9.5-15.9,16.3-22.1c6.8-6.2,14.8-10.9,23.2-14.5	c3.9-1.7,8-3,12-4.6c6.1-2.4,12.5-3.8,19.1-4.1c13.2-0.6,26,1.1,38.7,5.2c10,3.3,19.5,7.3,28.3,13.3c11.3,7.7,18.6,18.2,24.1,30.3	c0.2,0.4,0.6,0.9,0.1,1.2c-0.4,0.3-0.9,0-1.2-0.4c-0.4-0.4-0.7-0.9-1.1-1.3c-5-6.9-11.2-12.6-17.6-18.1c-6.8-5.8-14.8-9.9-22.9-13.5	c-6.5-2.8-13.4-4.4-20.3-5.8c-11.7-2.4-23.5-2.5-35.3,0.9c-7.2,2.1-14.5,3.6-21.5,6.4c-9.4,3.7-18,8.2-25.4,15.2	c-3.5,3.3-6.7,6.9-9.5,10.9C238.1,281,231.5,292.4,227.7,305.2z" class="st0"/><path d="M265.3,411c-0.1,0.2-0.1,0.4-0.2,0.6c0,0.1,0,0.3-0.1,0.4c-1,1.5-1.8,3-3.6,3.8c-1.1,0.5-1.8,1.5-2.3,2.8	c-0.5,1.4-1.1,3-3.4,2.4c-1.2-0.3-1.8,0.7-2.3,1.7c-5,10.1-10.5,19.8-16,29.6c-2.8,4.9-5.6,9.8-8.5,14.7	c-6.3,10.6-11.9,21.6-17.5,32.6c-4,7.9-7.9,15.8-11.7,23.8c-4.3,9.1-8.6,18.3-11.6,27.9c-1.9,6.2-0.3,12.2,3.9,16.7	c8.3,8.9,18.8,11.9,30.7,8.8c5.7-1.5,8.7-5.8,10.9-10.9c2.2-5.1,4.6-10.1,7-15.1c7.1-14.2,14.1-28.4,19.1-43.4	c7.5-22.3,14.8-44.7,20.9-67.5c0.3-1.2,0.6-2.4,1.5-3.2c0.4-0.4,1-1.1,0.8-1.4c-2-4.2,2-7,2.6-10.6c0.4-2.2,0.8-4.4,1.3-6.6	c0.4-1.7,0.9-3,3.4-2.4c8.8,1.9,17.8,2.7,26.7,2.9c10.9,0.3,21.7-1.7,32-5.4c4-1.4,7.8-3.7,11.6-5.5c-0.2-1.3,0.7-2.8-0.7-4	c-0.7,0.2-1.3,0.5-2,0.7c0,0.8-0.5,1.2-1.3,1.1c-1.5,1.1-3.3,1.8-5.1,2.3c-0.2,0.1-0.4,0.2-0.6,0.4c-0.4,0.1-0.7,0.2-1.1,0.3	c-0.2,0.4-0.6,0.5-1.1,0.5c-0.2,0.1-0.4,0.2-0.7,0.3c0,0.1,0,0.2,0,0.3c0,0.9-0.9,1.2-1.2,1.9c-0.2,0.8-0.8,1-1.5,0.8	c-0.9-0.2-0.7-1-0.7-1.6c-1.1,0.1-2.3,0.4-2.5-1.2c-0.7,0.2-1.5,0-2,0.7c0,1.1,0.5,2.4-1.2,2.7c-0.2,0-0.4,0.1-0.5,0.1	c-0.2,0-0.4-0.1-0.5-0.2c-0.7,0.2-1.5,0.3-2.3,0.1c-0.4,0.1-0.5-0.1-0.4-0.5c-0.3-1.1-0.5-2.2-0.8-3.2c-0.1-0.2-0.2-0.5-0.3-0.7	c-0.1-0.4-0.2-0.8-0.2-1.1c-0.2-0.2-0.4-0.3-0.6-0.5c-2.2,0.3-1.5,1.7-1.4,3.2c0.1,1.2,1.7,2.5-0.1,3.7c-0.4,0.4-0.8,0.4-1.3,0.3	c-1.3,0.1-2.7,0.9-3.5-0.9c-0.7,0.1-1.6-0.3-2.2,0.5c-0.6,2.2-2.3,0.7-3.4,1.1c-1.8,0.4-1.5-1.1-1.7-2.1c-0.5-0.3-0.4-0.8-0.3-1.2	c-0.1-0.6-0.2-1.1-0.3-1.7c-0.6-0.5-0.4-1.2-0.4-1.8c0-0.4-0.1-0.7-0.1-1.1c-0.2-0.2-0.3-0.4-0.5-0.6c-0.5,0-1.1,0.1-1.6,0.1	c-0.7,2.2,0.2,4.4,0.7,6.4c0.5,2-0.1,2.1-1.8,2.2c-1.6,0.1-1.8-1-2.4-1.8c-0.8-0.2-1.6-0.4-2.3-0.5c-0.5,0.7,1.2,1.8-0.1,2.1	c-1.2,0.3-2.9,0.6-3.4-1.5c-0.6-2.6-1.4-5.1-2.1-7.6c-0.2-0.9-0.2-2.2-1.5-1.9c-1.2,0.3-1,1.5-0.7,2.6c0.7,2.6,1.3,5.2,2,7.8	c-2.7,0.7-4.1-0.1-4.5-2.8c-0.2-1.4-1-2.6-1.5-3.9c-1.4,0.9-0.5,2.4-0.8,3.6c0.1,0.9,0.1,1.7,0.2,2.5c-2.9,0.5-4.2-0.8-4.4-3.4	c-0.1-1.3-0.9-2.4-0.3-3.8c0.4-0.9,0-1.8-0.9-2.5c-2-1.5-4-2.8-6.4-3.3c0.1,1.2,0.8,2.4,0.5,3.7c0.7,1.1,2.7,1.3,2.3,3.2	c0,1.2,1.1,1.1,1.7,1.6c1.3,0.9,1.6,3.1,0.9,3.4c-1.6,0.7-3.7,1.8-5.6,0.1c-0.2,0.1-0.3,0.2-0.5,0.3c-0.2,0.3-0.4,0.2-0.5,0	c-1.1-1.8-3-2.2-4.6-2.9c-0.8-0.3-1.9-1.1-2.5,0.2c-0.7,1.4,0.7,2,1.5,2.5c1.2,0.8,2.5,1.3,3.8,1.9c1,0.5,0.9,1.3,0.5,2.2	c-0.5,1.1-1.2,0.4-1.8,0.1c-1.1-0.7-2.3-1.3-3.4-2c-0.8-0.5-1.6-0.8-2.2,0.2c-0.5,0.9,0.1,1.5,0.8,1.8c1.8,0.8,3.2,2.2,4.7,3.4	c0.5,0.4,1.7,0.5,1.1,1.6c-0.5,0.9-1.3,0.4-2,0.3c-4.8-0.9-8.6-4.1-13-5.9c-1.4-0.6-0.1-1.2-0.1-1.8	C267.6,412.2,265.6,412.5,265.3,411z M265.7,476.4c-0.9-0.8-1.7-1.5-2.6-2.2c-1.8-1.3-2.8-3.5-5.1-4.3c-0.9-0.3-2-1.1-2.5,0	c-0.6,1-0.1,2.1,1.2,2.7c2.3,1,4,2.9,5.9,4.4c2.3,1.9,2.9,3.9,1,6.4c-2.2-1.5-4.5-2.8-6.5-4.5c-0.9-0.7-1.6-1.7-2.4-0.6	c-0.8,1-0.3,2.1,1,2.7c1.5,0.8,2.9,1.7,4.3,2.7c2.8,2,3,3.1,1.4,6.4c-1.5-2.3-4.1-3.2-5.9-5.2c-0.6-0.7-1.8-1.5-2.7-0.3	c-0.7,1-0.3,2,0.9,2.6c0.4,0.2,0.8,0.5,1.2,0.7c4.4,2.2,6.8,6,3.5,11.2c-1.5-2.2-3.9-3.4-5.8-5.2c-0.6-0.6-1.4-0.8-2,0	c-0.7,0.8,0,1.4,0.5,1.9c0.6,0.6,1.3,1.1,2,1.6c4.7,4,5.2,6.3,2.2,10.4c-1.9-2.2-3.5-4.7-6.1-6.1c-0.8-0.5-1.8-1.7-2.7-0.3	c-0.9,1.3,0.6,1.7,1.3,2.4c2,2,3.9,4,5.9,6c1.3,1.3,0.8,3.1-0.1,3.8c-1.2,1-1.6-0.8-2.2-1.5c-1.8-2-3.9-3.5-6.4-4.6	c-0.7-0.3-1.5-0.6-2,0.3c-0.4,0.8-0.1,1.5,0.8,1.8c2.5,0.8,4,2.9,5.8,4.7c3.1,3,3.1,3.1,0.4,7.4c-3.4-4-7.8-6.6-12-9.6	c-0.7-0.5-1.7-1.3-2.5-0.3c-0.7,0.9-0.6,2.2,0.6,2.6c4.3,1.4,7,5,10.5,7.4c2.3,1.5,2.7,3.1,1.3,5.4c-0.5,0.7-0.6,1.8-1.8,2.4	c-2.8-5.2-8-7.7-12.6-10.8c-0.8-0.5-2.1-1.6-2.9-0.1c-0.7,1.3,0.1,2.2,1.4,2.6c4.4,1.4,7.5,4.5,10.6,7.7c3.5,3.4,3.4,3.6,0.5,8.1	c-2.7-3.9-5.8-7.5-10.2-9.5c-0.9-0.4-2.1-1.7-2.9-0.3c-0.9,1.5,0.7,1.9,1.6,2.3c3,1.5,5.3,3.9,7.5,6.3c3.5,3.8,3,5.4,0.5,8.3	c-2-4.5-5.2-7.9-9.4-10.2c-0.9-0.5-1.9-1.9-2.9-0.5c-1,1.5,0.6,1.9,1.5,2.5c3.2,1.8,5.5,4.5,7.5,7.5c2,3,1.8,5.3-0.4,7.7	c-2-3.1-3.8-6.5-7.3-8.4c-0.7-0.4-1.5-1.1-2.2-0.1c-0.6,0.9,0,1.5,0.7,2.1c1.6,1.4,3.2,2.8,4.6,4.5c2.5,3,2.9,6,1.2,8.8	c-9.8-12.1-21.9-18.1-38-14.5c0.2-0.5,0.3-0.8,0.5-1.2c4.4-10.5,9.2-20.9,14.2-31.1c8-16.1,16.2-32.1,25.4-47.6	c7.1-12.1,13.9-24.4,20.5-36.8c1.2-2.2,3-2.8,5.4-1.8c0.4,0.2,0.8,0.6,1.2,0.6c6,0.6,10.8,3.6,15.2,7.4c0.7,0.6,2,1,1,2.4	c-1,1.4-1.6,0.1-2.2-0.4c-2.3-1.5-4.4-3.1-6.7-4.5c-0.9-0.6-2.3-1.1-3,0.2c-0.8,1.5,0.4,2,1.7,2.5c2.4,0.8,4.5,2.4,6.5,3.9	c1.6,1.3,2.8,2.9,1.1,5.2c-1.9-1.7-4.1-2.8-5.7-4.7c-0.6-0.7-1.7-1.3-2.5-0.3c-0.8,0.9-0.4,1.9,0.6,2.6c1.6,1,3.1,2.1,4.6,3.3	c2.7,2.1,2.8,3,0.8,6c-1.7-1.3-3.4-2.4-4.9-3.8c-0.7-0.6-1-2-2-0.8c-0.7,0.8-0.7,1.9,0.4,2.7c1.5,1.1,3,2.3,4.5,3.5	c1.4,1.2,2,2.7,0.5,4.6c-1.8-1.5-3.5-3.1-5.3-4.5c-0.6-0.4-1.6-1.3-2.2-0.2c-0.6,0.9-0.5,2.1,0.7,2.7c1.7,0.9,3.1,2.1,4.6,3.3	c1.7,1.3,1.9,2.7,0.6,4.5c-0.5-0.3-0.9-0.6-1.4-1c-1.8-1.5-3.3-3.3-5.6-4.1c-0.8-0.3-1.8-1.1-2.5,0.2c-0.5,1,0.2,1.4,1.1,1.9	c1.4,0.8,2.7,1.9,4,2.8c4,2.7,4.1,3,2,7.9c-1.2-1.6-2.8-2.5-3.8-4.2c-0.9-1.7-2.6-2.8-4.4-3.4c-0.9-0.3-1.5-0.1-1.9,0.8	c-0.3,0.6,0,1.2,0.6,1.4c2.6,0.8,3.5,3.6,5.5,5C267.2,470.5,268.1,473,265.7,476.4z M228.6,567.9c-1,1.9-2.3,2.3-4.4,1.5	c-3.7-1.4-7.2-3-10.8-4.5c-6.7-2.9-13.2-6.3-20.2-8.4c-0.4-0.1-0.9-0.3-1.3-0.6c-1.3-1.1-0.3-2.3-0.1-3.4c0.1-0.9,1.2-0.4,1.7-0.1	c5.4,3.8,12,4.8,17.9,7.7C217,562.8,223.5,563.7,228.6,567.9z M193.7,549.8c1.3-2,2.9-2.1,4.8-1.5c4.8,1.6,9.6,3,14.2,5.3	c5.3,2.6,10.9,4.5,16,7.5c1.3,0.7,2.1,1.6,1.5,2.9c-0.7,1.7-1.7,0.1-2.5-0.2c-7.4-2.8-14.4-6.4-22-8.7	C201.6,553.8,198,551.1,193.7,549.8z M223.6,571.6c-1.3,1.6-2.3,3.1-4.1,0.7c-0.5-0.7-1.8-1-2.8-1.2c-8.1-2.1-15.4-6.3-23-9.5	c-1.3-0.5-1.9-1.4-1.8-2.3C203,561.8,212.4,568.6,223.6,571.6z M202.5,546.7c9.5,0.3,18.1,2.6,25,10.6	C218.8,553.8,211.1,549.2,202.5,546.7z M278.9,428.5c-1.2,0-2.2-0.8-3-1.5c-3.4-2.8-7.3-4.5-11.6-5.3c-0.7-0.1-2.3,0.5-1.8-1.1	c0.3-1,1.2-2.3,2.6-1.7c4.9,2.1,9.8,4.2,14.7,6.4c0.6,0.3,1.6,0.6,1.2,1.8C280.7,428.2,279.9,428.4,278.9,428.5z M214.9,574	c-6,0.7-18.6-5.3-19.8-9.2C201.1,569,208.5,569.8,214.9,574z M342.9,412.3c0.2-0.1,0.3-0.2,0.5-0.2c0.1,0,0.3,0.1,0.4,0.2	c-0.1,0.1-0.3,0.2-0.4,0.2C343.3,412.6,343.1,412.4,342.9,412.3z" class="st0"/><path d="M286.7,403.6c0.3-1.3-0.4-2.4-0.5-3.7c-1.6-1.1-3.3-1.9-5-2.9c-3.4-2-7.4-2.8-9.3,1.9c-0.1,0.7,0.4,1.8-0.6,1.9	c-0.8,0.1,0-0.9-0.2-1.4c-0.7,0-1.3,0-2,0c0,1.1,0,2.2,0,3.4c-2.3-0.9-4.1-2-4.4-5c-0.4-3.1-1.4-6.2-1.3-9.5c0-0.8,0-1.6-1.1-1.6	c-0.8,0-1.3,0.5-1.2,1.3c0.2,2.4-0.7,4.8,0.8,7.1c0.6,0.9,0.5,2.1,0,3.4c-1.7-2-4.6-2.5-4.8-5.4c-0.1,2.2-2.3,2.5-3.6,3.5	c2.4,3.2,5.8,5,9.2,6.7c0.6-1.8,1.5-1.2,2.7-0.4c-0.8,0.4-1.3,0.7-1.9,0.9c0.6,1.5,2.1,1.7,3.3,2.3c0.2,0.1,0.3,0.3,0.5,0.4	c0.2,1.9-1.8,2.6-2.1,4.2c0.3,1.5,2.3,1.3,2.6,2.7c2.8-3.3,4.1-7.3,5.9-11.1c1.4-3,2.3-3.2,5.3-2	C281.6,401.7,284.2,402.6,286.7,403.6z M269.7,408.1c0.1,0,0.2-0.1,0.2-0.1C269.8,408,269.7,408,269.7,408.1	c-0.2,0.1-0.4,0.3-0.6,0.4c0-0.1-0.1-0.1-0.1-0.2C269.2,408.2,269.4,408.1,269.7,408.1z M271.6,404.8c0-0.1-0.1-0.2-0.1-0.2	c0,0,0.1-0.1,0.2-0.1c0,0.1,0.1,0.2,0.1,0.2C271.8,404.8,271.7,404.8,271.6,404.8z" class="st1"/><path d="M360,403.4c1.4,1.1,0.5,2.6,0.7,4c4.7-2,8.5-5.5,12.6-8.4c-1.8-0.5-1.9-1.8-1.8-3.3c-0.3,0.2-0.6,0.3-0.9,0.5	l0.1,0c-0.7,0.4-1.4,0.8-2.1,1.2c-0.3,1.7-1.9,1.7-2.9,2.5C363.9,401,362,402.2,360,403.4z" class="st1"/><path d="M263.6,404c0.6-0.3,1.1-0.6,1.9-0.9c-1.2-0.8-2.1-1.4-2.7,0.4C263.1,403.7,263.4,403.8,263.6,404z" class="st2"/><path d="M375.9,396.6c-0.3,0.2-0.6,0.4-0.9,0.7C375.3,397.1,375.6,396.8,375.9,396.6z" class="st1"/><path d="M265.1,411.9c0.1-0.1,0.1-0.2,0.1-0.4C265,411.6,264.9,411.7,265.1,411.9z" class="st1"/><path d="M376.5,396.1c-0.1,0-0.3,0.1-0.4,0.2C376.3,396.3,376.5,396.3,376.5,396.1z" class="st1"/><path d="M267.4,406.7c-0.2-0.1-0.3-0.3-0.5-0.4C267.1,406.5,267.2,406.6,267.4,406.7z" class="st2"/><path d="M227.7,305.2c3.8-12.8,10.4-24.3,18-35.1c2.7-3.9,5.9-7.5,9.5-10.9c7.4-7,16-11.5,25.4-15.2	c7-2.8,14.4-4.3,21.5-6.4c11.7-3.5,23.5-3.4,35.3-0.9c6.8,1.4,13.8,3,20.3,5.8c8.1,3.6,16.1,7.7,22.9,13.5	c6.4,5.4,12.6,11.2,17.6,18.1c0.3,0.5,0.7,0.9,1.1,1.3c0.3,0.4,0.8,0.7,1.2,0.4c0.5-0.3,0.1-0.8-0.1-1.2	c-5.5-12.1-12.8-22.6-24.1-30.3c-8.8-6-18.3-10-28.3-13.3c-12.6-4.2-25.5-5.8-38.7-5.2c-6.6,0.3-13,1.7-19.1,4.1	c-4,1.6-8.1,2.9-12,4.6c-8.5,3.7-16.5,8.3-23.2,14.5c-6.8,6.3-11.9,14-16.3,22.1c-2.8,5.2-5.6,10.5-7.6,16.1	C229,293.1,227.6,299,227.7,305.2z" class="st3"/><path d="M316.5,405.9c-1.3-0.9-0.5-2.3-0.7-3.5c-0.7-0.1-1.5-0.2-2.2-0.2c-6.3-0.4-12.7-0.5-18.8-2.2	c-0.4,0-0.8-0.1-1.2-0.1c-0.2-0.1-0.4-0.2-0.7-0.3c-3.5,0-6.3-2.1-9.5-3.1c-7.4-2.2-13.7-6.3-20.1-10.5c-2.9-2.5-6.5-4.3-9.1-7.3	c-4.9-4.5-9.5-9.3-13.3-14.9c-0.2,0.2-0.3,0.4-0.5,0.5c1.5,3.3,0.6,6.8,1.1,10.2c0.5,3.1,1.3,5.8,4.1,8.1c-0.2-2-0.4-3.8-0.4-5.6	c0-1-0.8-2.6,1-2.7c1.9-0.2,1.1,1.5,1.3,2.5c0.4,3,0.7,6,1.3,9c0.7,3.2,3.8,4.6,5.9,6.7c-0.4-3-1.6-5.8-1.5-8.8c0-0.8-0.3-1.8,1-2	c1.2-0.1,1.3,0.9,1.4,1.7c0.5,3,0.9,6.1,1.4,9.2c0.1,0.1,0.2,0.3,0.1,0.5c0.2,2.9,3.1,3.4,4.8,5.4c0.5-1.3,0.6-2.5,0-3.4	c-1.5-2.3-0.6-4.8-0.8-7.1c-0.1-0.8,0.4-1.3,1.2-1.3c1,0,1.1,0.9,1.1,1.6c-0.1,3.2,0.9,6.3,1.3,9.5c0.4,3,2.1,4.1,4.4,5	c0-1.2,0-2.3,0-3.4c0-0.9-0.1-1.8-0.1-2.8c-0.8-0.4-0.5-1.1-0.6-1.7c-0.1-0.8-0.1-1.6,0.9-1.7c1.1-0.1,1.4,0.7,1.4,1.7	c0,0.4,0,0.8,0,1.1c0.1,0.1,0.2,0.3,0.1,0.4c0.3,0.6,0.4,1.2,0.3,1.8c0.1,0.3,0.1,0.6,0.2,0.8c0.2-0.1,0.4-0.2,0.7-0.2	c1.9-4.6,5.9-3.9,9.3-1.9c1.6,1,3.4,1.8,5,2.9c2.5,0.5,4.5,1.8,6.4,3.3c0.9,0.7,1.3,1.6,0.9,2.5c-0.6,1.4,0.2,2.5,0.3,3.8	c0.3,2.6,1.5,3.9,4.4,3.4c-0.1-0.8-0.1-1.6-0.2-2.5c-1.3-2.1-2.4-4.3-2.8-6.7c-0.1-0.8-0.6-2.1,0.7-2.4c1.3-0.3,1.4,0.8,1.6,1.8	c0.3,1.3,0.8,2.5,1.2,3.8c0.5,1.3,1.3,2.6,1.5,3.9c0.4,2.7,1.8,3.5,4.5,2.8c-0.6-2.6-1.3-5.2-2-7.8c-0.3-1.1-0.5-2.3,0.7-2.6	c1.3-0.3,1.2,1,1.5,1.9c0.7,2.6,1.5,5.1,2.1,7.6c0.5,2.1,2.2,1.8,3.4,1.5c1.3-0.3-0.4-1.4,0.1-2.1c-0.6-2.1-1.3-4.3-1.7-6.4	c-0.1-0.6-0.2-1.5,0.9-1.7c0.9-0.1,1.1,0.3,1.3,1.1c0.6,2.5,1.8,4.9,1.9,7.6c0.6,0.8,0.8,1.9,2.4,1.8c1.7-0.1,2.3-0.1,1.8-2.2	C316.7,410.2,315.9,408.1,316.5,405.9z" class="st4"/><path d="M294.7,400c6.2,1.7,12.5,1.8,18.8,2.2c0.7,0,1.5,0.2,2.2,0.2c0.8,0,1.5,0,2.3,0c0.2,0,0.4,0,0.6,0	c1.3-0.1,2.6-0.2,3.9-0.3c0.4,0,0.8,0,1.2,0c1.7-0.1,3.4-0.2,5-0.3c0.5-0.6,1.1-0.4,1.8-0.4c0.4,0,0.8-0.1,1.2-0.1	c0.2,0,0.4-0.1,0.6-0.1c0.4-0.1,0.7-0.1,1.1-0.2c0.2-0.1,0.4-0.1,0.6-0.2c4.8-0.9,9.5-2.2,13.9-4.3c0.1-0.2,0.2-0.3,0.3-0.4	c-1.5-0.7-3.5-0.4-4.5-2.1c-0.4,0.2-0.8,0.3-1.1,0.5c-0.1,0.3-0.3,0.4-0.6,0.1c-10.3,2.7-20.7,4.9-31.4,3.8	c-4.9-0.5-9.8-1.4-14.8-2.1C295.5,397.5,295.1,398.7,294.7,400z" class="st1"/><path d="M241,363.9c-1.5-2.3-3-4.6-4.5-7c-0.2,0.2-0.3,0.4-0.5,0.6c0.1,2.2,0.3,4.5,0.1,6.7c-0.3,3.1,1.6,5.3,2.5,8.3	c1.3-2.9-1.3-6.2,2-8.2C240.6,364.2,240.8,364,241,363.9z" class="st4"/><path d="M254.2,378.7c2.6,2.9,6.2,4.7,9.1,7.3c0.5-2-1.3-3.5-1.1-5.4c-1.1-1.1-2.6-1.8-3.4-3.1	c-0.6,2.3-2.3,0.5-2.8,0.3C254.6,377.1,254.4,377.7,254.2,378.7z" class="st2"/><path d="M257,392.7c-0.5-3.1-0.9-6.1-1.4-9.2c-0.1-0.8-0.2-1.8-1.4-1.7c-1.3,0.1-1,1.2-1,2c-0.1,3.1,1.1,5.9,1.5,8.8	C255.5,392.7,256.3,392.7,257,392.7z" class="st2"/><path d="M236.4,356.9c-1.9-3.5-3.8-7.1-5.7-10.6c0.1,4,0.7,7.8,2.5,11.4c0.1,0.2,0.2,0.4,0.4,0.6	c0.1-0.3,0.2-0.6,0.3-0.8c0.7-0.8,1.3-0.2,2,0.1C236.1,357.3,236.3,357.1,236.4,356.9z" class="st4"/><path d="M348.2,396.1c-0.1,0.1-0.2,0.3-0.3,0.4c0.9,0.1,0.6,1.5,1.7,1.6c0.6-0.8,0.5-1.5-0.3-2.1	C348.9,396.1,348.6,396.1,348.2,396.1z" class="st4"/><path d="M364.7,387.5c0.7,0.2,1.3,1,2,0.3c0.5-0.5-0.1-1-0.2-1.5C365.7,386.6,365.1,386.9,364.7,387.5z" class="st4"/><path d="M375,395.5c-0.3-0.4-0.6-0.6-1.1-0.4c-0.1,0-0.1,0.1-0.2,0.2C374.2,395.4,374.6,395.5,375,395.5L375,395.5z" class="st1"/><path d="M372.2,395.2c-0.2,0.1-0.3,0.3-0.5,0.4C371.9,395.4,372,395.3,372.2,395.2z" class="st1"/><path d="M351.7,395c0.2-0.1,0.3-0.2,0.5-0.3C352,394.8,351.9,394.9,351.7,395z" class="st4"/><path d="M360.8,389.8c0.2-0.1,0.4-0.3,0.6-0.4C361,389.3,360.9,389.6,360.8,389.8z" class="st4"/><path d="M375,395.6c0.1,0.1,0.1,0.2,0.2,0.2C375.1,395.7,375.1,395.6,375,395.6C375,395.5,375,395.6,375,395.6z" class="st1"/><path d="M350.5,395.5c0.2-0.1,0.4-0.2,0.6-0.4C350.9,395.3,350.7,395.4,350.5,395.5z" class="st4"/><path d="M286.7,403.6c-2.5-1-5.1-1.9-7.6-3c-3-1.3-3.9-1-5.3,2c-1.8,3.8-3.1,7.8-5.9,11.1c0,0.6-1.3,1.2,0.1,1.8	c4.4,1.8,8.2,5,13,5.9c0.7,0.1,1.5,0.7,2-0.3c0.5-1.1-0.6-1.2-1.1-1.6c-1.6-1.2-2.9-2.6-4.7-3.4c-0.7-0.3-1.3-0.9-0.8-1.8	c0.6-1,1.4-0.7,2.2-0.2c1.1,0.7,2.3,1.3,3.4,2c0.6,0.4,1.3,1.1,1.8-0.1c0.4-0.8,0.5-1.7-0.5-2.2c-1.3-0.6-2.6-1.1-3.8-1.9	c-0.8-0.5-2.1-1.2-1.5-2.5c0.6-1.2,1.7-0.5,2.5-0.2c1.7,0.7,3.6,1.2,4.6,2.9c0.2,0,0.4,0,0.5,0c0.2-0.1,0.3-0.2,0.5-0.3	c1.4-3-0.6-4-2.8-5c-0.5-0.2-1.1-0.4-1.6-0.5c-1.1-0.3-0.8-1.2-0.7-1.9c0.1-0.9,0.8-1.3,1.7-0.9c0.7,0.3,1.5,0.4,2.2,1.1	c1.1,1.1,2.3,2.2,4.1,2.1C289.4,404.9,287.4,404.7,286.7,403.6z" class="st4"/><path d="M223.6,571.6c-11.2-3-20.6-9.8-31.7-12.3c-0.1,0.9,0.5,1.7,1.8,2.3c7.7,3.2,14.9,7.4,23,9.5	c1,0.3,2.3,0.5,2.8,1.2C221.3,574.6,222.3,573.2,223.6,571.6z" class="st4"/><path d="M202.5,546.7c8.6,2.4,16.2,7.1,25,10.6C220.7,549.3,212,547,202.5,546.7z" class="st4"/><path d="M278.9,428.5c1-0.2,1.8-0.4,2.2-1.5c0.4-1.2-0.5-1.5-1.2-1.8c-4.9-2.2-9.8-4.4-14.7-6.4	c-1.4-0.6-2.3,0.7-2.6,1.7c-0.5,1.6,1.1,1,1.8,1.1c4.3,0.8,8.2,2.5,11.6,5.3C276.7,427.8,277.7,428.5,278.9,428.5z" class="st4"/><path d="M289,406.8c-1.8,0.1-3.1-1-4.1-2.1c-0.7-0.7-1.5-0.8-2.2-1.1c-0.9-0.4-1.5,0-1.7,0.9c-0.1,0.7-0.4,1.6,0.7,1.9	c0.5,0.1,1.1,0.3,1.6,0.5c2.2,0.9,4.2,2,2.8,5c1.9,1.6,3.9,0.6,5.6-0.1c0.7-0.3,0.3-2.5-0.9-3.4C290.1,408,289,408,289,406.8z" class="st1"/><path d="M214.9,574c-6.4-4.3-13.8-5-19.8-9.2C196.3,568.7,208.9,574.7,214.9,574z" class="st4"/><path d="M313,412.6c0-2.7-1.2-5.1-1.9-7.6c-0.2-0.7-0.4-1.2-1.3-1.1c-1.1,0.1-1.1,1-0.9,1.7c0.5,2.2,1.2,4.3,1.7,6.4	C311.5,412.2,312.2,412.4,313,412.6z" class="st2"/><path d="M298.9,406.8c-0.4-1.2-0.9-2.5-1.2-3.8c-0.2-0.9-0.3-2.1-1.6-1.8c-1.4,0.3-0.8,1.6-0.7,2.4	c0.3,2.5,1.5,4.6,2.8,6.7C298.4,409.2,297.5,407.8,298.9,406.8z" class="st2"/><path d="M326.1,408.6c-0.4-0.8,0-2.4-1.5-2.3c-1.5,0-1.4,1.3-1.4,2.3c0.6,1.5,1.1,3,1.7,4.6c0.6-0.8,1.4-0.4,2.2-0.5	c-0.1-0.6-0.1-1.1-0.2-1.7C326.6,410.2,326.4,409.4,326.1,408.6z" class="st2"/><path d="M324.9,413.2c-0.6-1.5-1.1-3-1.7-4.6c-0.6,1.9-1.2,3.7-1.8,5.6C322.6,413.9,324.3,415.3,324.9,413.2z" class="st4"/><path d="M342.3,409.1c-0.1-0.5-0.2-1.1-0.3-1.6c-0.2-0.4-0.5-0.8-0.7-1.1c-0.6,0-1.1,0-1.7,0c-0.2,0.2-0.3,0.5-0.5,0.7	c0.2,0.8,0.4,1.6,0.6,2.5c0.2,0,0.3,0.1,0.5,0.3C340.8,409.1,341.6,409.2,342.3,409.1z" class="st1"/><path d="M347.7,409.1c-0.9,0.4-1.9,0.8-2.8,1.2c0.1,0.6-0.2,1.4,0.7,1.6c0.7,0.2,1.3,0,1.5-0.8c0.2-0.7,1.2-1,1.2-1.9	C348.1,409.2,347.9,409.1,347.7,409.1z" class="st1"/><path d="M347.7,409.1c0.2,0.1,0.4,0.1,0.6,0.2c0-0.1,0-0.2,0-0.3c0.2-0.1,0.4-0.2,0.7-0.3c0.4,0,0.8,0,1.1-0.5	c-0.3-0.7-0.8-1.4-1.7-1.1C347.4,407.4,347.8,408.4,347.7,409.1z" class="st4"/><path d="M340.3,409.8c-0.1-0.1-0.3-0.2-0.5-0.3c-0.2,1.2-2.1,1.4-1.8,2.9c0.2,0.1,0.3,0.1,0.5,0.2	c0.2,0,0.4-0.1,0.5-0.1C340.7,412.1,340.3,410.9,340.3,409.8z" class="st4"/><path d="M319.1,409.2c1.3-0.1,1.5-1.2,1.1-2c-0.4-0.9-0.9,0.5-1.5,0.2C318.7,408.1,318.6,408.7,319.1,409.2z" class="st4"/><path d="M334,407c-0.1-1,0.3-2-0.4-3.2c-0.1,1.2-0.1,1.9-0.2,2.7C333.6,406.6,333.8,406.8,334,407z" class="st4"/><path d="M358.1,404.1c-0.8-0.1-1.2,0.3-1.3,1.1C357.6,405.3,358,404.9,358.1,404.1z" class="st4"/><path d="M342.9,412.3c0.2,0.1,0.3,0.2,0.5,0.2c0.1,0,0.3-0.1,0.4-0.2c-0.1-0.1-0.3-0.2-0.4-0.2	C343.3,412.1,343.1,412.3,342.9,412.3z" class="st1"/><path d="M332,413.3c-0.5-0.1-1-0.1-1.3,0.3C331.1,413.7,331.6,413.7,332,413.3z" class="st4"/><path d="M319.7,412.2c-0.1-0.4-0.2-0.8-0.3-1.2C319.3,411.4,319.3,411.9,319.7,412.2z" class="st4"/><path d="M334.5,408.8c-0.1-0.2-0.2-0.5-0.3-0.7C334.3,408.3,334.4,408.6,334.5,408.8z" class="st4"/><path d="M348.9,408.7c-0.2,0.1-0.4,0.2-0.7,0.3C348.5,408.9,348.7,408.8,348.9,408.7z" class="st3"/><path d="M351.7,407.5c-0.2,0.1-0.4,0.2-0.6,0.4C351.3,407.8,351.5,407.7,351.7,407.5z" class="st4"/><path d="M339.1,412.5c-0.2,0-0.4,0.1-0.5,0.1C338.7,412.6,338.9,412.5,339.1,412.5z" class="st1"/><path d="M335.7,412.5c-0.1-0.2-0.3-0.3-0.4-0.5C335.2,412.4,335.3,412.7,335.7,412.5z" class="st4"/><path d="M285.6,412.3c-0.2,0-0.4,0-0.5,0C285.2,412.5,285.4,412.5,285.6,412.3z" class="st1"/><path d="M318.6,406.3c-0.2-0.2-0.3-0.4-0.5-0.6C318.3,406,318.5,406.2,318.6,406.3z" class="st4"/><path d="M270.9,396.6c0.1-0.2,0.1-0.3-0.1-0.4c-0.7,0-1.3-0.1-1.7,0.6c0,0.9,0.1,1.8,0.1,2.8c0.7,0,1.3,0,2,0	c0.1-0.1,0.1-0.2,0.2-0.3c-0.1-0.3-0.1-0.6-0.2-0.8C270.6,397.8,270.7,397.2,270.9,396.6z" class="st0"/><path d="M271.3,399.2c0,0.1-0.1,0.2-0.2,0.3c0.2,0.5-0.5,1.5,0.2,1.4c0.9-0.1,0.4-1.2,0.6-1.9	C271.7,399.1,271.5,399.1,271.3,399.2z" class="st2"/><path d="M271.6,404.8c0.1,0,0.2,0,0.2-0.1c0-0.1,0-0.2-0.1-0.2c-0.1,0-0.2,0-0.2,0.1	C271.5,404.7,271.6,404.7,271.6,404.8z" class="st2"/><path d="M269.7,408.1c-0.2,0.1-0.5,0.1-0.7,0.2c0,0.1,0.1,0.1,0.1,0.2C269.3,408.4,269.5,408.2,269.7,408.1L269.7,408.1	z" class="st2"/><path d="M269.7,408.1c0.1,0,0.2-0.1,0.2-0.1C269.8,408,269.7,408,269.7,408.1C269.7,408.1,269.7,408.1,269.7,408.1z" class="st2"/><path d="M367,396.7c-0.7,0.3-1.8-0.8-2.2,0.3c-0.3,1-0.4,2.2,1,2.8c1-0.8,2.6-0.8,2.9-2.5c-1-0.2,0-1.8-1.2-1.8	C367.4,395.5,367.2,396.3,367,396.7c0,0.1,0.1,0.2,0.1,0.2C367.1,396.8,367.1,396.8,367,396.7z" class="st4"/><path d="M370.7,396.1c0,0,0.1,0,0.1,0C370.8,396.1,370.7,396.1,370.7,396.1z" class="st0"/><path d="M312.9,247.5c-5.8-0.2-11.7-0.1-17.2,1.7c-7.6,2.5-15.3,5.1-21.5,10.5c-2.4,2.1-3.1,5.1-1.6,7.4	c1.3,2,3.6,2.5,6.6,1.3c2.5-1.1,4.7-2.7,6.8-4.5c4.1-3.4,9.2-4.8,14.3-5.5c7.2-1,14.4-1,21.5,0.4c1.3,0.3,2.6,0.3,4,0.3	c1.6,0,2.8-0.7,3.5-2.3c0.8-1.7,1-3.1-0.1-4.8c-2.2-3.4-5.7-4.1-9.3-4.4C317.6,247.3,315.3,247.5,312.9,247.5z M313.2,249.8	c1.2,0,2.5,0,3.7,0c3.2-0.1,5.9,1.4,8.8,2.3c1.2,0.4,2.2,1.4,1.9,2.8c-0.3,1.2-1.6,1.1-2.7,1.1c-1-0.1-2.1-0.2-3.1-0.3	c-13.8-2.4-27-1.4-38.9,7.1c-1.8,1.3-3.3,2.9-5.6,3.6c-1,0.3-1.9,0.3-2.6-0.5c-0.8-0.8-0.5-1.7-0.2-2.6c0.3-0.9,0.9-1.5,1.6-1.9	c2.9-1.8,5.8-3.8,8.9-5.4C293.9,251.5,303.5,250.5,313.2,249.8z" class="st0"/><path d="M365.3,268.8c-0.1-2.3-1.8-4.4-3.7-5.9c-5.2-4.2-10.9-7.6-17.7-8.6c-2-0.3-3.4,0.4-4.1,2.2	c-0.7,2-1.2,4.1,1,5.6c1.1,0.7,2.2,1.5,3.4,1.9c5.5,1.9,10,5.3,14.5,8.7C362.1,275.3,365.2,273.4,365.3,268.8z M362.8,269.7	c-0.2,0.4-0.3,1.1-0.7,1.6c-0.2,0.3-0.8,0.1-1.2-0.2c-5.5-4-10.6-8.6-17.5-10.3c-2.1-0.5-1.9-2.2-0.8-3.6c1.1-1.4,1.8,0.6,2.8,0.7	c4.5,0.5,8.6,2.3,12.1,5.1C359.6,264.6,362.5,266.1,362.8,269.7z" class="st0"/><path d="M262.2,380.6c-0.2,1.9,1.6,3.4,1.1,5.4c6.4,4.1,12.7,8.2,20.1,10.5c3.2,1,6,3.1,9.5,3.1	c0.2,0.1,0.4,0.2,0.7,0.3c0.4,0,0.8,0.1,1.2,0.1c0.4-1.2,0.8-2.5,1.1-3.7c-4.6-1.1-9.3-2-13.5-4.1c-6.6-3.3-13.4-6.2-19.1-11	C262.9,380.9,262.6,380.7,262.2,380.6z" class="st0"/><path d="M342,394.5c0.2,0.3,0.4,0.2,0.6-0.1C342.4,394.4,342.2,394.5,342,394.5z" class="st0"/><path d="M345.8,404.9c1.1-2.2,0.4-3.6-2.1-4.9C344.3,402,346.1,403.1,345.8,404.9z" class="st4"/><path d="M326.1,408.6c0.2,0.8,0.5,1.6,0.7,2.4c0.8-0.1,1.5-0.3,1.4-1.3C328.1,408.3,326.9,408.8,326.1,408.6z" class="st4"/><path d="M341.4,406.4c0.2,0.4,0.5,0.8,0.7,1.1c0.7-0.1,1.5,0.2,2-0.6C343.2,406,342.2,406.5,341.4,406.4z" class="st4"/><ellipse cx="367.9" cy="391.8" class="st4" rx=".2" ry="2.8"/><ellipse cx="369.6" cy="391.8" class="st4" rx=".2" ry="2.8"/><path d="M321.5,407c-0.8,1.5-0.4,2.4-0.5,3.9C321.8,409.4,321.4,408.5,321.5,407z" class="st4"/><path d="M323.8,402.1c-0.4,0-0.8,0-1.2,0c0.1,0.5,0,1.2,0.7,1.1C323.8,403.1,323.7,402.5,323.8,402.1z" class="st4"/><path d="M353.1,396c-0.4,0.6-0.4,1.2,0,2C353.5,397.2,353.5,396.6,353.1,396z" class="st4"/><path d="M342.8,404.5c0.1,0.2,0.1,0.4,0.2,0.4c0.1,0,0.3-0.1,0.5-0.2c-0.1-0.2-0.1-0.4-0.2-0.4	C343.1,404.3,342.9,404.4,342.8,404.5z" class="st4"/><path d="M355.6,394.3c-0.2,0.1-0.4,0.3-0.6,0.4c0.3,0.1,0.5,0.2,0.8,0.2c0.2,0,0.3-0.1,0.5-0.2	C356.1,394.6,355.9,394.5,355.6,394.3z" class="st4"/><path d="M334,400.9c-0.2,0.1-0.4,0.1-0.6,0.2c0,0.4,0.1,0.9,0.1,1.4C334.3,402,333.9,401.4,334,400.9z" class="st4"/><path d="M354.5,397.3c0.1,0.2,0.2,0.4,0.3,0.5c0.1-0.2,0.3-0.4,0.3-0.6c0-0.2-0.2-0.4-0.3-0.6	C354.7,396.9,354.6,397.1,354.5,397.3z" class="st4"/><path d="M332.3,401.2c-0.2,0-0.4,0.1-0.6,0.1c0.1,0.4-0.1,0.9,0.3,1.2C332.1,402.1,332.2,401.7,332.3,401.2z" class="st4"/><path d="M318.6,402.4c-0.2,0-0.4,0-0.6,0c0,0.4,0.1,0.8,0.1,1.2c0.1,0,0.2,0,0.3,0C318.6,403.2,318.6,402.8,318.6,402.4	z" class="st4"/><path d="M350.8,401.1c-0.1,0.2-0.2,0.3-0.2,0.5c0,0.1,0.2,0.3,0.2,0.4c0.1-0.1,0.2-0.3,0.2-0.4	C351,401.4,350.9,401.2,350.8,401.1z" class="st4"/><path d="M332,404.5c-0.1,0.2-0.2,0.3-0.2,0.5c0,0.1,0.2,0.3,0.2,0.4c0.1-0.1,0.2-0.3,0.2-0.4	C332.2,404.8,332.1,404.6,332,404.5z" class="st4"/><path d="M364.8,389.6c0.1,0.1,0.2,0.3,0.3,0.4c0.1-0.1,0.2-0.3,0.2-0.4c0-0.1-0.1-0.3-0.2-0.4	C365,389.3,364.9,389.4,364.8,389.6z" class="st4"/><path d="M330.6,411.2c0.1,0.1,0.2,0.3,0.2,0.4c0.1-0.1,0.2-0.3,0.2-0.4c0-0.1-0.1-0.3-0.2-0.4	C330.8,410.9,330.7,411.1,330.6,411.2z" class="st4"/><path d="M330.6,401.4c-0.6-0.1-1.3-0.3-1.8,0.4C329.4,401.8,330.1,401.9,330.6,401.4z" class="st4"/><path d="M349.1,405.6c0,0.1-0.1,0.2-0.1,0.2c0,0.1,0.1,0.1,0.2,0.2C349.1,405.9,349.1,405.7,349.1,405.6z" class="st4"/><path d="M350.8,406.1c0,0.1-0.1,0.2-0.1,0.2c0,0.1,0.1,0.1,0.2,0.2C350.8,406.4,350.8,406.3,350.8,406.1z" class="st4"/><path d="M368.9,387.8c-0.1,0-0.1-0.1-0.2-0.1c0,0.1,0,0.2-0.1,0.3c0.1,0,0.2,0,0.2,0	C368.9,387.9,368.9,387.8,368.9,387.8z" class="st4"/><path d="M350.3,399.4c-0.1,0-0.2,0-0.2,0.1c0,0.1,0,0.2,0.1,0.2c0.1,0,0.2,0,0.2-0.1	C350.4,399.5,350.3,399.4,350.3,399.4z" class="st4"/><path d="M349.1,401.6c0,0.1-0.1,0.2-0.1,0.2c0,0.1,0.1,0.1,0.2,0.2C349.1,401.9,349.1,401.7,349.1,401.6z" class="st4"/><path d="M339.2,407.1c0.2-0.2,0.3-0.5,0.5-0.7C339.5,406.6,339.4,406.8,339.2,407.1z" class="st4"/><polygon points="327.7 406.9 327.6 406.7 327.5 406.8" class="st4"/><polygon points="327.7 406.9 327.9 407.2 328 407.1" class="st4"/><path d="M269.1,396.8c0.4-0.7,1.1-0.6,1.7-0.6c0-0.4,0-0.8,0-1.1c0.1-1-0.3-1.7-1.4-1.7c-1,0.1-1,0.9-0.9,1.7	C268.6,395.6,268.2,396.4,269.1,396.8z" class="st1"/><path d="M270.9,396.6c-0.1,0.6-0.2,1.3,0.3,1.8C271.3,397.7,271.2,397.1,270.9,396.6z" class="st2"/><path d="M293.6,399.9c-0.2-0.1-0.4-0.2-0.7-0.3C293.1,399.7,293.3,399.8,293.6,399.9z" class="st1"/><path d="M367,396.7c0,0.1,0.1,0.2,0.1,0.2C367.1,396.8,367.1,396.8,367,396.7L367,396.7z" class="st3"/><path d="M313.2,249.8c-9.7,0.7-19.3,1.8-28.1,6.2c-3.1,1.5-5.9,3.5-8.9,5.4c-0.7,0.4-1.3,1.1-1.6,1.9	c-0.3,0.9-0.6,1.8,0.2,2.6c0.7,0.7,1.6,0.8,2.6,0.5c2.2-0.7,3.8-2.3,5.6-3.6c11.8-8.5,25-9.5,38.9-7.1c1,0.2,2.1,0.3,3.1,0.3	c1,0.1,2.3,0.1,2.7-1.1c0.4-1.4-0.7-2.4-1.9-2.8c-2.9-0.9-5.7-2.4-8.8-2.3C315.7,249.8,314.5,249.8,313.2,249.8z" class="st4"/><path d="M362.8,269.7c-0.3-3.5-3.1-5.1-5.3-6.8c-3.5-2.8-7.7-4.6-12.1-5.1c-1-0.1-1.7-2.1-2.8-0.7	c-1.1,1.4-1.3,3,0.8,3.6c6.8,1.8,12,6.3,17.5,10.3c0.4,0.3,1,0.5,1.2,0.2C362.5,270.8,362.6,270.1,362.8,269.7z" class="st4"/><polygon points="155.8 244.2 131.6 220.1 98 226.4 113.4 195.9 97.1 165.9 130.8 171.2 154.3 146.3 159.8 180.1 190.7 194.7 160.2 210.3" class="st5"/><polygon points="480 249.2 469.8 223.1 442.5 216.9 464.1 199 461.6 171.2 485.2 186.2 511 175.2 504 202.3 522.4 223.5 494.4 225.2" class="st5"/><polygon points="453.3 473.6 430.6 472.4 416 489.7 411.1 468.6 390 461.3 409.6 449.4 411.2 427.5 428.3 441.3 450.4 435.1 441.3 455.5" class="st5"/><polygon points="375.5 195.1 361.2 183.6 343.9 189.5 350.1 171.5 339.6 156.1 357.8 156.5 368.7 141 373.6 159.3 390.9 165.1 375.8 176" class="st5"/><polygon points="452.2 342.6 441.5 334.1 428.7 338.5 433.3 325.2 425.5 313.8 439 314.1 447.1 302.6 450.7 316.1 463.5 320.4 452.3 328.5" class="st5"/><path d="M150.9,184.2c-10.7,6.8-21.4,13.7-32.1,20.5" class="st6"/><path d="M131.5,204.4c6.4-3,12.8-6,19.2-9" class="st6"/><path d="M355.6,172.2c4.6-2.9,9-6,13.3-9.4" class="st6"/><path d="M360.7,173.2c3.4-1.5,6.8-3,10.2-4.5" class="st6"/><path d="M482.9,197.2c-1.4,8.1-2.7,16.3-3.7,24.5c0,0.3-0.2,0.7-0.5,0.7s-0.1-0.6,0-0.4" class="st6"/><path d="M488.3,201.8c-0.8,5-1.6,10-2.4,15" class="st6"/><path d="M438,325.3c2.3-3,4.8-5.9,7.5-8.7" class="st6"/><path d="M442.1,325.9c1.4-1,2.7-2.2,3.8-3.5" class="st6"/><path d="M424.5,446c-1.5,7.9-3,15.8-4.4,23.8" class="st6"/><path d="M429.9,454.9c-0.2,3.3-0.9,6.5-2.2,9.5" class="st6"/><g><path d="M298.4,346.8c1.9-2.2,4-4.3,6-6.3l3.5-2.5l3.5-2.4c4.7-3.2,9.6-6.3,14.4-9.3c4.9-3,9.8-5.9,14.8-8.7c2.5-1.4,5-2.7,7.6-4.1 c2.8-0.9,5.5-1.8,8.3-2.6c-2.3,1.8-4.6,3.5-6.9,5.2c-2.5,1.3-5,2.7-7.5,4c-5,2.8-9.9,5.6-14.7,8.6c-4.8,3-9.6,6.1-14.3,9.3 c-2.3,1.6-4.7,3.2-7,4.9C303.6,344.2,301,345.6,298.4,346.8z"/></g><g><path d="M316.4,353.7c1.3-1.6,2.8-3,4.2-4.4l5.1-3c3.4-2,6.8-3.9,10.2-5.8s6.9-3.7,10.4-5.5l5.3-2.6c2-0.5,3.9-0.9,5.9-1.2 c-1.5,1.4-3.1,2.6-4.6,3.9l-5.2,2.6c-3.5,1.8-6.9,3.6-10.3,5.5c-3.4,1.9-6.8,3.8-10.2,5.8c-1.7,1-3.4,2-5,3 C320.3,352.5,318.4,353.2,316.4,353.7z"/></g></svg>