<svg width="73" height="51" viewBox="0 0 73 51" fill="none" xmlns="http://www.w3.org/2000/svg">
<path fill-rule="evenodd" clip-rule="evenodd" d="M13.6666 17.0833C13.6666 13.2494 16.3643 10.25 20.5 10.25C24.6242 10.25 27.3333 13.5327 27.3333 17.425C27.3333 23.0277 24.2892 25.625 20.5 25.625C16.6748 25.625 13.6666 22.9384 13.6666 17.0833ZM17.0833 17.0833C17.0833 20.96 18.4811 22.2083 20.5 22.2083C22.5119 22.2083 23.9166 21.0098 23.9166 17.425C23.9166 15.2903 22.5767 13.6667 20.5 13.6667C18.3368 13.6667 17.0833 15.0604 17.0833 17.0833ZM6.875 31.7334C7.73056 32.6338 8.67446 33.4496 9.69279 34.1667H10.25V32.4583C10.25 30.4119 13.913 29.0417 20.5 29.0417C27.087 29.0417 30.75 30.4119 30.75 32.4583V34.1667H31.3072C32.3255 33.4496 33.2694 32.6338 34.125 31.7334C33.6137 27.41 28.4342 25.625 20.5 25.625C12.5657 25.625 7.38628 27.41 6.875 31.7334Z" fill="white"/>
<path d="M9.5 32C13.3333 34.6667 23 38.4 31 32" stroke="white" stroke-width="3"/>
<path fill-rule="evenodd" clip-rule="evenodd" d="M29.6666 27.0833C29.6666 23.2494 32.3643 20.25 36.5 20.25C40.6242 20.25 43.3333 23.5327 43.3333 27.425C43.3333 33.0277 40.2892 35.625 36.5 35.625C32.6748 35.625 29.6666 32.9384 29.6666 27.0833ZM33.0833 27.0833C33.0833 30.96 34.4811 32.2083 36.5 32.2083C38.5119 32.2083 39.9166 31.0098 39.9166 27.425C39.9166 25.2903 38.5767 23.6667 36.5 23.6667C34.3368 23.6667 33.0833 25.0604 33.0833 27.0833ZM22.875 41.7334C23.7306 42.6338 24.6745 43.4496 25.6928 44.1667H26.25V42.4583C26.25 40.4119 29.913 39.0417 36.5 39.0417C43.087 39.0417 46.75 40.4119 46.75 42.4583V44.1667H47.3072C48.3255 43.4496 49.2694 42.6338 50.125 41.7334C49.6137 37.41 44.4342 35.625 36.5 35.625C28.5657 35.625 23.3863 37.41 22.875 41.7334Z" fill="white"/>
<path d="M25 42C29.0116 44.6667 39.1279 48.4 47.5 42" stroke="white" stroke-width="3"/>
<path fill-rule="evenodd" clip-rule="evenodd" d="M45.6666 17.0833C45.6666 13.2494 48.3643 10.25 52.5 10.25C56.6242 10.25 59.3333 13.5327 59.3333 17.425C59.3333 23.0277 56.2892 25.625 52.5 25.625C48.6748 25.625 45.6666 22.9384 45.6666 17.0833ZM49.0833 17.0833C49.0833 20.96 50.4811 22.2083 52.5 22.2083C54.5119 22.2083 55.9166 21.0098 55.9166 17.425C55.9166 15.2903 54.5767 13.6667 52.5 13.6667C50.3368 13.6667 49.0833 15.0604 49.0833 17.0833ZM38.875 31.7334C39.7306 32.6338 40.6745 33.4496 41.6928 34.1667H42.25V32.4583C42.25 30.4119 45.913 29.0417 52.5 29.0417C59.087 29.0417 62.75 30.4119 62.75 32.4583V34.1667H63.3072C64.3255 33.4496 65.2694 32.6338 66.125 31.7334C65.6137 27.41 60.4342 25.625 52.5 25.625C44.5657 25.625 39.3863 27.41 38.875 31.7334Z" fill="white"/>
<path d="M42 32C46.0116 34.6667 56.1279 38.4 64.5 32" stroke="white" stroke-width="3"/>
</svg>
