<svg xmlns="http://www.w3.org/2000/svg" width="51" height="51" fill="none" viewBox="0 0 51 51"><path fill="#fff" fill-rule="evenodd" d="M25.5 2.125C38.4097 2.125 48.875 12.5903 48.875 25.5C48.875 38.4097 38.4097 48.875 25.5 48.875C12.5903 48.875 2.125 38.4097 2.125 25.5C2.125 12.5903 12.5903 2.125 25.5 2.125ZM6.51451 23.1782C7.134 23.9711 8.8566 24.9857 11.4926 25.8135C12.5305 26.1394 13.6672 26.4259 14.8868 26.6692C14.879 26.2817 14.875 25.8919 14.875 25.5C14.875 18.4288 16.1618 12.043 18.3909 7.7399C12.0363 10.2859 7.36586 16.1436 6.51451 23.1782ZM15.1494 31.048C11.7371 30.4549 8.81118 29.5572 6.5938 28.4023C7.62527 35.1776 12.2119 40.7845 18.3909 43.2601C16.7634 40.1183 15.6382 35.8664 15.1494 31.048ZM19.5052 31.6143C21.4115 31.7861 23.4194 31.875 25.5 31.875C27.5471 31.875 29.564 31.759 31.5037 31.5438C30.5452 39.1886 27.8949 44.625 25.5 44.625C23.1125 44.625 20.4711 39.2221 19.5052 31.6143ZM31.8459 27.2096C29.8281 27.4709 27.6846 27.625 25.5 27.625C23.281 27.625 21.151 27.5151 19.1575 27.3067C19.1361 26.7124 19.125 26.1098 19.125 25.5C19.125 14.841 22.5114 6.375 25.5 6.375C28.4886 6.375 31.875 14.841 31.875 25.5C31.875 26.0766 31.8651 26.6468 31.8459 27.2096ZM35.8684 30.8696C35.3894 35.7614 34.2566 40.0796 32.6091 43.2601C38.8972 40.7408 43.5361 34.9787 44.4575 28.0424C42.2047 29.2142 39.2375 30.1941 35.8684 30.8696ZM44.4731 23.0778C43.4731 24.2002 40.319 25.5335 36.117 26.465C36.1223 26.1449 36.125 25.8232 36.125 25.5C36.125 18.4288 34.8382 12.043 32.6091 7.7399C38.9335 10.2738 43.5896 16.0879 44.4731 23.0778Z" clip-rule="evenodd"/></svg>