<?xml version="1.0" encoding="utf-8"?>
<!-- Generator: Adobe Illustrator 24.3.0, SVG Export Plug-In . SVG Version: 6.00 Build 0)  -->
<svg version="1.1" id="Layer_1" xmlns="http://www.w3.org/2000/svg" xmlns:xlink="http://www.w3.org/1999/xlink" x="0px" y="0px"
	 viewBox="0 0 841.9 459.3" style="enable-background:new 0 0 841.9 459.3;" xml:space="preserve">
<style type="text/css">
	.st0{fill:#E5EAF6;}
	.st1{fill:#E0E5F4;}
	.st2{fill:#98B2DC;}
	.st3{fill:#8596CC;}
	.st4{fill:#BFCEEA;}
	.st5{fill:#F28580;}
	.st6{fill:#282365;}
	.st7{fill:#F4B0B1;}
	.st8{fill:#2F2D7D;}
	.st9{fill:#F09A9B;}
	.st10{fill:#303086;}
	.st11{fill:#F17B72;}
	.st12{fill:#2D2A73;}
	.st13{fill:#515BA8;}
	.st14{fill:#F37166;}
	.st15{fill:#FFFFFF;}
</style>
<path class="st0" d="M278.9,90.8c19.8,4.3,39.4,10.3,59.8,11.2c24.2,1,47.3-4.8,70.3-11.7c6.4-1.9,12.7-3.8,19.1-5.8
	c0.2,0,0.4,0,0.7-0.1c-0.1,9.2,3.4,17.4,7.1,25.5c0.4,0.8,1.4,0.7,2.2,0.3l-0.1,0c-2.3,4,0.5,6.4,2.6,9.2
	c4.8,6.4,10.8,12.4,13.4,19.8c3.4,9.7,6.8,19.1,14.3,26.5c-2,1.6-4.2,2.4-3,6.3c0.6,1.9,2.9,5.7-0.4,8.1c4.1,2.1-2.7,6.1,1.1,7.7
	c3.5,1.5,5.1,3.3,5,7.2c0,1.3,1.4,3.1,2.6,4c5.5,4.5,18.4,4.6,24.3,0.3c2.6-1.9,5.4-4.1,5.2-7.4c-0.2-4.2,1.9-6,5.2-7.3
	c1.5-0.6,2.9-0.9,2-3.5c-0.8-2.4,0.4-5.6-0.4-8c-1.1-3.4,2.7-9.1-4.3-10.1c1.3-4.1,5.5-6.5,6.6-10.9c1.5-6.2,4.4-11.9,7.5-17.5
	c5.2-5.6,11.1-10.7,15.4-17c14.5-21.2,19.5-47.8,0.5-70.8c23.1-8,46.9-12.5,71.2-13.2c22-0.6,43.6,3.4,61.6,17.5
	c5.1,4,10.7,8.2,11.7,15.5c-1.5-1-3.1-2-4.6-3.1c-8.4-6.1-8.8-6.1-17.2,0.2c-1,0.7-2.1,1.4-3.1,2.1c-5.6-5.4-13-8.5-18.5-13.7
	c-6.6-6.2-14.1-9.5-22.5-11.7c-8.3-3.9-17.3-3.9-26.2-4.2c-4.2-0.1-5.2,1.8-4.1,5.3c2.4,8.2,5.4,16.2,10.9,22.9
	c1.2,2.9,3.4,4.9,5.6,7.1c9.4,9.8,20.9,16.6,32.2,23.8c-6.6,10.7-6.2,12.2,3.2,19.5c4.6,3.6,9.7,6.4,14.7,9.2
	c3.4,2.2,6.8,4.5,11.1,7.4c-0.3-6.9-2.8-11.9-4.6-17c-0.9-2.9-1.7-5.7-2.6-8.6c4.6,2.1,6.3-2.5,9.3-3.9c1,8.8,3.1,10.8,12.9,12.3
	c4.2,1.3,8.4,2.5,12.6,3.8c-3.2,0.4-4.5,2.3-3.6,5.2c2.1,6.5,1.1,14,6.3,19.7c0.8,0.9,0.7,2.7,0.9,4.1c-4.7,3.9-4.9,8.7-2.4,13.7
	c0.8,1.6,1.1,3.1,1.1,4.7c0,9.7,0,19.4,0.1,29.1c-3.8,0.5-3.8-1.9-3.8-4.7c0.1-11,0-22.1,0-33.1c0-7-1.4-8.1-8.2-8.7
	c-6.7-0.6-6.9,3.5-6.8,8.2c0,1.5-0.1,2.9-0.1,4.4c-0.7,0-1.5,0-2.2-0.1c2.4-11.5,1.6-13.1-7.5-14.6c-8.5-1.4-12.8,2.1-12.6,10.7
	c0.3,12.6,1.9,25.2,1.1,37.9c-4,0-7.9,0-11.9,0.1c-2.1,0-3.8,0.8-3.9,3.1c-0.1,2.1,1.2,3.5,3.2,4c1,0.2,2.1,0.2,3.1,0.2
	c32.1,0,64.2,0,96.4,0c2.4,0,4.6,0,6-2.4c7,2.4,7.5,9.5,10.2,14.7c7.9,15.2,8.2,31.7,4.5,47.7c-4.8,21.1-11.7,41.8-21.1,61.3
	c-3.2,6.7-6.8,13.7-15.2,15.5c-1.4-2.3-3.3-3.4-6-2.9c-0.1-11.7,2.1-23.1,3-34.7c1.8-24.5,0.3-48.8-2.2-75c-3,5.4-5.5,9.2-7.1,13.2
	c-5,12.2-11.3,23.8-17,35.6c-7.8,16.1-16.7,31.6-22.7,48.6c-1.1,3-3.3,2.8-5.5,1.7c-2.4-1.2-5.3-0.9-6.1,1c-1.3,3.1-3.2,4.9-6,6.3
	c-1.3,0.6-2.2,2.7-1.4,3.8c2.5,3.6-0.3,7.1,0.2,10.7c-1.5-0.1-3-0.1-4.5-0.2c0.2-15.7,1.9-31.6-3.5-46.9c2.7-2.3,0.6-4.8,0-7
	c-5.6-20.6-10.9-41.3-22.7-59.5c-1-1.5-1-3.1-0.9-4.8c0.5-8.2-3.8-13.3-10.6-16.8c-5.7-3-11.8-4.1-18.1-3.9
	c-1.3-3.2-2.6-6.4-3.9-9.7c2.8-2.3,5.6-4.7,5-8.9c3.2-2,4-4.5,1.8-7.8c-0.9-1.3-1.2-2.6-0.2-4c4.5-6.6-1-7.7-5.3-9.3
	c-3.2,0.1-6.2-0.6-8.9-2.6c0.6-5.6-3.9-6.6-7.5-7.1c-4.5-0.7-7.2,2.6-8.7,6.5c-1.6,4.1,0.1,6.8,3.9,8.5c-1.4,5.6-3.7,10.9-4.1,16.7
	c-4.6,1.7-3.2,6.2-4.3,9.5c-1.7,5-0.3,8.2,5.8,7.2c2.8,2.2,5.9,1,9,1.1c1,0.6,1.9,1.3,2.1,2.6c-4.6,1.6-6.7,4.8-7.6,9.6
	c-2.8,15.3-6.1,30.6-9.2,45.8c-6.4-4.9-11.2-11.1-16.2-17.4c-5.3-6.7-9.5-14.7-18.2-18c-2.8-2.3-5.9-3.9-9.5-4.5
	c-0.6,4.4,4.3,4.5,5,7.7c-2.4,1.8-5.2,2.4-8,3.2c-2-1.1-5,1.7-6.4-1.8c-5.1-12.2-14.6-18-27.6-18.6c-0.8-1.1-1.6-1.1-2.4,0
	c-2.1,0.7-4.6-0.5-6.3,1.6c-1.3,0.3-2.5,0.6-3.8,0.9c-2.1-1.4-4.1-1.4-6.2,0.1c-3.1,0.7-5.7,2.3-7.9,4.7c-6.4,7.3-4.2,14.6,5,16.4
	c0.2,2.7,0.9,5.3,2.1,7.8c4.2,9,9.6,12.2,17.1,10c0.8,1.5,1.5,3.1,1,4.9c-5.6,9.8-12,19.3-10.6,31.5c0.7,2.2,1.3,4.4,2,6.6
	c-0.9,7.2-6.2,6-11,6l-0.1-0.1c4.3-6.2,2.9-9.3-4.9-11.1c-1.8-2.7-3.3-5.6-4-8.8c1.2-4.8,0.7-8.4-5.4-8.6c-2-0.5-3.9-1.1-5.9-1.6
	c0.2-2-0.9-3.4-2-5c-8.7-12.4-20.3-22.2-29.5-34.2c-2-2.6-3-6.7-7.4-7c-0.6-1.3,1.7-2.4,0.2-3.8c-0.5-0.5-0.9-0.9-1.4-1.4
	c0.4-0.8,0.7-1.6,1.1-2.4c6.6-5.4,14.9-9.1,19.1-17.2c2.7-0.2,3.7-2.3,5-4.2c5.4-8,8.5-16.9,11.1-26.1c1.4-1.2,3.1-2.2,4.2-3.6
	c2.4-3.2,6.3-6.3,1.8-10.8c-1.3-1.3-0.5-2.4,1-3.4c1.6-1,3.7-2.2,2.7-4.9c-9.7,3.2-14.6,10.4-14.6,21.5c-2.7,6.5-7,11.7-12.6,15.9
	c-5.9,2.9-10.8,7.6-17.4,9.2c-0.4,0.3-0.7,0.5-1.1,0.8c-3.1,1.1-6.2,2.1-9.3,3.2c-3.2,0.7-6.4,1.3-9.6,2c-3-5.5-8.9-8.3-12.6-13.2
	c-0.3-0.4-1.6-0.2-2.4-0.2c0.1-1.7,0.1-3.4,0.2-5.1c0.1-0.1,0.4-0.3,0.3-0.4c-0.1-0.3-0.3-0.5-0.4-0.8c-0.8-4.9-3.6-9.1-5.3-13.7
	c1.2-1.6,2.9-2.9,3-5.2c0.1-0.1,0.4-0.3,0.3-0.3c-0.1-0.3-0.2-0.6-0.4-0.8c-1.1-4.1-2.1-8.4-7.9-5.1c-1.4-0.5-2.9-1.9-3.9,0.5
	c-3.2-2.3-6.4-2.3-9.5,0.1c-3.9-5.8-9.3-10.4-13.9-15.6c-13.8-15.6-27-31.7-40.5-47.6C283,95.8,279.2,94.7,278.9,90.8z M680.5,227.9
	c-4.8,2-6.7,6.5-9.6,10.2c-4,5-5.7,5-9.2,0c-1.8-2.5-3.4-5.3-5.5-7.5c-3.7-3.9-1-5,2.2-5.3c7.2-0.8,14.5-1.2,21.8-1.7
	c2.6-0.2,3.9,0.9,3.8,3.6c-0.1,7.1-0.1,14.2,0,21.3c0,3-1.4,3.9-4.2,4c-7.9,0.3-15.8,0.5-23.7,1.3c-6.2,0.6-7.9-1.7-7.5-7.6
	c0.5-6.8,0.1-13.7,0.1-20.6c-0.8,0-1.6,0-2.4,0c0,9.2-0.1,18.4,0.1,27.5c0.1,3,2.8,3.1,5.2,3.1c10.2,0.1,20.4-0.4,30.6-1.3
	c3.5-0.3,5.3-2.2,5.3-5.7c0-7.9,0.1-15.9,0-23.8c-0.1-3.8-2.3-5.7-6.1-5.4c-8.3,0.7-16.5,1.5-24.8,2.4c-4.8,0.5-6.6,3.9-4.1,7.9
	c2.7,4.2,5.5,8.3,8.6,12.2c2.6,3.3,6.7,3.8,9.2,0.7C674.2,238.6,678.4,234,680.5,227.9z"/>
<path class="st1" d="M278.9,90.8c0.3,3.9,4,5,6.1,7.4c13.5,15.9,26.6,32,40.5,47.6c4.6,5.2,10,9.8,13.9,15.6c-1,2.4-1.7,4.4-5.3,4.7
	c-4.5,0.4-6.2,4.2-5.4,8.7c0.2,1,0.9,2.1-0.3,2.7c-2.4,1.1-3.8,2.7-2.4,5.3c1.5,2.8,4.3,1.7,6.7,1.9c2.2,2,4.5,4.1,6.7,6.1
	c-2.2,6.1-4.4,12.3-6.6,18.4c-22.8,2.3-39.3,15.3-43.6,34.4c-0.2,2.6-1.1,5.1-0.7,7.9c2.1,13,9.9,19.3,22.7,20.4
	c0.5,7.7,0,15.6,1.7,23.2c-1.8,8.1-2.2,16.4-2.4,24.7c-3,0.5-6,1-8.9,1.6c-11.7-7.2-23-14.7-28.6-28.1c-2.7-7.6-5.7-15-11.4-21.1
	c1.6-3.3,3.3-6.7,4.9-10c1.2-0.4,2.3-1,3.5-1.2c7.7-1.4,9.3-3.4,7.5-10.9c-1.1-4.8-2.8-9.5-6.3-13.2c0.9-0.8,1.9-1.6,2.6-2.5
	c2.6-3.4,2.5-6.8-0.3-10c-3.1-3.5-5.1-0.5-7.4,1.3c-0.9,0.7-2.1,1-3.2,1.6c-1.9-1.2-0.7-2.3,0.1-3.6c4.8-8.9,10-17.8,12.3-27.8
	c4.6,0,9.1-0.1,13.7-0.1c2,0.1,4,0.1,5.5-2c-2.2-0.8-3.8,0.2-5.4,1c-4.2,0-8.3-0.1-12.5-0.1c-0.4-3.1,0.7-5.9,1.2-8.9
	c0-6.3,0.1-12.7,0-19c0-2,0.5-4.3-2.3-4.9c-1-3.2-1.7-6.5-3.2-9.4c-2.4-4.6-1.1-5.3,3.6-5.6c7-0.4,13.8,2.5,20.8,0.5
	c-4.6,0.5-8.8-2.1-13.4-1.7c-4.8,0.4-9.5-0.3-14.2-1.1c-0.4,0-0.7-0.1-1.1-0.1c-1.7-7.9-7.7-13.1-12.1-19.3
	c-8.9-12.4-19.7-23-31.4-32.6c-4.3-3.6-8-1.7-10,1.9c-8.4,15.5-15.9,31.5-25.9,46c-6.7,9.6-10,20.9-14.6,31.5c-1.4-2-3-3.8-4.7-5.6
	c-6.3-6.7-15-8.2-22.9-11.6c1.2-8.7,6.2-15.7,10.8-22.6c16-24.3,36.9-42.2,66.8-47.1c10.9-1.8,21.9-1.1,32.8,0.8
	C264,87.4,271.4,89.2,278.9,90.8z M304,167.2c4.7-4.2,2.9-9.9,3.6-15C304.8,156.9,303.2,161.8,304,167.2c-1.4,1.1-1.8,2.4-0.2,4.4
	C303.9,169.8,303.9,168.5,304,167.2z M291.5,171.9c0-3.5-0.2-7.1,0-10.6c0.3-4.7-2.9-4-5.8-4.1c-3.2-0.1-5.8-0.1-5.6,4.4
	c0.3,6.7,0.2,13.4,0,20c-0.1,3.1,0.9,4.3,4.3,4.5c5.1,0.3,8.1-0.8,7.2-6.7C291.2,177,291.5,174.4,291.5,171.9z M303,148.8
	c-0.7-0.1-1.3-0.3-1.9-0.3c-0.4,0-1,0.4-1,0.5c0.4,1,1.3,0.7,2,0.6C302.4,149.5,302.6,149.2,303,148.8z M301.4,180.3
	c-0.2-0.3-0.4-0.7-0.6-1c-0.2,0.3-0.5,0.7-0.5,1c0,0.3,0.3,0.7,0.5,1C301,181,301.2,180.7,301.4,180.3z M302.1,176.4
	c0.2-0.4,0.5-0.7,0.5-1c0-0.3-0.3-0.7-0.5-1c-0.2,0.3-0.5,0.7-0.5,1C301.6,175.7,301.9,176,302.1,176.4z M299.8,184.3
	c-0.1,0-0.3,0-0.4,0.1c-0.1,0.1-0.1,0.3-0.1,0.5c0.2,0,0.5-0.1,0.7-0.1C299.9,184.6,299.8,184.5,299.8,184.3z M297.2,191.8
	c-0.1,0-0.3,0-0.4,0.1c-0.1,0.1-0.1,0.3-0.1,0.5c0.2,0,0.5-0.1,0.7-0.1C297.4,192.1,297.3,192,297.2,191.8z M298.5,188.1
	c-0.1,0-0.3,0-0.4,0.1c-0.1,0.1-0.1,0.3-0.1,0.5c0.2,0,0.5-0.1,0.7-0.1C298.6,188.4,298.6,188.2,298.5,188.1z"/>
<path class="st2" d="M146.1,155c7.8,3.4,16.6,4.9,22.9,11.6c1.7,1.8,3.3,3.6,4.7,5.6c1.5,4.3,3,8.4,3.8,13c2.2,12.3,0.7,24.7,1.1,37
	c-1.7,10.8-2.7,21.7-2.5,32.7c-2.4,9.8-0.7,19.7-0.1,29.5c0.6,9.2,2.8,11.2,12,9.6c1-0.2,2-0.3,3.1-0.4c2.5,0.5,4.8,1.8,7.5,1.4
	c4,2.1,5.6,5.8,6,10c0.4,3.6,0.3,7.3,0.4,11c-0.3,8.1-0.6,16.1-0.9,24.2c-2,8.5,5.1,5.4,8.2,5.7c15.3,1.5,15.3,1.3,17.1,15.9
	c-0.2,3.2-0.4,6.4-0.6,9.6c0.3,11-3,21.5-3.9,32.4c-2.4,4-5.9,5.4-10.4,5.1c-3.7-0.2-7.5,0.4-11.2-0.2c-4.9-0.8-9.3-1-12,4.1
	c-0.1-2.1-0.2-4.2-0.3-6.2c7.7-0.1,15.4-0.2,23.1-0.1c4.2,0,6.3-1.5,7.3-5.8c2.6-10.9,4.3-22,4.5-33.1c0.4-18-1.5-18.7-19.1-18.8
	c-0.4,0-0.8,0-1.2,0c-2,0-3,0.8-3.2,2.9c-0.8,7-1.7,13.9-2.5,20.9c-1.7,2.1-3.4,4.2-5.1,6.2c-8.9,0-18,0.6-26.8-0.3
	c-14.9-1.4-29.8-0.8-44.7-2.2c-3.8-0.4-5.4,1.2-4.9,5c0.9,5.9,1.7,11.9,2.5,17.8c0.4,2.5,1.8,4.2,4.4,4.6c3.9,0.6,7.8,1.2,11.7,1.3
	c16.4,0.3,32.8-0.6,49.2,1.5c0,0.4,0,0.7-0.1,1.1c-20.8-0.4-41.5-0.9-62.3-1.3c-4.6-0.1-7-2.3-8.2-6.9c-0.9-3.7-0.2-7.6-1.5-11
	c-1.5-3.9,1.5-9.5-2.5-11.5c-3.3-1.7-8.2-0.4-12.3-0.7c-6.3-0.5-12.9,0.3-18.5-3.8c-3.9-5.3-2.9-11.8-3.7-17.7
	c-1.8-14.3-2.7-28.8-4.1-43.1c-0.1-1-0.7-1.9-1.1-2.9c-0.1-12,1-13.8,12.2-14.8c14.2-1.2,28.4-2.4,42.7-2.8
	c13.1-0.3,26.1,1.1,39.1,1.2c6,1,8.9-0.5,6.4-7.2c-0.6-1.5,0.2-3.5-0.3-4.9c-1.1-3.1,0.5-7.2-3.5-9.2c-1.9-13.3-9.8-21.4-22-26.3
	c-16.3-6.5-30.2-15.7-37.8-32.4c-1.9-4.2-3.2-8.6-3.8-13.1c-2-15.8-10.4-28.5-19-41.2c-0.7-1-1.4-2.1-2.1-3.1
	c-1-1.5-2.8-2.9-1.3-4.9c1.3-1.8,3.2-1.3,5.1-1.2C107.4,149.8,126.8,151.8,146.1,155z M133.5,296.2c-15.6-0.4-31.1,0.2-46.6,2.5
	c-5.8,0.9-8.3,4.2-8.7,9.9c-0.3,3.7,2.5,5.9,2.7,9.3c1,14.9,2.5,29.7,3.8,44.5c0.5,6.2,2.7,10.4,10,10.8c12.9,0.8,25.8,0.2,38.7,0.6
	c18.8,1.4,37.6,2.7,56.5,2c2.8-0.1,5.6-2,6.2-5.4c3.7-20.7,6.1-41.5,5-62.5c-0.3-5.5-3.4-8.8-9.1-9.3
	C172.6,297,153.1,295.5,133.5,296.2z M173.2,264c0-0.8,0.1-1.6,0-2.3c-3-13.2-6.6-26.3-9-39.7c-3.9-21.6-13.7-38.9-33-50.1
	c-3.3-1.9-6.6-3.9-10.9-4.1c0.5,0.7,0.6,1.2,0.9,1.4c1.5,0.8,3,1.5,4.4,2.3c15.3,9.3,27.6,20.7,32.4,39.1
	C162.7,228.4,165.8,246.7,173.2,264z M117.5,165.8c-0.3-0.2-0.8-0.6-1.3-0.7c-0.6-0.1-1.2,0.4-0.8,1.1c0.2,0.4,0.9,0.7,1.4,0.8
	C117.2,167.1,117.9,166.9,117.5,165.8z"/>
<path class="st3" d="M271.7,428.6c-1.3,2-2.5,4-3.8,6c-0.5-0.2-1.1-0.4-1.6-0.6c2.2-12.1,9.8-22.7,11.3-35.1
	c3.3-4.2,6.6-8.4,7.7-13.8c3.3-4.5,3.2-9,0.7-13.9c-3.8-7.5-7.2-15.2-10.7-22.9c-0.5-1.5-1.1-3.1-1.6-4.6c-0.6-3.8-2.8-5.1-6.6-4.9
	c-5,0.2-10,0.2-14.9,0c-4.6-0.2-6.8-3.9-6.8-7.5c0-3.8,4-2.6,6.5-2.6c13.3-0.1,26.6-0.1,39.8-0.1c15.6,0,31.3,0.1,46.9,0
	c4.8,0,10.9,2,11.7-6c0-0.2,0.7-0.2,1.1-0.4c-0.5,4.9,1.4,6.7,6.6,6.5c12.6-0.4,25.2-0.1,37.9-0.2c2,0,4.2,0.8,5.8-1.2
	c1.4,0.9,2.9,1.3,4.7,1.3c13.5-0.1,27-0.2,40.4-0.2c17.5,0.1,35,0.2,52.5,0.2c1.2,0,2.4-0.6,3.5-0.9c10.5,2,21.1,0.5,31.7,0.9
	c1.3,0,2.6,0.1,3.9,0.1c22.2,0,44.4-0.1,66.6-0.1c4,0.8,2.5,3.6,2,5.8c-0.5,2.5-1.5,4.7-4.8,4.7c-3.1-0.1-6.2,0.2-9.3,0
	c-3.5-0.2-5.6,1-5.7,4.7c-2.5,1.9-2,5.3-3.9,7.5c-3.6,5-6.7,10.2-8.7,16c-1.7,4.9-5.5,9.6-2.4,15.3c2.4,6.9,6.3,13,9.6,19.5
	c1.3,5.9,3.9,11.3,6.5,16.7c1.4,4.1,2.7,8.2,4.2,12.3c0.4,1.2,1.1,2.5-0.5,3.2c-1.6,0.7-2-0.9-2.5-2c-2.7-6.7-5.4-13.4-8.2-20.1
	c-0.6-1.4-0.4-3.5-2.9-3.3c-0.2-7.2-5.4-12.4-7.6-18.7c0-1.9-0.1-4.4-2.1-4.7c-2.2-0.3-2.4,2.4-3,4c-4.6,11.6-8.9,23.4-14.9,34.4
	c-1.3,3.7-2.6,7.4-3.8,11.2c-1,0-2,0-3,0c-0.8-2.9,1.7-5.3,1.2-8.1c2.2-2.1,2.8-4.9,3.2-7.7c2.4-5.1,4.9-10.2,7.3-15.3
	c3.2-7.6,6.4-15.3,9.5-23c0.5-1.3,0.8-3,0.4-4.2c-4.3-12.3-9-24.4-15.3-35.7c-1.8-3.2-14.5-2.6-17.3,0.4c-3-1.9-6.3-2.3-9.9-2.3
	c-23.7,0.1-47.5,0-71.2,0c-2.2,0-4.6-0.9-6.5,1c-1.6-0.4-3.2-1.1-4.8-1.1c-28.2,0-56.4,0-84.6,0c-2.2,0-4.3-0.1-4.9,2.7
	c-2.5-2.1-5.2-2.8-8.5-2.6c-3.7,0.2-7.5,0-11.2-0.1c-0.8,1.2-1.6,2.4-2.3,3.7c-0.4-1.5,0.1-3.6-2.4-3.4c-5.6,0.4-11.3-1.3-16.8,0.9
	c-7.4,8.2-10.6,18.2-12.5,28.8c-3.7,3.1-5.8,6.9-4.1,11.6c3.3,8.7,7,17.3,10.5,25.9c2.4,5.3,4.6,10.6,7.1,15.9
	c1.4,3,1.2,6.9,4.3,9.1l0.1-0.3c-0.7,1.2-0.2,3.4-2.1,3.5c-1.7,0.1-1.9-1.9-2.5-3.2c-5.3-12.1-10.5-24.2-15.8-36.3
	c-0.4-0.4-0.9-0.8-1.3-1.1c0,0,0.1,0.1,0.1,0.1c0.1-3.6-1.6-6.5-3.6-10.9c-4.3,12.9-11.2,23-14.7,34.7c-0.5,1.6-1.1,3.2-1.6,4.8
	C272.5,424.3,272,426.4,271.7,428.6z M281.5,352.3c3,6.5,5.9,13,9.3,20.4c1.7-4.5,2.9-8,4.2-11.5c0.2-2.1,0.3-4.2,0.5-6.3
	c4.3,0.4,3.4-3.6,4.3-5.7c4.2-9.8,4-10-7.1-9.7c-2.1-0.7-4.2-0.7-6.4,0c-1.8-0.1-3.6-0.4-5.4-0.2c-4.9,0.4-5.7,2.4-2,5.8
	C278.6,347.9,280.2,350,281.5,352.3z M567.8,371c0.6,0,1.1,0,1.7,0.1c2.8-9.5,8.6-17.7,11.9-27c0.9-2.4,2-5.1-2.3-5.2
	c-6.6-0.1-13.3,0-19.9,0c-3.1,0-3.4,1.3-2.3,4C560.6,352.2,564.2,361.7,567.8,371z"/>
<path class="st1" d="M351.4,341.6c0.6-2.7,2.7-2.7,4.9-2.7c28.2,0,56.4,0,84.6,0c1.6,0,3.2,0.7,4.8,1.1c0.2,0.3,0.3,0.6,0.3,0.9
	c-3.5,2.6-9.5,3.6-6.3,10.3c-8.8,15.9-13.7,33.3-20.3,50.2c-12.1-1.4-24.1-3-36.2-4.3c-7.8-0.8-15.6-1.3-23.4-2
	c-2.3-0.2-4.1,0.3-4.6,3c-0.8-7.7-1.7-15.4-2.5-23.1c-0.1-0.8-0.1-1.7-0.2-2.5c0.3-1.8,0-3.5-0.7-5.1
	C351.6,358.7,351.5,350.2,351.4,341.6z"/>
<path class="st4" d="M166.2,292.3c-13.1-0.2-26-1.5-39.1-1.2c-14.3,0.3-28.5,1.5-42.7,2.8c-11.2,1-12.3,2.8-12.2,14.8
	c-10.9-4.9-20.9-10.7-27.3-21.4c-1.8-3.1-1.8-4.9,1.5-6.4c17.2-7.4,30.6-20.3,45.3-31.3c17.8-13.3,36.4-13,53.5,0.9
	c5.2,4.2,9.9,8.7,13.5,14.3c2.3,6.4,7.2,11.6,7.5,18.8l0,0c-0.6-0.5-1.6-0.9-1.9-1.6c-5.8-11.6-15.9-16.9-27.8-20.2
	c-10.6-2.9-28.5,3.3-35.8,13.9c12.6-8,24.1-14,38-9.9C152.5,270,161.5,278.8,166.2,292.3z"/>
<path class="st1" d="M81,372.4c5.6,4,12.2,3.2,18.5,3.8c4.1,0.4,8.9-1,12.3,0.7c4,2,1,7.6,2.5,11.5c1.3,3.4,0.6,7.3,1.5,11
	c1.1,4.6,3.5,6.8,8.2,6.9c20.8,0.4,41.5,0.8,62.3,1.3c0.4,8.4-2.1,16.6-1.3,25c-5.1,3.7-11.2,2.4-16.7,3.2
	c-20.1,3-39.6,1.9-56.9-10.5C93.1,412.3,81.8,395.3,81,372.4z"/>
<path class="st5" d="M428.1,84.6c-0.3-10.9-0.5-21.9,5.5-31.5c8.6-13.9,21.7-21.5,37.4-24.5c18.7-3.5,36.4-0.1,52.6,10
	c1.4,0.9,2.5,2.2,3.7,3.2c-0.4,0.4-0.7,0.8-1.1,1.2c-1.3-0.7-2.6-1.4-3.9-2.2c-0.7-0.9-1.5-1.5-2.7-1.2c-3.3-4.4-9-3.1-13.4-7
	c0.1,2.2,0,2.8,0.2,3.4c2.4,7.2,8.4,4,13.2,4.6c0.6,5.9-0.1,10.3-7.9,8.9c-2.9-0.5-4.9,1.6-2.9,4.1c2.1,2.6,0.4,3.8-0.9,5
	c-1.3,1.3-3.1,1-4.6-0.1c-1.8-1.3-2.9-2.9-1.5-5.3c0.6-1.1,2.5-3.1,0.4-3.4c-4-0.7-8.4-0.9-12.3,0c-2.9,0.7-1.3,4.3-1.5,6.6
	c-0.2,2.5,0,4.6-3.7,3.2c-2.7-1-5.6-0.2-7.5,1.9c-2.6,2.8,0.4,7.1-0.9,9.2c-1.3,2.3-7.8,1-7.8,5.4c0.1,6.5-3.6,6-7.9,5.8
	c-3.1-0.2-6.2,0-9.4,0c-3.5,0-6.6,0.1-4.5,5.1c0.7,1.7,0.1,3.3-1.7,4.2c-1.9,1.1-3.7,0.1-5.3-0.6c-1.7-0.7-1.7-2.1-1.1-3.7
	c0.7-1.7,1.8-4.1-0.7-4.7c-2.4-0.5-5.9-2.3-7.1,2.1c-0.7,0-1.3,0-2-0.1C428.5,84.5,428.3,84.5,428.1,84.6z"/>
<path class="st4" d="M745,350c6.8-2,11.7-6.8,16.9-11.1c7-5.9,12.4-13.5,20-18.8c1.6-1.1,2.9-3.5,5.3-2.1c2.7,1.6,1.7,4.3,1.2,6.7
	c-2.5,12.6-7.8,24.3-12.5,36.2c-7.4,18.6-17.9,35.2-32.5,48.8c-15.7,14.7-34.4,23.3-56.1,25.6c-9.8,1-19.3,1.8-28.7-1.3
	c3.6-2.8,6-7.3,11.2-7.6c17.2-4.9,32.4-13.7,46.7-24c7,3,9.9,2.1,13.2-4.1c2.2-4.2,5.9-4.8,10.1-4.3c6.4,0.8,10.6-4.5,8.5-10.4
	c-1.3-3.6-2.1-8,1.8-10c3.7-1.8,3.9-4.3,3.9-7.4c5.3,0.2,11.3-6.2,12.7-14.4c-5,4.6-7.5,10.3-12.7,13.4c-0.3-2.3-0.6-4.5-3.5-5.1
	c-4.9-0.9-6.3-4.5-6.6-8.9c0.4-0.4,0.8-0.8,1.1-1.2L745,350z"/>
<path class="st6" d="M643.4,300.2c5.4,15.3,3.7,31.1,3.5,46.9c0,0,0,0.1,0,0.1c-0.2,0.5-0.3,1-0.5,1.5c-3.5,23.9-6.9,47.8-10.4,71.7
	c-0.3,1.8-0.8,3.2-2.7,3.7c-2.8,0-5.7-0.1-8.5-0.1c-0.3-0.2-0.7-0.3-1.1-0.3c-0.6-21.3,2-42.7-3-63.7c0.4-9.6-1.8-19-2.4-28.6
	c-1.7-4.1-4.2-8.6-2.1-12.5c2.7-5.1,1.7-10.1,2.2-15.1C627,303.1,635,300.3,643.4,300.2z"/>
<path class="st1" d="M620.9,360c5,21.1,2.4,42.5,3,63.7c-3.5,0.5-6.9,1-10.4,1.4c-9.1,0.9-17.9,0.4-25.1-6.3
	c-2.6-5.4-5.2-10.8-6.5-16.7c3.3-7,6.7-13.9,10-20.9c3.3-8.5,9.2-15.6,13.2-23.8C610.7,356.1,616.1,356.1,620.9,360z"/>
<path class="st3" d="M672.3,160.9c0.1-1.5,0.2-2.9,0.1-4.4c-0.2-4.7,0.1-8.8,6.8-8.2c6.8,0.6,8.2,1.7,8.2,8.7c0,11,0,22.1,0,33.1
	c0,2.7,0,5.2,3.8,4.7c4.7,0,9.5,0,14.2,0c1.9,0,4.4,0.6,4.5-2.6c0.4-10.4,0.8-20.8,1.3-31.2c0.1-1.9,0.2-3.7,0.2-5.6
	c0.2-5.3,3.2-7.2,8.2-6.9c4.9,0.3,8.3,1.4,8.1,7.6c-0.3,9.1,0.1,18.3,0.2,27.5c-0.7,14.2-1,10.9,10.4,11.3c0.6,0,1.2-0.1,1.8-0.2
	c3.1,0.5,3.7,2.6,3.8,5.2c-1.4,2.4-3.7,2.4-6,2.4c-32.1,0-64.2,0-96.4,0c-1,0-2.1,0-3.1-0.2c-2.1-0.5-3.3-1.9-3.2-4
	c0.1-2.3,1.8-3.1,3.9-3.1c4,0,7.9,0,11.9-0.1c4.7,0,9.5-0.3,14.2,0.1c5.3,0.5,6.5-1.9,5.8-6.5C671.5,179.2,671.9,170,672.3,160.9z
	 M715.1,165.4c0,2.5,0.1,5,0,7.5c-0.1,3.4,0.8,5.6,4.8,5.6c4,0,5.1-2.3,5.1-5.6c0.1-5-0.1-10,0.1-15c0.1-3.5-0.1-6-4.8-5.9
	c-4.2,0.1-5.5,2.1-5.3,5.9C715.2,160.4,715.1,162.9,715.1,165.4z M685,163.8c0-2.8-0.1-5.3,0-7.8c0.2-4.2-2.7-3.8-5.4-3.9
	c-3-0.1-4.7,0.6-4.6,4.1c0.2,5.8,0,11.6,0,17.4c0,2.6,0.7,4.5,3.7,4.8c2.9,0.3,4.5-0.9,5.4-3.8C685.3,170.9,684.8,167.2,685,163.8z
	 M723.9,183.5c-2,0-4.2-0.1-6.4,0c-1.5,0.1-2.2,0.9-1.7,2.4c0.6,2,1.1,4.1,3.9,3.7c1.3-0.2,4.1-0.5,3.3-1.2
	C719.4,185.4,725,186.1,723.9,183.5z M683.4,184.3c-2.2-1.1-4.2-0.9-6.1-0.7c-2.3,0.2-2.3,1.9-2.2,3.7c0.2,2.7,2.3,2.5,4.1,2.4
	c1.3-0.1,3.9-0.6,3.7-0.8C680.7,187.1,680.9,185.9,683.4,184.3z"/>
<path class="st7" d="M419.3,401.3c6.5-16.8,11.4-34.3,20.3-50.2c3.8-1.9,5.9-6.8,11.1-6.2c6.3,5,12.6,10,18.8,15
	c-2.9,0.8-5.8,1.8-8.9,0.9c-0.5-2.8-2.6-2.3-4.4-1.9c-2.2,0.5-1.8,2.5-1.8,4.1c0.2,7.3-2.1,13.8-6.4,19.7c-2.9,3.7-5.8,7.3-8.7,11
	c-1.8,2.3-4.3,4.3-5.1,7.3c-5.1,4.2-8.3,10.1-12.6,15c-2.5,2.8,0.5,5.5,0.1,8.2c-7.8,2-15.5,4.9-23.8,3c2.1-1.3,4.1-2.9,6.3-3.9
	c6.5-2.8,11-7.1,11.9-14.4C416.4,406.1,419.9,404.6,419.3,401.3z"/>
<path class="st1" d="M276.2,396.4c-7.7,2.2-15.3,4.6-22.5,8.1c-2.7,1.4-5.3,3.3-8.6,3.1c-1.3-9.4-2.5-18.7-3.8-28.1
	c-0.6-4-2.2-8.2,3.7-10.3c2.3-0.8,2.4-4.1,2.6-6.6c7.7,0.3,15.4,0.8,23.1,1c2.7,0.1,3.6,1.4,4.9,3.7c2.9,5.3,1.8,11,2.3,16.5
	C277.5,388,277.7,392.3,276.2,396.4z"/>
<path class="st3" d="M526.7,362.4c4.1,3.1,3.5,7.4,2.2,11.3c-1.3,3.8-5,3.8-8.5,3.8c-4.8,0-9.6,0.1-14.4,0c-3.3-0.1-4.3,1.1-4.3,4.4
	c0.1,13.7,0.1,27.5,0,41.2c0,3.5,1.1,4.8,4.7,4.6c4.4-0.2,8.7,0,13.1,0c1.1,0,2.2,0.7,2.2,1.8c0,1.2-1.2,1.6-2.3,1.6
	c-13.7,0-27.5,0-41.2-0.1c-1,0-2.3-0.3-1.9-1.7c0.3-1.1,1.3-1.6,2.4-1.6c4.2-0.1,8.4-0.3,12.5,0c4.4,0.3,6.1-1.3,5.6-5.6
	c-0.4-3.5,0.5-7.1-0.6-10.5c0.9-9.7,0.9-19.4,0-29.1c1.1-3.4,0.2-5.2-3.7-4.9c-3.5,0.2-7,0.1-10.6,0.2c-2.9-0.1-5.8-0.3-8.7-0.4
	c-3-2.1-2.7-5.4-3.4-8.4c0.6-2.5,1.2-4.9,1.8-7.4c4.1,2.2,8.5,1,12.7,0.9c7.5,0,15.1-0.1,22.6-0.1c2.9,0,5.9,0,8.8,0
	C519.5,362.4,523.1,362.4,526.7,362.4z"/>
<path class="st2" d="M650,423.8c-0.6-23,3.1-45.5,8.9-67.7c5,0.5,9.9-2.4,15-0.1c1,0.5,2.8-0.4,3-1.6c0.7-4.1,4.1-4.6,7.1-5.8
	c2.5,3.2-0.8,5.4-1.5,7.9c-6.4,23.3-18.2,44.3-28.7,65.8c-0.4,0.7-0.7,1.6-1.2,2.2C651.1,426.6,651,423.9,650,423.8z"/>
<path class="st2" d="M669.8,426.4c-5.2,0.3-7.6,4.9-11.2,7.6c-2.6,0.2-5.7,2.9-7.5-1.3c0.8-0.7,1.8-1.2,2.2-2.1
	c6.8-13.7,13.5-27.5,20.4-41.2c3-6,3.4-13.2,8.5-18.2c0.1,4.8,0.6,8.6,6.7,10c3.8,0.9,7.2,4.4,4.5,9.5c-0.9,1.8-0.3,3.2,0.3,4.7
	c0.4,3.1-1.8,4.9-3.4,7c-4.6,6-9.4,11.9-14.1,17.9C673.7,421.8,671.6,423.9,669.8,426.4z"/>
<path class="st3" d="M693.8,395.3c-0.6-1.5-1.2-2.9-0.3-4.7c2.6-5-0.8-8.6-4.5-9.5c-6.1-1.4-6.6-5.2-6.7-10c0.1-0.8,0.1-1.6,0.2-2.4
	c1.5-0.7,3.1-1.3,4.4-2.3c4.2-3.1,4.3-7.8,0.5-10.2c0.3-2.2-0.6-4.5,1.3-6.4c2.7,0.1,2.7-1.7,2.7-3.6c0,0,0,0,0,0
	c2.2-0.4,4.2-0.9,6.5-0.3c3.8,0.9,8.3-0.3,9.3-4c1.5-5.5,4.9-5.9,9.2-5.7c2.7-0.5,4.7,0.6,6,2.9c2.1,4.6,5.8,5.2,10,3.6
	c6.2-2.4,11.4,0.6,12.6,7.4c0,0,0.1,0,0.1,0c-0.4,0.4-0.8,0.8-1.1,1.2c0.3,4.4,1.7,8,6.6,8.9c2.9,0.5,3.2,2.8,3.5,5.1
	c-0.1,0.4-0.1,0.7,0,1.1c-0.1,3.1-0.3,5.6-3.9,7.4c-4,2-3.1,6.4-1.8,10c2.1,5.9-2.1,11.2-8.5,10.4c-4.2-0.5-7.9,0.1-10.1,4.3
	c-3.3,6.3-6.2,7.2-13.2,4.1c-0.1-0.3-0.2-0.7-0.3-1c-2.8-5.4-7.8-4.7-11.8-3.1c-3.2,1.3-4.9,1.1-6.9-1.2
	C696.6,396,695.4,395.1,693.8,395.3z M726.5,393.9C726.5,393.9,726.4,393.9,726.5,393.9c3.7-1.7,7.4-3.5,11.2-5.2
	c2.1,2.1,4.5,2.2,6.4,0.2c2.3-2.4,0.3-4.4-1.3-6.3c0-0.9,0-1.7,0.1-2.6c2.5-3.3,1.6-8.5,6.6-10.6c1.6-0.7,1.6-4.7-0.5-5.2
	c-5.3-1.2-6-6.6-9.5-9.2c0.3-1.4,0.5-2.8,0.9-4.1c1-3.8-1.8-7.2-4.9-5.4c-4.8,2.8-9.1,0.4-13.5,0.4c-2.5-1.9-2.3-7.4-7.5-5.5
	c-0.8,0.2-2.1,0.2-2.2,0.5c-2.4,7.3-7.5,9.8-15,9.3c-2.3-0.2-4.8,1.5-3.6,4.9c2.5,7.7,1.4,10.8-5,15.2c-2.3,1.5-3.2,5-0.9,5.3
	c6.3,0.8,7.6,6.5,11.5,9.4c-0.4,1.6-1,3.2-1.1,4.8c-0.3,3.3,1.4,6,4.6,4.5c6.2-2.9,11.1,0.4,16.4,2c0,2.5,0.8,4,3.7,3.6
	C726.2,399.4,726.1,396.5,726.5,393.9z"/>
<path class="st1" d="M191.3,412.8c2.7-5.1,7-4.9,12-4.1c3.6,0.6,7.5,0,11.2,0.2c4.6,0.3,8.1-1.2,10.4-5.1c0.5,0.3,1.3,1.1,1.4,0.9
	c3.5-2.5,6.2-1.8,7.7,2.2c1.6,4.2,2.7,8.8-2.2,11.7c-13.4,8.1-28,12.3-43.4,13.9C189.4,425.9,190.3,419.3,191.3,412.8z"/>
<path class="st1" d="M473.3,377.3c2.9,0.1,5.8,0.3,8.7,0.4c3.2,6.2,9.3,3.9,14.2,4.7c0.9,9.7,0.9,19.4,0,29.1
	c-7.4,0.6-14.3-1.3-20.7-5c0,0,0,0,0,0c0-1.3-0.2-2.5-1.9-2.5c-1.3,0-1.5,1.1-1.7,2.1c-0.6,0.2-1.3,0.4-1.9,0.5
	c-5.5-4-4.4-9.8-4.1-15.4c1.6-0.1,3.1-0.8,3.2-2.4C469.5,384.6,472.1,381.2,473.3,377.3z"/>
<path class="st8" d="M352.6,374.9c0.8,7.7,1.7,15.4,2.5,23.1c-0.5,5.4,2.8,10.5,1.3,15.9c-3.1,1-6.2,2-7.3,5.6
	c0.1,1.2,0.2,2.3-1,3.1c0-1.2,0.4-2.7-0.1-3.4c-0.8-1-1.8,0.4-2.5,0.9c-4.2,3.3-8.4,6.6-12.5,10.1c-2.9,2.5-5.7,3.1-8.9,0.9
	c-0.1-1.8-0.2-3.6-0.3-5.4c7-3,11-10,17.9-12.9c3.5-1.5,3.6-2.3,2.8-5.7c-3.1-12.7-6.9-25.4-8-38.5c4.3,0.3,6.8,3.8,10,5.9
	C348.7,376,350.4,376.8,352.6,374.9z"/>
<path class="st9" d="M465.9,391.3c-0.2,5.6-1.4,11.4,4.1,15.4c-1.1,4.8-2,9.6-3.2,14.4c-1.3,5.6-4.9,7.1-10.2,5.3
	c2.3-8.1,6.4-16.2-0.7-24c-0.4-0.8-0.7-1.6-1.1-2.5c-2.3-5.7-4.5-11.4-6.8-17.2c4.3-5.9,6.6-12.3,6.4-19.7c0-1.6-0.5-3.6,1.8-4.1
	c1.8-0.4,3.9-0.8,4.4,1.9c-1.8,4.2,2,5.6,3.9,7.9c0.1,0.9,0.2,1.7,0.3,2.6c0.3,0.4,0.5,0.9,0.8,1.3
	C465.7,378.9,465.8,385.1,465.9,391.3z"/>
<path class="st4" d="M688.7,349.9c-1.9,1.8-1,4.2-1.3,6.4c-3.6,3.4-4,8-4.9,12.5c-0.1,0.8-0.1,1.6-0.2,2.4c-5.1,5-5.4,12.2-8.5,18.2
	c-6.9,13.7-13.6,27.5-20.4,41.2c-0.4,0.9-1.5,1.4-2.2,2.1c-2.2-2.7-1-5.8-1.1-8.8c0.9,0.1,1.1,2.8,2.6,0.8c0.5-0.6,0.8-1.5,1.2-2.2
	c10.6-21.5,22.3-42.5,28.7-65.8c0.7-2.6,4-4.8,1.5-7.9c0.4-1.6,0.8-3.3,1.3-4.9c3.9-2.3,4.6-6.8,5.8-10.3
	c5.5-16.1,9.6-32.6,12.8-49.3c0.5-2.6,0.5-5.5,3.6-8.4c0,3.2,0.4,5.3-0.1,7.3c-1.9,8.9-3.9,17.8-6.2,26.6
	c-3.1,12.2-6.5,24.4-9.8,36.6c0,0,0,0,0,0C688.8,346.2,688.8,348.1,688.7,349.9z"/>
<path class="st3" d="M247.6,362.6c-0.2,2.5-0.4,5.8-2.6,6.6c-5.9,2.1-4.2,6.2-3.7,10.3c1.3,9.4,2.5,18.7,3.8,28.1
	c0.4,7.1,0.8,14.1,1.2,21.2c0.1,1.3,0.6,3.4-1.5,3.4c-1.7,0-2-1.7-2.2-3.2c-3.3-17.9-6.7-35.7-9.9-53.6c-0.5-2.5-0.6-4.6-3.9-4
	c0.2-3.2,0.4-6.4,0.6-9.6C235.5,362,241.6,362.3,247.6,362.6z"/>
<path class="st2" d="M710,192.1c-0.1,3.2-2.6,2.6-4.5,2.6c-4.7,0.1-9.5,0-14.2,0c0-9.7,0-19.4-0.1-29.1c0-1.6-0.3-3.1-1.1-4.7
	c-2.5-5-2.3-9.8,2.4-13.7c0.6,0,1.3,0,1.9-0.1c14-3,16.7-0.5,15.4,13.9C708.4,171.4,707.9,181.7,710,192.1z M706.3,164.5
	C706.3,164.5,706.3,164.5,706.3,164.5c0-2.9-0.2-5.8,0.1-8.7c0.5-5.2-2.7-5.1-6.3-5c-3.4,0.1-6.8-0.5-6.4,4.8
	c0.3,5.6,0.2,11.2,0.1,16.8c0,2.8,0.4,4.3,3.9,5c8.4,1.5,8.7,1.5,8.7-7.3C706.3,168.3,706.3,166.4,706.3,164.5z M700.3,187.2
	c2.3,0,4.8,0.3,4.7-3.2c-0.1-4.1-3.3-2.8-5.5-3c-2.1-0.1-4.3-0.3-4.4,2.9C695,187.9,697.9,187.1,700.3,187.2z"/>
<path class="st3" d="M685.3,343.8c-0.4,1.6-0.9,3.3-1.3,4.9c-2.9,1.2-6.4,1.7-7.1,5.8c-0.2,1.2-1.9,2.1-3,1.6
	c-5.1-2.4-10,0.5-15,0.1c1.2-6-4.9-5.9-7.4-8.9c-0.5-3.5,2.3-7-0.2-10.7c-0.7-1.1,0.2-3.1,1.4-3.8c2.8-1.4,4.7-3.2,6-6.3
	c0.8-1.9,3.7-2.2,6.1-1c2.2,1.1,4.4,1.3,5.5-1.7c7.6-0.5,8.3,8.1,13.7,10.7c1.3,0.6,0.6,2.5-0.4,3.8
	C681.7,340.8,682.7,342.6,685.3,343.8z M675,332.5c-0.4-0.4-0.8-0.8-1.2-1.3c-0.8-7-5.5-0.5-7.8-2.3c-4.2-2.6-5,0.6-6.1,3.5
	c-1.2,0.5-1.4,1.4-1.1,2.6c-1.6,0.1-5.3-0.1-4.1,1.4c2.6,3.5-3.8,10,4,11.1c0.2,0.4,0.3,1.2,0.9,0.4c-0.3-0.2-0.5-0.3-0.8-0.5
	c-0.9-4.1-2.2-8.3-0.1-12.5c0.9-0.5,1.4-1.3,1.4-2.4c2-0.5,3.9-1.1,5.9-1.6c2.6,0.1,5.2,0.2,7.7,0.2
	C674.2,331.6,674.6,332.1,675,332.5c0.5,1,1.5,1.3,2.5,1.2c-0.4,1.9,0.9,4.1-1.4,6c-2.2-5.2-6.2-6.7-11.3-5.8
	c-5.8,4.5-6.2,6.2-2.4,10.8c2.4,4.4,6,2.8,9.5,1.8c1.6-0.5,3.7-3,4.4,1c-0.4,0.4-0.8,0.8-1.3,1.3c-3.4,1.1-6.9,1.5-10.4,1.3
	c-1.4-0.1-3.3-0.1-3,2.1c0.3,1.9,1.8,0.8,2.9,0.7c2.1-0.2,4.4-0.8,6.2-0.1c4.5,1.6,4.4-1,4.3-4c0.4-0.4,0.8-0.8,1.3-1.3
	c1.9-0.2,4.8-1.1,4.4-2.4c-1.2-3.7,0.6-7.5-0.8-11c-0.1-0.4-1.5-0.2-2.3-0.3C677,332.7,676,332.5,675,332.5z"/>
<path class="st1" d="M166.2,292.3c-4.7-13.5-13.6-22.3-27.5-26.4c-13.9-4.1-25.4,1.9-38,9.9c7.3-10.7,25.2-16.9,35.8-13.9
	c11.8,3.3,22,8.6,27.8,20.2c0.3,0.7,1.2,1,1.9,1.6c0.2,0.5,0.3,1.1,0.5,1.6c0.2-0.1,0.3-0.2,0.5-0.3c-0.3-0.4-0.6-0.9-0.9-1.3
	c-0.3-7.2-5.2-12.5-7.5-18.8c3.4,0.4,5,3.3,7,5.4c1,1.1,1.5,2.7,3.1,0.7c4,1.9,2.4,6.1,3.5,9.2c0.5,1.5-0.2,3.5,0.3,4.9
	C175.1,291.8,172.1,293.4,166.2,292.3z"/>
<path class="st10" d="M526.7,362.4c-3.6,0-7.2-0.1-10.8-0.1c0.9-0.4,1.9-1.1,2.8-1c5.4,0.8,6-2.1,6-6.6c-0.1-15,0-15-15.2-14.8
	c-0.8,0-1.7,0.1-2.5,0.1c-7.5,0-15.1,0-22.6,0c-12.5,0.3-25.1-1.3-37.6,0.7c-0.3,0-0.6,0-0.9,0c0-0.3-0.1-0.6-0.3-0.9
	c1.9-1.9,4.4-1,6.5-1c23.7,0,47.5,0.1,71.2,0c3.6,0,6.9,0.4,9.9,2.3c0.2,0.6,0.4,1.2,0.6,1.8C538.6,354.5,537.9,356.3,526.7,362.4z"
	/>
<path class="st5" d="M535.5,47.1c19.1,22.9,14.1,49.5-0.5,70.8c-4.3,6.2-10.2,11.3-15.4,17c-0.5-0.5-1-1-1.4-1.5
	c0.4-0.9,0.8-1.8,1.2-2.7c0.9-1.1,1.8-2.2,2.7-3.3c3.7-2.7,6.6-6.1,8.6-10.2c4.4-2.8,3.6-9.4,8.6-11.8c0.1-0.8,0.3-1.5,0.4-2.3
	c1.9-3.5,3.5-7,3.4-11c1.4-2.9,1.6-6,1.4-9.1c0.7-3,0.5-6-0.2-9c-1.1-4-2.2-7.9-3.3-11.9c-0.6-4.2-3.7-7.1-5.6-10.6
	c-1.4-2.1-3.6-3.2-5.8-4.3c-1.2-1.3-2.4-2.7-3.6-4c0.4-0.4,0.7-0.8,1.1-1.2C530,43.6,532.8,45.4,535.5,47.1z"/>
<path class="st0" d="M556,403.9c-2.4,5.1-4.9,10.2-7.3,15.3c-8-0.9-16-1.8-24-2.8c-5.3-0.7-10.6-1.7-15.9-2.4
	c-2-0.3-3.1-1.1-2.8-3.2c0.3-2.2,1.7-3.3,4-2.8c3.2,0.8,6.5,1.5,9,3.8c2.6,2.4,6,3.1,8.7,1.9c7.9-3.4,17.2-3,24.2-8.8
	C553.1,403.9,554.5,403.9,556,403.9z"/>
<path class="st6" d="M348.1,422.7c1.1-0.8,1-2,1-3.1c3.1-0.6,6.7,2.3,9.2-1.5c7.7,4.9,17.1,6.6,24.6,12.4
	c-10.9,1.2-21.8,1.5-32.5-0.5C346.2,429.2,348.1,425.4,348.1,422.7z"/>
<path class="st9" d="M655.1,66.1c1-0.7,2.1-1.3,3.1-2.1c8.5-6.3,8.8-6.3,17.2-0.2c1.5,1.1,3.1,2.1,4.6,3.1c0,0,0.1,0.1,0.1,0.1
	c0.4,0.4,0.8,0.8,1.2,1.2c0,0,0.1,0.1,0.1,0.1c0.4,0.4,0.7,0.7,1.1,1.1c2.1,2,4.3,4.1,6.4,6.1c-2.3,3.3-3.4-0.8-5.1-0.9
	c-2.4-2.2-4.7-4.6-7.3-6.5c-2.8-2-5.1-1.7-5.2,2.5c-0.1,2.9-0.5,5.7-2.9,7.8C662.6,75.7,659.4,70.3,655.1,66.1z"/>
<path class="st10" d="M271.7,428.6c0.3-2.2,0.8-4.4,2.3-6.1c2.5,0,5,1.3,7.3-0.5c13.8-2.1,16-1.5,26,7.9
	C294.7,429.3,283.2,431.7,271.7,428.6z"/>
<path class="st0" d="M691.3,84.9c-0.4,6.2,1.5,12.7-2.5,18.4c-0.3,0-0.6-0.1-0.9-0.1c-3.8-6.3-10.1-8.1-16.6-9.8
	c0.8-3.3,4.1-6.2,1.3-10c3.3,0.3,6.7,0.5,10,0.8C685.5,84.5,688.4,84.7,691.3,84.9z"/>
<path class="st10" d="M571,390.1c2.2,6.4,7.4,11.6,7.6,18.7c-3.7,2-3.2,7.2-7,9.1c-2.6-1-5.2-2-7.7-2.9
	C564,406.1,568.2,398.3,571,390.1z"/>
<path class="st10" d="M275.6,417.7c3.6-11.7,10.4-21.8,14.7-34.7c2,4.5,3.8,7.3,3.6,10.9c-2.1-2-3.1-2-3.8,1.3
	c-1.4,6.6-3.5,13.1-4.7,19.7c-0.6,2.9-2,3.8-4.4,4.1C279.2,418.6,277.4,418.1,275.6,417.7z"/>
<path class="st6" d="M547.2,435c1.3-3.7,2.6-7.4,3.8-11.2c3.7-0.8,7.4-1.5,11.1-2.3c1.6,3.3,3.9,4.5,7.3,2.4c0.9,9.4,0.9,9.6-8,10.7
	C556.7,435.3,551.9,435,547.2,435z"/>
<path class="st6" d="M456.7,426.4c5.3,1.8,8.9,0.4,10.2-5.3c1.1-4.8,2.1-9.6,3.2-14.4c0.6-0.2,1.3-0.4,1.9-0.6
	c1.2,0.1,2.4,0.3,3.6,0.4c0,0,0,0,0,0c0.7,8.7-4.2,15.7-7.8,23c-1.3,2.6-4.4,1.7-6.8,2c-3.9,0.5-7.8,0-12.3-0.4
	C450.9,428,453.4,426.6,456.7,426.4z"/>
<path class="st6" d="M397.9,427.3c8.3,1.9,16-1,23.8-3c1.6,1.4,3.1,3,2.1,5.3c-0.9,2.1-3.1,1.7-4.9,1.9c-5.2,0.6-10.3,1.5-15.4,1.9
	c-4.9,0.3-9.8,0.1-15.3,0.1C390.8,429.9,393.6,427.4,397.9,427.3z"/>
<path class="st11" d="M687.9,103.2c0.3,0,0.6,0.1,0.9,0.1c5.1,4.3,6,10.3,7.2,16.7c-2.7,0-4.6-2.5-7.1-1.7
	c-4.2-1.3-8.4-2.5-12.6-3.8C678.7,109.2,682.4,105.3,687.9,103.2z"/>
<path class="st6" d="M632.2,432.3c0.5,0.9,1.2,1.7,1.6,2.7c3.7,7.9,2.9,9.1-5.8,9.1c-0.8,0-1.7,0.1-2.5,0c-2.6-0.6-6.8,1.8-7.7-1.5
	c-1-3.6,1.6-6.9,4.9-9.1c0.8-0.6,1.5-1.3,2.3-2C627.4,431.3,629.6,433.2,632.2,432.3z"/>
<path class="st0" d="M454.8,400c0.4,0.8,0.7,1.6,1.1,2.5c-2,3.1-4.6,3.7-8.3,2.8c-4.6-1.1-9.9,0.2-13.5-4.1c0.8-3.1,3.3-5,5.1-7.3
	c0.6,1.1,1.5,2.6,2.6,2.1c4.2-1.9,6.9,0.2,9.5,3C452.3,399.9,453.6,400.1,454.8,400z"/>
<path class="st3" d="M191.3,412.8c-1,6.6-1.9,13.1-2.9,19.7c-1.2,0-2.3,0.1-3.5,0.1c-0.8-8.4,1.6-16.6,1.3-25c0-0.4,0.1-0.7,0.1-1.1
	c1.6,0,3.2,0,4.8,0C191.1,408.6,191.2,410.7,191.3,412.8z"/>
<path class="st11" d="M691.3,84.9c-2.9-0.2-5.8-0.4-8.7-0.6c0.5-3.2-1.3-6.7,1.2-9.7c1.7,0,2.8,4.2,5.1,0.9c4.2,1.5,7.1,4.4,10.2,8
	C696.5,85.5,693.7,84.2,691.3,84.9z"/>
<path class="st8" d="M276.2,396.4c1.5-4.1,1.3-8.4,1.7-12.6c2.2-1.7,0-4.7,2-6.8c2,2.7,5.9,4,5.4,8.2c-1.1,5.4-4.5,9.6-7.7,13.8
	C276.2,398.6,276.5,397.3,276.2,396.4z"/>
<path class="st0" d="M740.2,194.5c-0.6,0.1-1.2,0.2-1.8,0.2c-11.5-0.3-11.1,2.9-10.4-11.3C732.6,186.5,737.9,188.9,740.2,194.5z"/>
<path class="st12" d="M323.8,425.9c0.1,1.8,0.2,3.6,0.3,5.4c-2.9-0.1-5.7-0.2-8.6-0.2c0,0-0.1,0.3-0.1,0.3
	c-0.5-4.4,1.4-8.3,2.5-12.4c0.5,0.1,1,0.1,1.5,0.2C320.9,421.4,321.6,424.1,323.8,425.9z"/>
<path class="st9" d="M569.4,424c-3.4,2-5.7,0.9-7.3-2.4c0.6-2.2,1.2-4.4,1.8-6.5c2.6,1,5.2,2,7.7,2.9C570.9,420,570.1,422,569.4,424
	z"/>
<path class="st9" d="M632.2,432.3c-2.6,0.9-4.8-1-7.3-0.9c0-2.4,0-4.9,0.1-7.3c2.8,0,5.7,0.1,8.5,0.1
	C633,426.9,632.6,429.6,632.2,432.3z"/>
<path class="st4" d="M710,192.1c-2.1-10.3-1.6-20.7-0.2-31.1c0.5,0,1-0.1,1.5-0.1C710.8,171.3,710.4,181.7,710,192.1z"/>
<path class="st6" d="M545.4,426.9c0.5,2.8-2,5.2-1.2,8.1c-2.2,0.1-4.5,0.6-6.6-1.5C539.1,430.1,542.7,429,545.4,426.9z"/>
<path class="st9" d="M358.3,418.1c-2.5,3.8-6.2,0.9-9.2,1.5c1.1-3.6,4.2-4.6,7.3-5.6C356.4,415.6,356.7,417.2,358.3,418.1z"/>
<path class="st9" d="M275.6,417.7c1.8,0.4,3.6,0.9,5.4,1.3c0.1,1,0.2,2,0.3,3c-2.3,1.8-4.9,0.6-7.3,0.5
	C274.5,420.9,275,419.3,275.6,417.7z"/>
<path class="st10" d="M293.9,393.8c0.4,0.4,0.9,0.8,1.3,1.1C294.7,394.6,294.3,394.2,293.9,393.8z"/>
<path class="st0" d="M681.3,68.2c-0.4-0.4-0.8-0.8-1.2-1.2C680.5,67.4,680.9,67.8,681.3,68.2z"/>
<path class="st0" d="M682.5,69.3c-0.4-0.4-0.7-0.7-1.1-1.1C681.7,68.6,682.1,69,682.5,69.3z"/>
<path class="st0" d="M646.5,348.7c0.2-0.5,0.3-1,0.5-1.5C646.8,347.7,646.7,348.2,646.5,348.7z"/>
<path class="st13" d="M643.4,300.2c-8.4,0-16.5,2.8-24.8,3.5c-5.4,0.8-10.7,1.6-16.1,2.4c1.4-7,2.9-14,4.3-21c0.2-0.5,0.3-1,0.5-1.5
	c0.3-0.3,0.6-0.5,0.8-0.8c0.1-0.1-0.1-0.3-0.1-0.5c-0.2,0.5-0.4,0.9-0.6,1.4c-3.4,0-6.8,0.1-10.2,0.1c-3.7-1.1-4.5,0.8-4.8,4.1
	c-0.6,6.5-1.6,13-2.4,19.4c-3.7-6.3-4.2-13.6-6.3-20.5c-1.9-6.3-3.5-12.7-5.1-19.2c-0.4-1.5-0.5-3-2.3-3.2c-2.5-0.2-1.4,2-1.7,3.1
	c-1.3,4.6-2.4,9.2-3.5,13.7c-4.5-4.5-8.6-9.4-12-14.8c3.1-15.3,6.3-30.5,9.2-45.8c0.9-4.8,2.9-8.1,7.6-9.6c0.3,1.2,1.4,2,1.8,3
	c2.5,5.8,6.4,3.2,10.2,2c4.2-1.3,5.3-3.9,3.4-7.9c6.4-0.2,12.4,0.9,18.1,3.9c6.8,3.6,11.2,8.6,10.6,16.8c-0.1,1.7-0.1,3.3,0.9,4.8
	c11.9,18.2,17.1,38.9,22.7,59.5C644.1,295.4,646.1,297.9,643.4,300.2z M609.6,277.3c-0.1-0.4-0.2-0.8-0.3-1.2
	c-0.1,0.4-0.4,0.7-0.4,1.1c0,0.4,0.3,0.8,0.5,1.3C609.4,278.1,609.5,277.7,609.6,277.3z"/>
<path class="st1" d="M401.8,327.5c-1.6,2-3.8,1.2-5.8,1.2c-12.6,0.1-25.3-0.3-37.9,0.2c-5.3,0.2-7.1-1.6-6.6-6.5
	c5.4-11.7,10.8-23.4,16.1-35.1c1-2.2,2.4-4.5,1.5-7.1c0-1.3,0.1-2.5,0.1-3.8c4.8-3.8,7.5-9,10.7-14c6.4-10.2,10.1-22,18.1-31.3
	c4.4,0.3,5.4,4.4,7.4,7c9.2,12,20.8,21.8,29.5,34.2c1.1,1.6,2.2,3,2,5c-10,0.1-20,0.3-30.1,0.4c-5.9,0-11.7,0-17.6,0
	c-7.1-0.1-8.4,1.4-5.9,7.7c1.1,2.8,2.4,5.6,3.6,8.4C390.3,305.6,396.6,316.3,401.8,327.5z"/>
<path class="st13" d="M289.1,243.7c4.3-19.1,20.8-32.1,43.6-34.4c7.4,4.6,14,2.6,20.3-2.2c8.3-0.1,16.7,0.2,24.9-1.4
	c3.2-0.7,6.4-1.3,9.6-2c1.3,7.5,4.4,14.1,9.7,19.6c-1.4,0.8-3.4,0.5-4.3,2.5c1.4,0,2.6,0,3.8,0c0.5,0.5,0.9,0.9,1.4,1.4
	c-14-1.4-28,0.2-42,1.4c-2.8,0.2-6.1,0.2-7.1,3.7c-1.4,5.4-3.8,10.5-3.9,16.2c-4.6,0.2-5.9,3.3-6.3,7.2c-7.5,3.3-15.3,5-23.6,4.3
	c-1.5-1-3.1-2.1-4.6-3.1c0.2-4.2,0.5-8.3,0.8-12.9c-2.8,0.9-2.7,3.2-3.8,4.5C301.6,246.5,295.4,244.6,289.1,243.7z"/>
<path class="st2" d="M685.3,343.8c-2.5-1.2-3.5-2.9-1.7-5.4c1-1.3,1.8-3.2,0.4-3.8c-5.4-2.6-6-11.1-13.7-10.7
	c6-16.9,14.9-32.5,22.7-48.6c5.7-11.8,12-23.4,17-35.6c1.7-4.1,4.1-7.8,7.1-13.2c2.6,26.2,4,50.5,2.2,75c-0.8,11.6-3.1,23.1-3,34.7
	c-4.4-0.2-7.7,0.3-9.2,5.7c-1,3.7-5.5,4.9-9.3,4c-2.4-0.5-4.4-0.1-6.5,0.3c3.3-12.2,6.7-24.4,9.8-36.6c2.3-8.8,4.3-17.7,6.2-26.6
	c0.4-1.9,0.1-4.1,0.1-7.3c-3.1,2.9-3.1,5.8-3.6,8.4c-3.2,16.7-7.3,33.2-12.8,49.3C689.9,337,689.2,341.5,685.3,343.8z"/>
<path class="st6" d="M672.6,83.4c2.8,3.8-0.5,6.7-1.3,10c-2.2,3.3-6.1,5.1-7.8,8.7c-3,1.5-4.7,6.1-9.3,3.9c-1.7-0.8-3.4-1.8-5.4-1.7
	c-5.5-2.9-11-5.9-16.5-8.8c-11.2-7.2-22.8-14-32.2-23.8c-2.1-2.2-4.4-4.2-5.6-7.1c4.9-9.3,12.3-16.6,19.5-24.1
	c8.4,2.2,16,5.5,22.5,11.7c5.5,5.2,12.9,8.4,18.5,13.7c4.4,4.2,7.6,9.6,13.2,12.3C669.3,80.5,670.7,82.1,672.6,83.4z M647.4,73.3
	c-0.8-1.5-2.2-1.2-3.5-1.3c-5.3-2.2-8.1,0.7-10.1,5.1c-0.5,3.9-1.2,8.1,3.8,9.8c4.4,1.4,8.5,1.1,11.1-3.5c1.9-2.9,1.8-5.9,0-8.8
	C648.2,74.1,647.8,73.7,647.4,73.3z M630,55.6c-5.1-4.1-10.2-3.7-15.2,0.1c-6.5,4.9-7.8,12.2-3.1,17.6c4.3,5.1,13.3,5.4,18.4,0.6
	C636,68.3,635.9,61.4,630,55.6z"/>
<path class="st11" d="M468.1,301.4c-0.7-2.2-1.3-4.4-2-6.6c14.4-5.7,29-10.9,42.4-18.8c6.7,3,9.8,9.4,14,14.8
	c2.5,4.2,4.9,8.3,7.4,12.5c-3,4.4-7.9,5.1-12.5,6.5c-0.3-0.2-0.7-0.3-1-0.3c-0.4-0.5-0.4-2-1.4-1.3c-0.8,0.5,0,1.4,0.6,2
	c3.5,8.2,3.4,8.1-5.8,10c-8.2,1.7-16.4,1.6-24.6-0.3C479.5,313.7,473.8,307.6,468.1,301.4z M513.4,305.9c0.1-0.1,0.3-0.2,0.4-0.3
	c-0.1-0.1-0.3-0.4-0.3-0.3c-0.2,0.1-0.3,0.3-0.5,0.4C513.1,305.8,513.3,305.9,513.4,305.9z"/>
<path class="st6" d="M345.2,248.5c0.2-5.7,2.5-10.8,3.9-16.2c0.9-3.5,4.3-3.5,7.1-3.7c14-1.1,27.9-2.8,42-1.4
	c1.5,1.3-0.8,2.5-0.2,3.8c-8.1,9.2-11.8,21.1-18.1,31.3c-3.1,5-5.9,10.3-10.7,14c-4.6,0-9.2-0.1-13.8-0.1c-2,0-4.1-0.1-6.1-0.1
	c-12.7-0.2-13.6,2.5-8.9-12.4c0,0,0-0.3,0-0.3c4.2,1.6,5.8-4,9.4-3.5c6.1,1,4.8-4.8,6.2-7.2c1.1-2.1-3-2.5-5.3-2.9
	C348.8,249.4,347,248.9,345.2,248.5z M371.9,244.5c2.3-0.1,4.3-0.9,4.6-3.4c0.3-2.5-1.3-3.7-3.8-3.8c-2.4-0.1-4.3,0.6-4.5,3.2
	C367.8,243,369.6,244.1,371.9,244.5z M381.5,230.2c-9.3,0.1-18.9-2.2-27.1,3.6C362.8,228.9,372.6,232.1,381.5,230.2z"/>
<path class="st13" d="M505.7,163.2c6.9,0.9,3.1,6.6,4.3,10.1c0.8,2.5-0.5,5.6,0.4,8c0.9,2.6-0.5,2.9-2,3.5c-3.3,1.4-5.4,3.1-5.2,7.3
	c0.2,3.3-2.7,5.5-5.2,7.4c-5.9,4.3-18.7,4.1-24.3-0.3c-1.2-1-2.6-2.7-2.6-4c0.1-3.9-1.6-5.7-5-7.2c-3.8-1.6,3-5.6-1.1-7.7
	c3.3-2.5,0.9-6.2,0.4-8.1c-1.1-3.9,1-4.7,3-6.3c1,0.3,2,0.4,2.9,0.9C485,174,494.1,173.1,505.7,163.2z"/>
<path class="st6" d="M406.8,277.6c10-0.1,20-0.3,30.1-0.4c2,0.5,3.9,1.1,5.9,1.6c1.8,2.9,3.6,5.7,5.4,8.6c0.7,3.2,2.2,6,4,8.8
	c1.6,3.7,3.2,7.4,4.9,11.1c0,0,0.1,0.1,0.1,0.1c2.2,5.1,4,10.3,8.4,14.1c0.1,0.7,0.2,1.4,0.3,2.1c0.8,2.1,1.4,4.1-2.1,4
	c-2.2-0.1-4.5,0-6.7,0c-0.1-2.6-2.1-3.9-3.7-5.5c-11.9-11.9-24.8-22.5-37.4-33.7C412.3,285.1,408.4,282.3,406.8,277.6z"/>
<path class="st11" d="M505.7,163.2c-11.6,9.9-20.6,10.8-34.5,3.5c-0.9-0.5-1.9-0.6-2.9-0.9c-7.5-7.4-10.9-16.8-14.3-26.5
	c-2.6-7.5-8.6-13.4-13.4-19.8c-2.1-2.8-4.9-5.2-2.6-9.2c5.2,4.3,7,11.1,11.6,15.8c1,1.5,2,2.9,3,4.4c4.4,5,5.2,11.7,8.1,17.4
	c0.4,1,0.9,2,1.3,3c4,5.7,6.8,12.5,14,15.3c1.1,0.4,2.2,0.8,3.3,1.2c8.6,2.2,16.7,2.2,23-5.5c0.9-1,2.8-2.2,0.5-3.2
	c-2.5-1.1-2.5-2.9-1.7-4.5c3-5.8-0.2-6.5-4.8-6.1c-3.8,0.3-4.4-1.5-4.5-4.8c0-3.3,0.9-4.2,4.2-3.7c4.6,0.6,6.2-2.4,6.3-6.5
	c0-3.9-1-7.4-5.7-7.1c-3.9,0.2-5-0.8-5-4.7c0-4.1,2.2-4.3,5.2-4.1c3.7,0.3,6.2-0.4,5.3-5.1c-0.5-2.7,1.6-3.7,3.9-3.7
	c3,0,2.5,2.2,2.1,4c-0.7,3.3,0.8,4.4,3.9,4.7c7.9,0.8,7.9,0.9,6.5,9.5c-3.2-1.7-6.4-1.8-9.3,0.4c-3.7,2.8-3.5,6.7-1.2,9.9
	c1.2,1.7,3.9,5.2,6.6,0.8c1.2-1.5,2.4-2.9,3.6-4.4c0.5,0.5,1,1,1.4,1.5c-3.1,5.6-6,11.2-7.5,17.5C511.2,156.7,507,159.1,505.7,163.2
	z"/>
<path class="st14" d="M508.5,276c-13.4,7.9-28,13.2-42.4,18.8c-1.4-12.1,5-21.7,10.6-31.5c5.1,0.6,10.2,0.9,15.1-1.2
	C498.5,265.5,503.7,270.6,508.5,276z"/>
<path class="st9" d="M559,266.4c3.5,5.4,7.5,10.3,12,14.8c-7.3,7.9-17.2,6.7-22.1-2.6c-3.4-6.4-7-12.7-10.5-19
	c-0.8-1.4-1.7-2.8-2.5-4.3c-2.5-9-4.3-10.2-13.9-9.2c1.3-5-2.5-10.8,2.6-15.2c8.7,3.4,12.9,11.4,18.2,18
	C547.8,255.3,552.6,261.6,559,266.4z"/>
<path class="st12" d="M478.2,217c12.9,0.7,22.5,6.4,27.6,18.6c1.5,3.5,4.4,0.7,6.4,1.8c-3.8,2.6-9.7,1.9-11.7,7.4
	c-6.3,0.7-12.2-1.7-18.3-2.4c-1.1-2.7,0.6-6.9-3.5-7.9c-3.6-0.9-2.3,3.6-4.2,5.1c-3.6-4.7-8-6.9-13.7-6.1c1.2-1.6,3.2-0.7,4.6-1.3
	c3.6-1.7,6.8-4.2,7.8-8.3c0.7-2.7-0.3-5-3.7-5.3c1.7-2.1,4.3-0.8,6.3-1.6C476.5,217,477.4,217,478.2,217z"/>
<path class="st9" d="M397.3,223.3c-5.3-5.5-8.4-12.1-9.7-19.6c3.1-1.1,6.2-2.1,9.3-3.2c0.4-0.3,0.7-0.5,1.1-0.8
	c6.6-1.5,11.5-6.3,17.4-9.2c2.6,5,0.8,10.5,1.5,15.7c-4.2,8.1-12.4,11.8-19.1,17.2C397.9,223.4,397.3,223.3,397.3,223.3z"/>
<path class="st2" d="M671.1,188.4c0.7,4.5-0.5,7-5.8,6.5c-4.7-0.5-9.5-0.1-14.2-0.1c0.8-12.7-0.8-25.2-1.1-37.9
	c-0.2-8.6,4.1-12.1,12.6-10.7c9.1,1.5,9.9,3.1,7.5,14.6C670.4,170,668.5,179.3,671.1,188.4z M666.2,164.3
	C666.2,164.3,666.2,164.3,666.2,164.3c0-2.5-0.2-5,0.1-7.5c0.5-4.6-1.1-6.3-5.9-6.1c-4.1,0.2-7.4,0-6.8,5.8c0.5,4.7,0.6,9.6,0,14.3
	c-0.8,6.4,3.3,7.1,7.8,7.5c5.7,0.5,4.8-3.8,4.9-7.2C666.2,168.8,666.2,166.6,666.2,164.3z M659.8,181c-2.2,0.4-5.6-0.8-5.6,2.9
	c0,3.1,2.8,3.6,5.5,3.4c2.4-0.2,5.3,0.6,5.1-3.4C664.8,180.2,662,181.2,659.8,181z"/>
<path class="st2" d="M680.5,227.9c-2,6.1-6.3,10.7-10.2,15.4c-2.6,3.1-6.6,2.6-9.2-0.7c-3.1-3.9-6-8-8.6-12.2
	c-2.5-4-0.8-7.3,4.1-7.9c8.3-0.9,16.5-1.7,24.8-2.4c3.8-0.3,6.1,1.6,6.1,5.4c0.1,7.9,0.1,15.8,0,23.8c0,3.5-1.8,5.4-5.3,5.7
	c-10.2,1-20.4,1.5-30.6,1.3c-2.4,0-5.1-0.1-5.2-3.1c-0.2-9.2-0.1-18.4-0.1-27.5c0.8,0,1.6,0,2.4,0c0,6.9,0.4,13.8-0.1,20.6
	c-0.4,5.9,1.3,8.3,7.5,7.6c7.9-0.8,15.8-1,23.7-1.3c2.8-0.1,4.2-1,4.2-4c-0.1-7.1-0.1-14.2,0-21.3c0-2.7-1.2-3.8-3.8-3.6
	c-7.3,0.5-14.5,0.9-21.8,1.7c-3.2,0.3-6,1.5-2.2,5.3c2.1,2.2,3.7,5,5.5,7.5c3.5,5,5.3,4.9,9.2,0
	C673.8,234.4,675.7,229.8,680.5,227.9z"/>
<path class="st7" d="M460.7,233.4c5.7-0.8,10.1,1.5,13.7,6.1c2-1.5,0.6-6,4.2-5.1c4.1,1,2.4,5.2,3.5,7.9c0,1.6,0.1,3.3,0.1,4.9
	c-2.2,3.8-4.3,7.5-6.5,11.3c-7.5,2.1-12.9-1.1-17.1-10c-1.2-2.5-1.9-5.1-2.1-7.8C455.8,237,458.1,235.2,460.7,233.4z"/>
<path class="st11" d="M614,40.7c-7.2,7.4-14.6,14.8-19.5,24.1c-5.5-6.8-8.4-14.7-10.9-22.9c-1.1-3.6-0.1-5.5,4.1-5.3
	C596.7,36.7,605.7,36.7,614,40.7z"/>
<path class="st6" d="M588.5,168.5c4.3,1.7,9.7,2.7,5.3,9.3c-1,1.4-0.7,2.7,0.2,4c2.2,3.3,1.3,5.8-1.8,7.8c-6-2.9-6.9-2.2-9.9,7.6
	c-2.8,3.7-3.6,9-8.6,11.1c-3,0-6.2,1.1-9-1.1c-0.9-5,4.6-7.2,5.1-11.6c2.6,1,4.5,0.6,6.3-1.9c3.3-4.5,5-9.5,5.9-14.9
	C584,175.2,587.6,172.7,588.5,168.5z"/>
<path class="st7" d="M363.2,187.2c-0.1,1.7-0.1,3.4-0.2,5.1c-2.3,2.7-6.1,1.9-8.6,3.9c-2.7-3.3-7-2.6-10.5-4.1
	c0.4-2.2,0.2-4.1-2.3-5c-2.3-0.8-3.2-2.4-2.2-4.8l-0.1,0.1c1.5,0.3,3,0.6,5.1,1c-1-1.7-1.7-2.8-2.3-3.9c-0.4-1.9-0.7-3.7,2.2-3.6
	c4.8-0.3,9.4-1.5,13.7-3.6c1.7,4.6,4.5,8.8,5.3,13.7C363,186.4,363,186.8,363.2,187.2z"/>
<path class="st12" d="M344.1,175.9c-2.9-0.1-2.6,1.7-2.2,3.6c-1.7,0.3-2.8,1-2.7,2.9c0,0,0.1-0.1,0.1-0.1c-2.2,0.9-4,3-6.7,2.5
	c-2.3-0.2-5.2,0.9-6.7-1.9c-1.4-2.6,0-4.2,2.4-5.3c1.2-0.6,0.5-1.7,0.3-2.7c-0.8-4.5,0.9-8.2,5.4-8.7c3.6-0.3,4.3-2.3,5.3-4.7
	c3.1-2.4,6.3-2.5,9.5-0.1c1,1.8,2.5,0.8,3.8,0.6c0.3,2.2-0.1,4-2.3,5.2C347.1,169.1,345.2,172.3,344.1,175.9z"/>
<path class="st6" d="M460.7,233.4c-2.5,1.7-4.9,3.6-4.1,7.2c-9.2-1.8-11.3-9.1-5-16.4c2.1-2.4,4.7-4,7.9-4.7c2.1,0,4.1-0.1,6.2-0.1
	c1.3-0.3,2.5-0.6,3.8-0.9c3.4,0.2,4.3,2.6,3.7,5.3c-1,4.1-4.2,6.6-7.8,8.3C463.9,232.8,461.9,231.8,460.7,233.4z"/>
<path class="st5" d="M663.4,102.1c1.8-3.7,5.7-5.4,7.8-8.7c6.5,1.6,12.8,3.5,16.6,9.8c-5.4,2.2-9.2,6.1-11.6,11.3
	C666.5,113,664.4,110.9,663.4,102.1z"/>
<path class="st9" d="M582.1,178.8c-0.9,5.4-2.6,10.4-5.9,14.9c-1.8,2.5-3.7,2.9-6.3,1.9c-1.7-2.4-4-4-6.7-5.1
	c0.4-5.8,2.8-11.1,4.1-16.7c2.4,0.7,4.9,1.2,7.4,0.6C577.9,174.7,580,176.7,582.1,178.8z"/>
<path class="st9" d="M632.3,95.6c5.5,2.9,11,5.9,16.5,8.8c-0.7,2.1-2.7,2.2-4.4,3.1c-2.3,1.1-6,1.4-6.3,4.3
	c-0.4,3.4,3.7,3.9,5.9,5.7c0.8,0.7,2.3,0.6,3.6,0.8c-0.9,2.8,7.1,1.5,2.7,5.9c-5.1-2.8-10.1-5.6-14.7-9.2
	C626.1,107.8,625.7,106.3,632.3,95.6z"/>
<path class="st1" d="M354.3,196.2c2.6-2,6.4-1.3,8.6-3.9c0.8,0.1,2.1-0.2,2.4,0.2c3.6,5,9.6,7.7,12.6,13.2
	c-8.2,1.6-16.6,1.4-24.9,1.4C353.5,203.5,353.9,199.8,354.3,196.2z"/>
<path class="st15" d="M465.5,321.5c-4.3-3.8-6.2-9-8.4-14.1c4.8,0.1,10.2,1.2,11-6c5.7,6.2,11.3,12.3,17,18.5
	c-1.7,0.2-3.3,0.2-4.8-0.8C474.6,315.3,469.7,316.1,465.5,321.5z"/>
<path class="st7" d="M416.9,206.2c-0.8-5.2,1.1-10.6-1.5-15.7c5.6-4.2,9.9-9.4,12.6-15.9c1.5,0.9,3.2,1.5,5,1.2
	c-2.6,9.2-5.7,18.1-11.1,26.1C420.6,203.9,419.6,206,416.9,206.2z"/>
<path class="st7" d="M500.5,244.8c2-5.5,7.9-4.7,11.7-7.4c2.7-0.8,5.6-1.3,8-3.2c-0.7-3.1-5.6-3.2-5-7.7c3.6,0.6,6.7,2.2,9.5,4.5
	c-5.1,4.3-1.3,10.2-2.6,15.2c-0.4,0.3-0.7,0.6-1.1,1c-5.6,0.1-11.1,0.1-16.7,0.2C502.4,247.3,500.4,247.6,500.5,244.8z"/>
<path class="st9" d="M573.7,208.3c5-2.1,5.8-7.3,8.6-11.1c1.6,0.4,3.3,0.8,4.9,1.3c1.3,3.2,2.6,6.4,3.9,9.7c1.9,3.9,0.8,6.6-3.4,7.8
	c-3.7,1.1-7.7,3.8-10.2-2c-0.4-1-1.5-1.8-1.8-3C575.6,209.7,574.7,209,573.7,208.3z"/>
<path class="st9" d="M433,175.9c-1.8,0.3-3.5-0.3-5-1.2c0-11.1,4.9-18.4,14.6-21.5c1.1,2.7-1.1,3.8-2.7,4.9c-1.5,1-2.3,2.1-1,3.4
	c4.5,4.5,0.7,7.6-1.8,10.8C436.1,173.7,434.5,174.7,433,175.9z"/>
<path class="st8" d="M574.7,174.5c-2.5,0.5-5,0-7.4-0.6c-3.8-1.7-5.5-4.4-3.9-8.5c1.5-4,4.2-7.2,8.7-6.5c3.7,0.6,8.1,1.5,7.5,7.1
	C573.8,167.3,571.9,170.6,574.7,174.5z"/>
<path class="st5" d="M647.4,118.4c-1.2-0.2-2.7-0.1-3.6-0.8c-2.1-1.8-6.2-2.3-5.9-5.7c0.3-2.9,4-3.2,6.3-4.3c1.7-0.8,3.6-1,4.4-3.1
	c2-0.2,3.7,0.9,5.4,1.7c0.9,2.9,1.7,5.7,2.6,8.6C652.9,114,650.3,116.6,647.4,118.4z"/>
<path class="st9" d="M475.8,258.5c2.2-3.8,4.3-7.5,6.5-11.3c2.8,4.2,5.7,8.4,8.5,12.6c0.4,0.8,0.7,1.6,1.1,2.4
	c-4.9,2.1-10,1.8-15.1,1.2C477.3,261.6,476.5,260,475.8,258.5z"/>
<path class="st8" d="M344.1,175.9c1.2-3.6,3-6.8,6.4-8.7c2.2-1.2,2.6-3,2.3-5.2c0-0.3,0.1-0.7,0.1-1c5.9-3.4,6.9,0.9,7.9,5.1
	c-0.2,0.4-0.2,0.8,0,1.2c-0.1,2.2-1.8,3.5-3,5.2C353.4,174.4,348.9,175.6,344.1,175.9z"/>
<path class="st12" d="M563.2,190.6c2.7,1,5,2.7,6.7,5.1c-0.6,4.4-6,6.6-5.1,11.6c-6.1,1-7.5-2.2-5.8-7.2
	C560,196.8,558.6,192.3,563.2,190.6z"/>
<path class="st11" d="M647.4,118.4c2.9-1.8,5.5-4.3,9.3-3.7c1.8,5.1,4.3,10.1,4.6,17c-4.4-2.9-7.8-5.1-11.1-7.4
	C654.6,119.9,646.6,121.1,647.4,118.4z"/>
<path class="st13" d="M449.6,126c-4.6-4.7-6.4-11.5-11.6-15.8c0,0,0.1,0,0.1,0c0.3-0.1,0.4-0.3,0.4-0.6c6.3-2.5,9.1-1.5,7.9,3
	c-1.3,4.9,1.1,5.4,4.6,5.4c2.6,0,4.3-0.1,4.8,3.7C456.7,128.2,452.3,125.5,449.6,126z"/>
<path class="st12" d="M574.7,174.5c-2.8-3.8-0.9-7.2,5-8.5c2.7,1.9,5.6,2.7,8.9,2.6c-0.9,4.2-4.6,6.7-6.4,10.3
	C580,176.7,577.9,174.7,574.7,174.5z"/>
<path class="st11" d="M428.7,84.5c0.7,0,1.3,0,2,0.1c0.2,0.4,0.3,0.8,0.5,1.1c0.5,2.2,0.9,4.4,1.4,6.6c-0.7,3.4,4.8,4.1,3.5,7.9
	c-1,3,0.5,5.5,2,7.9c0.1,0.5,0.2,1,0.3,1.5c0,0.3-0.1,0.5-0.4,0.6c-0.8,0.4-1.8,0.5-2.2-0.3C432.1,101.8,428.6,93.7,428.7,84.5z"/>
<path class="st7" d="M587.2,198.5c-1.6-0.4-3.3-0.8-4.9-1.3c3-9.8,4-10.6,9.9-7.6C592.7,193.8,590,196.2,587.2,198.5z"/>
<path class="st4" d="M671.1,188.4c-2.6-9.1-0.7-18.4-1-27.5c0.7,0,1.5,0,2.2,0C671.9,170,671.5,179.2,671.1,188.4z"/>
<path class="st1" d="M457,307.3c-1.6-3.7-3.2-7.4-4.9-11.1C459.9,298,461.2,301.1,457,307.3z"/>
<path class="st1" d="M448.1,287.4c-1.8-2.9-3.6-5.7-5.4-8.6C448.8,279,449.4,282.6,448.1,287.4z"/>
<path class="st1" d="M397.3,223.3c0,0,0.6,0.1,0.6,0.1c-0.4,0.8-0.7,1.6-1.1,2.4c-1.2,0-2.4,0-3.8,0
	C393.9,223.8,395.9,224.2,397.3,223.3z"/>
<path class="st1" d="M352.8,160.9c-0.1,0.3-0.1,0.7-0.1,1c-1.3,0.2-2.8,1.2-3.8-0.6C350,159,351.5,160.4,352.8,160.9z"/>
<path class="st1" d="M465.6,219.4c-2.1,0-4.1,0.1-6.2,0.1C461.5,218,463.5,218.1,465.6,219.4z"/>
<path class="st1" d="M478.2,217c-0.8,0-1.6,0-2.4,0C476.6,215.9,477.4,215.9,478.2,217z"/>
<path class="st1" d="M363.2,187.2c-0.1-0.4-0.2-0.8-0.1-1.1c0.2,0.3,0.3,0.5,0.4,0.8C363.5,186.9,363.3,187,363.2,187.2z"/>
<path class="st1" d="M398,199.7c-0.4,0.3-0.7,0.5-1.1,0.8C397.2,200.3,397.6,200,398,199.7z"/>
<path class="st1" d="M360.8,167.1c-0.2-0.4-0.2-0.8,0-1.2c0.1,0.3,0.3,0.5,0.4,0.8C361.2,166.9,360.9,167,360.8,167.1z"/>
<path class="st4" d="M198.6,295c-2.7,0.4-5-0.9-7.5-1.4c5.5-9.3,8.5-19.2,8.8-30c0.8-6.7-0.8-13.3-5-18.2
	c-6.2-7.3-10.5-15.8-16.4-23.2c-0.4-12.3,1.1-24.7-1.1-37c-0.8-4.5-2.4-8.7-3.8-13c4.6-10.7,7.9-21.9,14.6-31.5
	c10.1-14.6,17.6-30.5,25.9-46c1.9-3.5,5.6-5.5,10-1.9c11.7,9.7,22.5,20.2,31.4,32.6c4.4,6.2,10.5,11.3,12.1,19.3
	c-6.3-0.2-12.7,0.8-18.9-0.6c-1.7-0.4-2.2,0.6-2.4,1.9l0,0c-1,0.5-1.2,1.5-1.3,2.5c-1.4,0.9-1.6,2.5-1.8,3.9
	c-1.7,12.4-0.6,24.8,1.6,37.1c0.3,1.6,0.9,2.8,2.7,2.9l0,0c0.9,1.5,2.4,1.2,3.8,1.3l0,0c7.6,3.6,15.8,2.2,23.8,2.5
	c-2.3,10-7.5,18.9-12.3,27.8c-0.7,1.3-2,2.4-0.1,3.6c-1.4,2-3.8,1.2-5.7,2c-7.4,3-13.7,11.4-13.2,18c-0.1,0.6-0.1,1.4-0.5,1.8
	c-8.9,9.5-17.4,19.6-27.1,28.2c-4.8,4.3-7.2,11.9-15.1,12.5c0.4-3.6,3.4-5.7,5.3-8.3c16.6-22.4,27.3-47.4,29.4-75
	c1.8-24,1.6-48.2-4-72c-1.6-6.9-2.3-14.1-6.1-21.5c-0.3,1.7-0.6,2.3-0.5,2.9c5.2,20.2,6.3,41,6.9,61.6c0.4,14.2-0.5,28.6-3.5,42.7
	c-2.7,12.6-5.6,25.4-12.5,36.4c-6,9.5-9.7,20.3-17,29c-1.2,1.4-2.4,4.6,2,4.2C201.4,292.1,199.4,293.2,198.6,295z"/>
<path class="st14" d="M204.2,340.1c0.3-8.1,0.6-16.1,0.9-24.2c4.2-8.9,8.9-17.4,14.9-25.3c8-10.5,17.3-19.4,28.8-25.9
	c4.7,1.8,7.8,6.1,12.7,7.6c5.6,6,8.7,13.5,11.4,21.1c-3.9,3.7-10.3,4.9-11.5,11.3c-0.8,0.3-1.8,0.3-2.3,0.9
	c-9.4,11.2-18.7,22.5-28,33.8C222.2,341.4,213.2,342.2,204.2,340.1z"/>
<path class="st4" d="M268.8,144.7c4.7,0.8,9.4,1.5,14.2,1.1c4.6-0.4,8.8,2.2,13.4,1.7c-7,2-13.8-0.9-20.8-0.5c-4.7,0.3-6,1-3.6,5.6
	c1.5,2.9,2.2,6.3,3.2,9.4c-5.1-0.5-7.1,1.5-6.5,6.7c0.4,2.8,0.1,5.8,0.1,8.7c0,8.7,0,8.7,8.7,8.5c-0.5,2.9-1.6,5.8-1.2,8.9
	c-8.4,0.9-16.7-1.5-25-1.3c0,0,0,0,0,0c-0.9-1.4-2.4-1.2-3.8-1.3c0,0,0,0,0,0c-0.4-1.2-1-2.3-1.2-3.5c-2.3-13.4-3.5-26.8-1.3-40.4
	c1-0.6,1.2-1.5,1.3-2.5c0,0,0,0,0,0C253.8,145.1,261.4,147.4,268.8,144.7z M267.7,176.4c0-1.7,0.1-3.3,0-5c-0.1-2.3,0.8-5.3-3.2-5.5
	c-3.2-0.1-6-0.1-5.6,4.4c0.2,2-0.9,2.8-2.9,3.2c-6.1,1.1-2.6,6-3.1,9.1c-0.6,3.8,2.7,3.3,5.2,3.4c1.7,0,3.3-0.1,5,0
	c3.5,0.3,5.1-1.1,4.7-4.6C267.5,179.7,267.7,178.1,267.7,176.4z"/>
<path class="st6" d="M310.4,319.9c0.2-8.3,0.6-16.5,2.4-24.7c13.1,2.5,26,1,38.7-2.5c0,1.5,0.1,3,0.1,4.5c-4.3,4-1.6,9.2-2.4,13.8
	c-2.1,12.5-3.9,14.1-16,13.8c-1.4,0-2.9-0.3-4.3-0.4C323.1,321.4,317.7,316.8,310.4,319.9z"/>
<path class="st13" d="M351.5,292.7c-12.7,3.5-25.6,5-38.7,2.5c-1.7-7.7-1.2-15.5-1.7-23.2c1-0.3,2-0.7,2.9-1
	c2.3,0.3,4.4-0.3,6.7-0.7c6.9-1.2,12.9-4.9,19.7-6.6c-4.7,15-3.8,12.2,8.9,12.4c2,0,4.1,0.1,6.1,0.1
	C354.1,281.7,352.8,287.2,351.5,292.7z"/>
<path class="st9" d="M314,271c-1,0.3-2,0.7-2.9,1c-12.8-1-20.6-7.4-22.7-20.4c-0.5-2.8,0.4-5.3,0.7-7.9c6.4,0.9,12.5,2.8,18.6,4.7
	c0,3.2,0.5,6.2,3.1,8.4c1.5,1,3.1,2.1,4.6,3.1C314.9,263.7,313.5,267.2,314,271z"/>
<path class="st11" d="M261.3,304.7c1.2-6.4,7.6-7.6,11.5-11.3c5.6,13.4,16.9,20.9,28.6,28.1c0.7,1.2,2.6,1.3,2.6,3.1
	c-4,0.2-8,0.3-11.9,0.5C279.6,321.6,269.9,314.1,261.3,304.7z"/>
<path class="st6" d="M243.9,247.4c-0.6-6.6,5.8-15,13.2-18c1.9-0.8,4.3,0,5.7-2c1.1-0.5,2.3-0.8,3.2-1.6c2.3-1.9,4.3-4.9,7.4-1.3
	c2.8,3.2,2.9,6.6,0.3,10c-0.7,0.9-1.7,1.7-2.6,2.5c-4.1,4.3-14,1.2-13.8,10.8c0,0-0.3,0-0.4,0.1c-5.4,2.7-5.4,2.9-0.1,6.9
	c-0.4,1.4-1.7,1.1-2.6,1.5c-2,0-5.1,0-5.2-2C248.7,250.6,245.7,249.6,243.9,247.4z"/>
<path class="st7" d="M256.7,254.9c-5.3-4-5.3-4.2,0.1-6.9c0.1-0.1,0.4-0.1,0.4-0.1c-0.1-9.7,9.8-6.5,13.8-10.8
	c3.6,3.7,5.2,8.4,6.3,13.2c1.7,7.5,0.1,9.5-7.5,10.9c-1.2,0.2-2.3,0.8-3.5,1.2C264.3,258.4,259.4,258,256.7,254.9z"/>
<path class="st9" d="M354.3,196.2c-0.4,3.7-0.9,7.3-1.3,11c-6.3,4.7-13,6.8-20.3,2.2c2.2-6.1,4.4-12.3,6.6-18.4
	c1.5,0.4,3,0.8,4.5,1.2C347.3,193.5,351.6,192.9,354.3,196.2z"/>
<path class="st9" d="M256.7,254.9c2.7,3.1,7.5,3.5,9.6,7.5c-1.6,3.3-3.3,6.7-4.9,10c-4.9-1.4-8-5.8-12.7-7.6
	c1.9-2.7,5.4-4.4,5.4-8.4C255,255.9,256.4,256.2,256.7,254.9z"/>
<path class="st9" d="M304,324.5c0-1.7-1.9-1.9-2.6-3.1c3-0.5,6-1,8.9-1.6c7.3-3.1,12.8,1.5,18.6,4.6
	C320.6,324.5,312.3,324.5,304,324.5z"/>
<path class="st2" d="M277.6,185.9c-8.7,0.2-8.7,0.2-8.7-8.5c0-2.9,0.3-5.8-0.1-8.7c-0.7-5.2,1.4-7.3,6.5-6.7
	c2.9,0.6,2.3,2.9,2.3,4.9C277.6,173.2,277.6,179.5,277.6,185.9z M270.2,173.8c0,2.7,0,5.4,0,8.1c0,1.7,0.8,2.7,2.7,2.6
	c1.5-0.1,2.2-1,2.2-2.4c0-5.4,0-10.8,0-16.2c0-1.4-0.9-2.3-2.4-2.3c-1.9-0.1-2.5,1.1-2.5,2.8C270.2,168.9,270.2,171.4,270.2,173.8z"
	/>
<path class="st2" d="M291.5,171.9c0,2.5-0.3,5.1,0.1,7.5c0.9,5.9-2,7-7.2,6.7c-3.3-0.2-4.3-1.4-4.3-4.5c0.1-6.7,0.3-13.4,0-20
	c-0.2-4.5,2.4-4.5,5.6-4.4c2.9,0.1,6.1-0.6,5.8,4.1C291.3,164.8,291.5,168.4,291.5,171.9z M290.2,171.5c0-2.9-0.1-5.8,0-8.7
	c0.2-3.2-1-4.5-4.3-4.4c-3,0.1-4.6,0.9-4.5,4.3c0.2,5.8,0.2,11.6,0,17.4c-0.1,3.5,1.2,4.7,4.7,4.7c3.4,0,4.3-1.6,4.1-4.6
	C290.1,177.3,290.2,174.4,290.2,171.5z"/>
<path class="st2" d="M251.3,193.5c8.4-0.2,16.6,2.1,25,1.3c4.2,0,8.3,0.1,12.5,0.1c0,0.3,0,0.7,0,1c-4.6,0-9.1,0.1-13.7,0.1
	C267.2,195.6,259,197.1,251.3,193.5z"/>
<path class="st8" d="M343.8,192.1c-1.5-0.4-3-0.8-4.5-1.2c-2.2-2-4.5-4.1-6.7-6.1c2.7,0.5,4.5-1.6,6.7-2.5c-1,2.4-0.1,4,2.2,4.8
	C344.1,188,344.3,189.9,343.8,192.1z"/>
<path class="st4" d="M304,167.2c-0.8-5.4,0.8-10.3,3.6-15C306.9,157.3,308.7,163,304,167.2L304,167.2z"/>
<path class="st2" d="M268.8,144.7c-7.4,2.6-15,0.4-22.4,1.2c0.2-1.4,0.7-2.3,2.4-1.9c6.3,1.5,12.6,0.4,18.9,0.6
	C268,144.6,268.4,144.7,268.8,144.7z"/>
<path class="st4" d="M288.8,195.9c0.1-0.3,0.1-0.7,0-1c1.6-0.9,3.3-1.8,5.4-1C292.8,196,290.9,196,288.8,195.9z"/>
<path class="st4" d="M304,167.2c-0.1,1.3-0.1,2.6-0.2,4.4C302.2,169.6,302.6,168.3,304,167.2C304,167.2,304,167.2,304,167.2z"/>
<path class="st4" d="M303,148.8c-0.4,0.4-0.6,0.7-0.9,0.8c-0.7,0.1-1.6,0.3-2-0.6c0,0,0.7-0.5,1-0.5
	C301.7,148.5,302.3,148.7,303,148.8z"/>
<path class="st4" d="M301.4,180.3c-0.2,0.3-0.4,0.7-0.6,1c-0.2-0.3-0.5-0.7-0.5-1c0-0.3,0.3-0.7,0.5-1
	C301,179.7,301.2,180,301.4,180.3z"/>
<path class="st4" d="M302.1,176.4c-0.2-0.4-0.5-0.7-0.5-1c0-0.3,0.3-0.7,0.5-1c0.2,0.3,0.5,0.7,0.5,1
	C302.6,175.7,302.3,176,302.1,176.4z"/>
<path class="st4" d="M299.8,184.3c0.1,0.2,0.1,0.3,0.2,0.5c-0.2,0-0.5,0.1-0.7,0.1c0-0.2,0-0.4,0.1-0.5
	C299.4,184.3,299.6,184.4,299.8,184.3z"/>
<path class="st4" d="M297.2,191.8c0.1,0.1,0.1,0.3,0.2,0.4c-0.2,0-0.5,0.1-0.7,0.1c0-0.2,0-0.4,0.1-0.5
	C296.9,191.8,297.1,191.9,297.2,191.8z"/>
<path class="st4" d="M298.5,188.1c0.1,0.2,0.1,0.3,0.2,0.5c-0.2,0-0.5,0.1-0.7,0.1c0-0.2,0-0.4,0.1-0.5
	C298.2,188.1,298.4,188.1,298.5,188.1z"/>
<path class="st0" d="M133.5,296.2c19.6-0.7,39,0.9,58.5,2.6c5.6,0.5,8.8,3.8,9.1,9.3c1.1,21.1-1.3,41.8-5,62.5
	c-0.6,3.4-3.4,5.3-6.2,5.4c-18.9,0.6-37.7-0.6-56.5-2c0-5.2,0-10.4,0.1-15.6c0-2.3,0.1-4.7-2.5-5.8c1.1-2.1,3.5-3.7,1.7-6.7
	c-1.6-2.6-3.9-1.9-6.1-2.1c-1-0.1-2.1,0-3.1,0c0.4-2.1,0.8-4.1,1.3-6.2c12.2-0.2,24.5,0.4,36.6-1.2c3.1-0.4,6-0.2,6-4.4
	c0-4.2-2.8-4.2-6-4.4c-11-0.8-21.9,1.5-32.9,1.3c1.2-3.5-2.9-5.5-2.5-8.7c17.4,0.1,34.8-2.2,52.3-1.3c3.2,0.2,6.6,0.4,6.6-4.4
	c0-4.7-3.4-4.4-6.6-4.4c-17,0-34.1-0.4-51.1,1.2C130.9,306.8,135.7,303,133.5,296.2z"/>
<path class="st1" d="M124.7,337.5c-0.4,2.1-0.8,4.1-1.3,6.2c-7.5,0-15,0.2-22.4,0c-3.8-0.1-7.1,0.9-7.1,5c0,4.1,3.6,4.8,7.2,5.1
	c7.1,0.6,14-1.2,21-1.3c2.5,3.4,5,6.3,7.5,0c0.4,0,0.8,0,1.2,0c2.6,1.2,2.5,3.5,2.5,5.8c0,5.2,0,10.4-0.1,15.6
	c-12.9-0.4-25.8,0.2-38.7-0.6c-7.3-0.4-9.5-4.7-10-10.8c-1.3-14.8-2.8-29.7-3.8-44.5c-0.2-3.4-3-5.7-2.7-9.3
	c0.4-5.7,2.9-9.1,8.7-9.9c15.5-2.3,31-2.9,46.6-2.5c2.2,6.8-2.6,10.7-6.3,15c-8.9-0.6-17.7,2-26.7,1.3c-4.1-0.3-8.2,0.9-8,5.6
	c0.2,4.7,4.7,5,8.2,4.2c8.4-1.8,17-0.2,25.3-2.3c-0.4,3.3,3.7,5.2,2.5,8.7c-10-0.7-19.8,1-29.7,1.2c-3.1,0.1-5.3,0.7-5.3,4.4
	c0,3.7,2.2,4.5,5.3,4.4C107.4,338.5,116.2,339.5,124.7,337.5z"/>
<path class="st4" d="M191.1,406.5c-1.6,0-3.2,0-4.8,0c-16.3-2.1-32.8-1.2-49.2-1.5c-3.9-0.1-7.8-0.7-11.7-1.3
	c-2.5-0.4-4-2.1-4.4-4.6c-0.8-5.9-1.6-11.9-2.5-17.8c-0.6-3.8,1-5.4,4.9-5c14.9,1.4,29.8,0.8,44.7,2.2c8.9,0.8,17.9,0.2,26.8,0.3
	c7,2.3,14.5,0.6,21.5,2.4c2.1,0.5,4.5-0.2,4.5-3c0-2.7-2.2-3-4.4-3.3c-5.5-0.7-11-1.6-16.6-2.4c0.8-7,1.7-13.9,2.5-20.9
	c0.2-2.1,1.2-2.9,3.2-2.9c0.4,0,0.8,0,1.2,0c17.6,0.1,19.5,0.8,19.1,18.8c-0.3,11.1-2,22.2-4.5,33.1c-1,4.3-3.2,5.8-7.3,5.8
	C206.4,406.3,198.8,406.5,191.1,406.5z M152.4,397.5c12.7-0.1,25.2,0.6,37.6,3.6c2.2,0.5,5,0.9,5.8-2c1-3.6-2.1-3.7-4.6-4.2
	c-14.9-2.9-30-3.7-45.1-3.5c-4.6,0-9.2,0-13.8-0.1c-2.2,0-4.6,0.1-4.8,2.8c-0.2,3.2,2.4,3.4,4.8,3.4
	C139,397.6,145.7,397.5,152.4,397.5z M196.2,383.8c-1.4-0.4-2.8-1.3-4.1-1.2c-18.6,0.7-37-1.8-55.6-1.3c-1.8,0-3.7,0.6-5.5,1
	c-1.7,0.4-3.4,0.9-3.5,3c-0.2,2.4,2.1,2.1,3.5,2.8c3.3,1.6,6.5-0.3,9.8,0c18,1.7,36.2-0.5,54.2,1.8c6.6,0.5,13.1,0.8,19.7,1.6
	c2.6,0.3,5.4,1.3,6.1-1.8c0.8-3.5-2.9-3.6-5-4.1C209.4,384.2,202.6,386,196.2,383.8z"/>
<path class="st10" d="M204.2,340.1c9,2,18,1.3,26.9-0.7c4.3,1.3,9-0.5,13.3,1.6c-1,0.2-2,0.4-4.3,0.8c11.6,2.8,21.8,5.3,32.1,7.9
	c1.3,0.3,2.5,0.1,3.1-1.2c3.6,7.6,6.9,15.4,10.7,22.9c2.5,4.9,2.6,9.4-0.7,13.9c0.5-4.3-3.4-5.5-5.4-8.2c-2.1,2,0.1,5-2,6.8
	c-0.5-5.5,0.6-11.1-2.3-16.5c-1.2-2.3-2.1-3.6-4.9-3.7c-7.7-0.2-15.4-0.6-23.1-1c-6.1-0.3-12.2-0.6-18.2-0.9
	c-1.8-14.6-1.8-14.4-17.1-15.9C209.2,345.5,202.1,348.6,204.2,340.1z"/>
<path class="st1" d="M254.1,256.4c0,4-3.5,5.6-5.4,8.4c-11.5,6.5-20.7,15.4-28.8,25.9c-6,7.9-10.8,16.4-14.9,25.3
	c-0.1-3.7,0-7.4-0.4-11c-0.4-4.2-2-7.9-6-10c0.7-1.8,2.8-2.9,2.6-5.1l0,0c7.9-0.6,10.3-8.2,15.1-12.5c9.8-8.6,18.2-18.7,27.1-28.2
	c0.4-0.4,0.3-1.2,0.5-1.8c1.8,2.2,4.8,3.3,5,7C249.1,256.4,252.1,256.4,254.1,256.4z"/>
<path class="st1" d="M199.9,263.6c-0.3,10.8-3.3,20.7-8.8,30c-1,0.1-2.1,0.2-3.1,0.4c-9.3,1.6-11.5-0.4-12-9.6
	c-0.6-9.9-2.3-19.7,0.1-29.5c8.7-0.7,16.8-0.1,22,8.3C198.4,263.5,199.3,263.4,199.9,263.6z"/>
<path class="st15" d="M199.9,263.6c-0.6-0.1-1.5,0-1.7-0.4c-5.2-8.4-13.4-9-22-8.3c-0.2-11,0.7-21.9,2.5-32.7
	c5.8,7.5,10.1,16,16.4,23.2C199.2,250.3,200.7,256.8,199.9,263.6z"/>
<path class="st4" d="M173.2,264c-7.4-17.3-10.5-35.6-15.2-53.4c-4.8-18.5-17.1-29.8-32.4-39.1c-1.4-0.9-3-1.5-4.4-2.3
	c-0.3-0.2-0.5-0.6-0.9-1.4c4.3,0.2,7.6,2.2,10.9,4.1c19.4,11.2,29.1,28.6,33,50.1c2.4,13.3,6,26.5,9,39.7
	C173.4,262.4,173.2,263.2,173.2,264z"/>
<path class="st15" d="M200,372.6c5.5,0.8,11,1.7,16.6,2.4c2.2,0.3,4.5,0.5,4.4,3.3c0,2.7-2.4,3.5-4.5,3c-7.1-1.8-14.5-0.1-21.5-2.4
	C196.6,376.7,198.3,374.6,200,372.6z"/>
<path class="st4" d="M117.5,165.8c0.4,1-0.2,1.2-0.8,1.2c-0.5-0.1-1.1-0.4-1.4-0.8c-0.3-0.6,0.2-1.1,0.8-1.1
	C116.6,165.2,117.1,165.6,117.5,165.8z"/>
<path class="st12" d="M602.5,306.1c5.4-0.8,10.7-1.6,16.1-2.4c-0.4,5.1,0.5,10.1-2.2,15.1c-2.1,3.9,0.4,8.5,2.1,12.5
	c-6.2,7.8-9.6,17.1-13.5,26.1c-4,8.2-9.9,15.2-13.2,23.8c-4.1,0.2-3.3-2.8-3.4-5.1c-0.6-10.8,1.3-21.6-1.2-32.3
	c0.1-3.8,2.1-4.9,5.7-4.7c3.1,0.2,6.2,0,9.3,0c3.2,0.1,4.3-2.1,4.8-4.7c0.5-2.3,2-5.1-2-5.8c1.9-7.6,1.4-8.3-6.7-8.8
	C599.7,315.3,601.1,310.7,602.5,306.1z"/>
<path class="st15" d="M323.8,425.9c-2.2-1.8-2.9-4.5-4.4-6.7c4.6-0.8,6.4-3.5,5.9-8.1c-0.4-4-0.2-8.1-0.2-12.2
	c0.1-11.3,1.9-22.5,1.2-33.8c-0.1-7.6,3.9-14.7,3-22.4c0.8-1.2,1.6-2.4,2.3-3.7c1.4,10,2,20.1,4.8,29.8c1,13.2,4.9,25.8,8,38.5
	c0.8,3.3,0.7,4.2-2.8,5.7C334.9,415.8,330.8,422.9,323.8,425.9z"/>
<path class="st1" d="M244.4,341c-4.2-2.1-8.9-0.3-13.3-1.6c9.3-11.3,18.6-22.6,28-33.8c0.5-0.5,1.5-0.6,2.3-0.9
	c8.5,9.3,18.3,16.9,30.7,20.3c-0.1,1.2-0.2,2.4-0.3,3.6c-13.3,0-26.6,0-39.8,0.1c-2.5,0-6.5-1.2-6.5,2.6c0,3.6,2.3,7.3,6.8,7.5
	c5,0.2,10,0.2,14.9,0c3.7-0.1,6,1.2,6.6,4.9C263.9,343.3,254.2,340.9,244.4,341z"/>
<path class="st10" d="M325.1,398.8c0.1,4.1-0.1,8.2,0.2,12.2c0.4,4.7-1.3,7.3-5.9,8.1c-0.5-0.1-1-0.1-1.5-0.2
	c-4.6-4.2-7.7-10.2-14-12.6c-3.5-8.6-7.2-17.2-10.5-25.9c-1.8-4.7,0.4-8.5,4.1-11.6c4.1,8.6,10.8,15.5,15.2,23.9
	C317.4,393.8,320.2,398.6,325.1,398.8z"/>
<path class="st12" d="M336.4,368.7c-2.8-9.7-3.4-19.8-4.8-29.8c3.7,0.1,7.5,0.3,11.2,0.1c3.3-0.2,6,0.5,8.5,2.6
	c0.1,8.6,0.2,17.2,0.3,25.7c0,1.7-0.6,3.6,0.7,5.1c0.1,0.8,0.1,1.7,0.2,2.5c-2.2,1.8-3.9,1.1-6.1-0.3
	C343.2,372.6,340.8,369,336.4,368.7z"/>
<path class="st7" d="M465.5,321.5c4.2-5.4,9.2-6.2,14.9-2.4c1.4,1,3.1,1,4.8,0.8c8.2,2,16.4,2,24.6,0.3c9.2-1.9,9.2-1.9,5.8-10
	c0.3-0.2,0.6-0.5,0.8-0.7c0.4,0,0.7,0.1,1,0.3c2.2,6.3,6.4,7.8,12.4,5c1.8-0.8,3.9-0.9,5.9-1.3c0.9,2.2,1.8,4.4,2.8,6.6
	c0,0.3,0,0.6,0.1,1c0.5,3.5-1.3,5.7-4,7.5c-10.6-0.4-21.2,1.2-31.7-0.9c0.4-4.3-2.5-4-5.3-4c-10.6-0.1-21.2-0.1-31.9-0.2
	C465.7,322.8,465.6,322.1,465.5,321.5z"/>
<path class="st10" d="M401.8,327.5c-5.1-11.2-11.4-21.9-14.9-33.9c2.6-0.3,4.1,1.5,5.9,2.9c6.7,5.3,12.2,11.9,18.7,17.3
	c8.8,7.2,16.6,17.2,30.4,13.6c1.7,0,3.3,0,5,0c0,0.3,0,0.7,0,1c-13.5,0.1-27,0.1-40.4,0.2C404.7,328.8,403.2,328.3,401.8,327.5z"/>
<path class="st8" d="M587.3,343.8c2.5,10.7,0.6,21.6,1.2,32.3c0.1,2.4-0.7,5.4,3.4,5.1c-3.3,7-6.7,13.9-10,20.9
	c-3.3-6.5-7.2-12.6-9.6-19.5c2.7-4.5,4-9.6,6.3-14.3c2.6-5.2,5.1-10.8,4.8-17.1C585.3,349.1,584.8,345.7,587.3,343.8z"/>
<path class="st15" d="M567.8,371c-3.6-9.4-7.2-18.8-11-28.2c-1.1-2.7-0.8-4,2.3-4c6.6,0,13.3,0,19.9,0c4.3,0,3.2,2.7,2.3,5.2
	c-3.3,9.3-9.1,17.5-11.9,27C568.9,371.1,568.4,371.1,567.8,371z"/>
<path class="st10" d="M291.7,328.7c0.1-1.2,0.2-2.4,0.3-3.6c4-0.2,8-0.3,11.9-0.5c8.3,0,16.6,0,24.9-0.1c1.4,0.1,2.9,0.4,4.3,0.4
	c12.1,0.3,13.9-1.4,16-13.8c2,0.3,3-0.7,3.5-2.5c3.9-8.2,7.7-16.4,11.7-24.5c0.9-1.9,1.5-4.7,4.7-3.8c0.9,2.7-0.4,4.9-1.5,7.1
	c-5.4,11.7-10.7,23.4-16.1,35.1c-0.4,0.1-1.1,0.2-1.1,0.4c-0.8,8.1-6.9,6-11.7,6C323,328.8,307.4,328.7,291.7,328.7z"/>
<path class="st15" d="M312.8,392.8c-4.5-8.3-11.2-15.3-15.2-23.9c1.9-10.6,5.1-20.6,12.5-28.8c0.1,3.7,0.2,7.4,0.3,11.1
	c0.1,2.9,0.3,5.8,0.4,8.7C311.2,370.9,313.2,381.7,312.8,392.8z"/>
<path class="st12" d="M310.5,351.2c-0.1-3.7-0.2-7.4-0.3-11.1c5.5-2.2,11.2-0.6,16.8-0.9c2.5-0.2,2,2,2.4,3.4
	c0.9,7.7-3.1,14.8-3,22.4C320,361.6,313.3,358.6,310.5,351.2z"/>
<path class="st4" d="M534.6,328.6c2.7-1.8,4.5-4,4-7.5c18.3,0,36.6,0.1,54.9,0.2c2,0,4.8-1,5.1,2.8c0.2,4.2-2.8,3.3-5.1,3.3
	c-16.2,0-32.5,0-48.7,0.1c-2.1,0-4.6-1.1-6.3,1.2C537.1,328.7,535.9,328.6,534.6,328.6z"/>
<path class="st0" d="M563.9,415.1c-0.6,2.2-1.2,4.4-1.8,6.5c-3.7,0.8-7.4,1.5-11.1,2.3c6-11,10.4-22.8,14.9-34.4
	c0.6-1.6,0.8-4.4,3-4c2,0.3,2.1,2.8,2.1,4.7C568.2,398.3,564,406.1,563.9,415.1z"/>
<path class="st13" d="M538.4,328.7c1.7-2.3,4.2-1.2,6.3-1.2c16.2-0.1,32.5,0,48.7-0.1c2.3,0,5.3,0.9,5.1-3.3c-0.2-3.8-3-2.8-5.1-2.8
	c-18.3-0.1-36.6-0.1-54.9-0.2c-0.1-0.3-0.1-0.6-0.1-1c10.8-0.1,21.6-0.2,32.5-0.3c5.9,0,11.7,0,17.6,0c3.3,0,6.5,0,9.8,0
	c8.1,0.5,8.7,1.2,6.7,8.8C582.8,328.6,560.6,328.7,538.4,328.7z"/>
<path class="st8" d="M446.9,328.5c0-0.3,0-0.7,0-1c3.4,0,6.7,0,10.1-0.1c2.2,0,4.5,0,6.7,0c3.5,0.1,2.9-1.8,2.1-4
	c10.6,0.1,21.2,0.1,31.9,0.2c2.8,0,5.7-0.2,5.3,4c-1.2,0.3-2.4,1-3.5,1C481.9,328.7,464.4,328.6,446.9,328.5z"/>
<path class="st0" d="M279,345.1c-3.7-3.4-2.9-5.4,2-5.8c1.8-0.2,3.6,0.1,5.4,0.2c-0.1,2.5,1.5,3.7,3.6,3.8c2.4,0.1,2.6-2,2.7-3.8
	c11-0.3,11.3-0.1,7.1,9.7c-0.9,2,0,6.1-4.3,5.7c-0.2-4.5-2.1-7.3-6.9-7.9C285.4,346.6,282.2,345.7,279,345.1z"/>
<path class="st6" d="M244.4,341c9.9-0.1,19.5,2.2,29.3,2.8c0.5,1.5,1.1,3.1,1.6,4.6c-0.7,1.3-1.8,1.5-3.1,1.2
	c-10.3-2.5-20.6-5-32.1-7.9C242.4,341.4,243.4,341.2,244.4,341z"/>
<path class="st6" d="M279,345.1c3.2,0.7,6.4,1.6,9.6,1.9c4.8,0.6,6.7,3.4,6.9,7.9c-0.2,2.1-0.3,4.2-0.5,6.3c-2.3,0.2-2.9-1.7-4-3.2
	c-2.3-3.3-5.3-5.5-9.5-5.7C280.2,350,278.6,347.9,279,345.1z"/>
<path class="st15" d="M304,406.4c6.3,2.4,9.3,8.4,14,12.6c-1.1,4.1-3.1,8-2.5,12.4c-3.2-2.2-2.9-6.1-4.3-9.1
	C308.6,417,306.4,411.7,304,406.4z"/>
<path class="st0" d="M583.4,351.3c0.4,6.2-2.1,11.9-4.8,17.1c-2.4,4.7-3.6,9.8-6.3,14.3c-3.2-5.7,0.6-10.4,2.4-15.3
	C576.7,361.5,579.8,356.3,583.4,351.3z"/>
<path class="st10" d="M281.5,352.3c4.2,0.2,7.2,2.4,9.5,5.7c1,1.5,1.7,3.3,4,3.2c-1.3,3.5-2.5,6.9-4.2,11.5
	C287.4,365.3,284.4,358.8,281.5,352.3z"/>
<path class="st1" d="M292.8,339.5c-0.1,1.8-0.3,3.9-2.7,3.8c-2.1-0.1-3.7-1.3-3.6-3.8C288.5,338.7,290.6,338.7,292.8,339.5z"/>
<path class="st9" d="M445.9,340.9c0.3,0.1,0.6,0.1,0.9,0c1.3,1.3,2.6,2.7,3.9,4c-5.2-0.6-7.3,4.3-11.1,6.2
	C436.3,344.5,442.3,343.5,445.9,340.9z"/>
<path class="st8" d="M352.4,372.5c-1.2-1.6-0.6-3.4-0.7-5.1C352.4,369,352.6,370.7,352.4,372.5z"/>
<path class="st1" d="M438.5,109.6c-0.1-0.5-0.2-1-0.3-1.5c0-0.6,0-1.2-0.1-1.7c2.6-1.1,5.3-1.7,8.8-0.9c-1.6-3.7-2.1-7.2-0.2-11
	c-3.3,0-5.9,0-8.6,0l0.1,0.1c0.1-1-0.6-1.2-1.4-1.4l0.1,0.1c0-0.8-0.4-1.4-1.3-1.4l0.1,0c-0.2-7.4-0.2-7.4-4.4-6.4
	c-0.2-0.4-0.3-0.8-0.5-1.1c1.3-4.4,4.8-2.6,7.1-2.1c2.5,0.6,1.4,2.9,0.7,4.7c-0.6,1.5-0.5,3,1.1,3.7c1.7,0.7,3.4,1.7,5.3,0.6
	c1.7-1,2.3-2.6,1.7-4.2c-2.1-5,1-5.2,4.5-5.1c3.1,0,6.2-0.1,9.4,0c4.3,0.2,7.9,0.7,7.9-5.8c0-4.4,6.4-3.1,7.8-5.4
	c1.3-2.1-1.8-6.4,0.9-9.2c1.9-2,4.8-2.9,7.5-1.9c3.8,1.4,3.5-0.7,3.7-3.2c0.2-2.3-1.5-6,1.5-6.6c3.9-0.9,8.3-0.7,12.3,0
	c2.1,0.4,0.2,2.4-0.4,3.4c-1.4,2.4-0.3,4,1.5,5.3c1.5,1.1,3.3,1.4,4.6,0.1c1.3-1.3,3-2.4,0.9-5c-2-2.5,0-4.6,2.9-4.1
	c7.8,1.4,8.5-3.1,7.9-8.9c0-0.3,0-0.6,0-1c1.2-0.4,2,0.3,2.7,1.2c-0.1,1.6-0.2,3.3-0.1,4.9c0.1,1.5-0.6,3.8,1.9,3.6
	c2-0.1,5.3,1.8,5.7-2.4c2.2,1.1,4.4,2.2,5.8,4.3c-3.2,1.5-6.6,1-9.9,0.8c-4-0.2-3.3,2.4-3.6,4.9c-0.4,3.4,1.4,2.6,3.6,2.6
	c5.9-0.2,9.8,3.7,9.2,8.4c-0.6,4.4-4.8,6.7-10.5,5.7c-0.6-0.1-1.2-0.1-1.8-0.1c-1,8.8-1,8.8,7.4,9.3c2.9,0.2,5.9,0.2,3.9,4.6
	c-0.6,1.4-0.7,2.9,0.8,3.9c1.5,0.9,3.2,0.9,4.8,0.2c1.6-0.8,1.9-2.3,1.2-3.7c-2.2-4.6,0.7-4.9,4-4.9c0.2,3.2,0,6.2-1.4,9.1
	c-1.1,0.6-2.1,1.4-2.4,2.8c-5.1-0.7-12.3,1.5-11.4-7.9c0.1-0.9-1.1-1-1.9-1.2c-5.2-1.1-5.8,1.8-5.6,6c0.2,3,1.2,7.6-4.7,5.4
	c-1.9-0.7-3.7-2.4-5.6-0.3c-1.5,1.6-1.4,3.6-0.5,5.3c1.3,2.3,3.4,2.7,5.9,1.8c3.6-1.3,5.1,0.5,5,4c0,1.5,0,2.9,0,4.4
	c0.1,3,2.5,2.2,4.2,2.2c1.2,0,2.7,0.6,3-1.9c1.1-8.5,1.7-8.8,10.1-7.2c-5,2.4-4.2,9-8.6,11.8c-9-0.1-9-0.1-8.7,9
	c0,0.4,0.1,0.8,0.1,1.2c-0.9,1.1-1.8,2.2-2.7,3.3c-2.7-0.7-5.5-4.8-8.1-0.7c-2.1,3.3-0.8,6.4,3.3,7.8c-2.7,4.4-5.4,0.9-6.6-0.8
	c-2.3-3.2-2.4-7.1,1.2-9.9c2.9-2.2,6.1-2.1,9.3-0.4c1.4-8.6,1.4-8.7-6.5-9.5c-3.1-0.3-4.6-1.4-3.9-4.7c0.4-1.8,0.9-4-2.1-4
	c-2.3,0-4.4,1-3.9,3.7c0.8,4.7-1.7,5.4-5.3,5.1c-2.9-0.2-5.2-0.1-5.2,4.1c0,3.9,1.1,5,5,4.7c4.7-0.3,5.8,3.2,5.7,7.1
	c-0.1,4.1-1.7,7.1-6.3,6.5c-3.3-0.5-4.3,0.4-4.2,3.7c0,3.3,0.7,5.1,4.5,4.8c4.5-0.4,7.8,0.4,4.8,6.1c-0.8,1.6-0.8,3.4,1.7,4.5
	c2.3,1,0.4,2.2-0.5,3.2c-5.8-2-4.7-6.6-3.6-10.7c-5.2-1.4-7.5,0-6.8,5.2c0.6,4.5-1.1,6.9-6,5.3c-5.5-1.8-6.6,1.2-6.6,5.6
	c-1.1-0.4-2.2-0.8-3.3-1.2c0.9-5.6,3.8-8.7,9.9-7.6c2.5,0.4,3-0.9,3.3-3.2c0.7-5.1-2.6-4.6-5.8-4.6c-3.2,0-7.5,1-5.9-4.9
	c0.4-1.4,1.2-2.7-0.5-3.8c-1.6-1-3.1-0.9-4.7-0.1c-1.9,1-0.9,2.4-0.5,3.8c1,3.6-0.5,5.1-4.1,5c-1.9,0-3.8,0-5.6,0.1
	c-0.4-1-0.9-2-1.3-3c3.9-0.1,8.4,1.4,7.9-5.7c-0.2-2.9,3.6-3.7,6.4-3.6c3.2,0.1,6,1.4,5.7,5.1c-0.3,3.5,1.2,4.2,4.3,4.2
	c3.4,0,4.4-1.4,4.2-4.5c-0.3-4.7-0.4-9.2,6.8-6.5c2.5,0.9,3.6-1.3,3.6-3.8c0-2.5-0.8-5.5-3.6-4.4c-7.9,3.1-8.1-1.6-7.5-7
	c0.4-4.2-1.5-4.6-5.1-4.7c-4-0.1-3.4,1.6-3.1,4.4c0.5,4.6-2.2,7-6.7,6.9c-4.5-0.1-6.1-2.8-5.3-7.2c0.2-1,1.4-2.1-0.5-3
	c-4.8-2.1-9.7,0.6-9.4,5.8c0.3,4.6-1.2,6.8-5.8,6.6c-1-1.5-2-2.9-3-4.4c2.6-0.5,7.1,2.2,6.2-4.3c-0.5-3.8-2.2-3.6-4.8-3.7
	c-3.5,0-6-0.5-4.6-5.4C447.6,108.1,444.7,107.1,438.5,109.6z M477.1,119.4c-1.5-5.1,2.1-5,5.7-4.9c2.8,0,6.2,0.9,5.7-4
	c-0.5-4.8,0.6-7.8,6.6-5.9c3.2,1,4.5-1.7,4.4-4.5c0-2.7-2-4.7-4.5-3.8c-6.4,2.5-6.8-1.2-6.5-5.7c0.2-3.5-0.4-5.8-4.6-5.1
	c-5.4,0.8-7.9-1-6.7-6.8c0.4-1.8-0.5-4-2.9-4c-2.3,0.1-4.4,1.9-3.5,4.1c2.8,7.2-2.2,6.1-5.9,5.7c-5-0.4-7.4,0.8-6.7,6.3
	c0.5,3.8,0.2,7.5-5.6,5.1c-1.6-0.7-3.4,0.1-4.2,1.9c-0.7,1.6-0.6,3.2,0.5,4.7c1,1.4,2.4,1.6,3.9,0.9c4.4-2.2,6-0.2,5.4,3.9
	c-1,6.5,1.6,8.5,7.8,7.7c5.3-0.7,7.7,1.4,5.1,6.9c-0.9,2,0.2,3.2,2.1,3.7c1.8,0.5,3.4-0.3,3.9-2.2
	C477.4,122.3,477.1,121,477.1,119.4z M486.8,69.8c3.1-0.6,4.6,0.7,4.8,3.5c0.1,1.9,0.2,3.8,0.1,5.6c-0.1,2.3,0.7,3.5,3.2,3.4
	c2-0.1,3.6,0,3.6-2.9c0-4.2,1.7-7.5,6.6-7.3c4.8,0.2,8.1,2.6,7.5,7.8c-0.3,3,1,3,3.1,3c5,0.1,3.7-3.6,3.7-6.2
	c-0.1-4.5,0-8.3,6.4-5.7c2.5,1,4.6-0.4,5-3.1c0.5-3.1-1.6-5.6-4.1-4.9c-7.1,1.8-7.7-1.8-7.1-7.2c0.2-2.3-0.8-3.4-3.2-3.5
	c-2.5-0.1-3.2,1-3.1,3.4c0.1,4.7-2.6,6.8-7.1,6.7c-4.3-0.1-7.4-2.1-7.6-6.6c-0.1-3.2-1.3-3.7-4.1-3.7c-3.6,0-3.5,2.3-3.3,4.6
	c0.5,5.7-0.8,8.5-7.3,6c-2.8-1.1-5.1,0.9-5.2,3.8c-0.1,2.7,1.6,4.7,4.8,4.4C484.5,70.6,485.7,70.1,486.8,69.8z M501.2,106.3
	c5.5-1.3,5.5-1.3,5.3-5.6c-0.2-5.4,2.6-8,8.1-7.8c1.5,0.1,2.8,1.8,4.8,0.5c-0.6-3.3,2.4-8.5-4.9-7.8c-4.4,0.4-8.2,0.1-6.1-6.2
	c0.7-2.2-0.8-4.2-3.1-4.6c-2.6-0.4-4.5,2-3.9,3.8c2.4,7-1.7,7.2-6.6,6.9c-2.6-0.2-3.3,1.4-3,3.5c0.2,1.6-1.1,3.7,1.8,4.5
	C503,96.1,503.3,96.8,501.2,106.3z M483.8,73.5c-0.6,1.4-4.7-2-3.9,1.9c0.5,2.5-1.1,7.2,4.6,7c3.7-0.2,3.9-2,3.9-4.8
	C488.4,74.8,488.2,72.4,483.8,73.5z M450.8,92.9c4.4,1.2,5.1-0.7,4.9-3.8c-0.2-2.2,0.5-4.7-3.2-4.5c-5.6,0.3-2,4.8-3.3,7.2
	C447.9,94,450.7,92.8,450.8,92.9z M497.3,108c-4.3-1.3-5.9-0.7-5.8,3c0.1,3.2,1.6,3.4,4.2,3.7c5,0.6,2.8-3.1,3.4-5.1
	C500.4,105.6,497.3,108,497.3,108z M455.8,105.6c-3.4,1.5-8.1-0.1-6.6,6.2c0.7,2.8,1.7,3.7,3.9,3
	C458.1,113.2,454.5,109.1,455.8,105.6z M513,110.4c-0.6,2.2-1.7,4.3,2,4.2c2.5-0.1,4.6-0.3,4.4-3.5c-0.1-2,0.5-4.3-2.9-4.1
	C513.9,107.1,511.7,107.1,513,110.4z"/>
<path class="st4" d="M519.5,39.7c0,0.3,0,0.6,0,1c-4.7-0.5-10.8,2.6-13.2-4.6c-0.2-0.5-0.1-1.2-0.2-3.4
	C510.5,36.6,516.2,35.3,519.5,39.7z"/>
<path class="st13" d="M529.7,47.1c-0.5,4.2-3.7,2.3-5.7,2.4c-2.6,0.1-1.9-2.2-1.9-3.6c-0.1-1.6,0.1-3.3,0.1-4.9
	c1.3,0.7,2.6,1.4,3.9,2.2C527.3,44.4,528.5,45.7,529.7,47.1z"/>
<path class="st1" d="M716.3,401.4c0.1,0.3,0.2,0.7,0.3,1c-14.4,10.3-29.6,19.1-46.7,24c1.8-2.5,3.8-4.6,6.5-6.2
	c10.8-3.1,20.6-8.2,30-14.3C709.4,403.8,712.5,401.8,716.3,401.4z"/>
<path class="st15" d="M754.2,366.2c-0.1-0.4-0.1-0.7,0-1.1c5.2-3,7.7-8.7,12.7-13.4C765.5,360,759.4,366.4,754.2,366.2z"/>
<path class="st15" d="M744,351.2c0.4-0.4,0.8-0.8,1.1-1.2C744.8,350.3,744.4,350.8,744,351.2z"/>
<path class="st15" d="M605.1,357.5c3.9-9,7.2-18.3,13.5-26.1c0.6,9.5,2.8,19,2.4,28.6C616.1,356.1,610.7,356.1,605.1,357.5z"/>
<path class="st2" d="M715.1,165.4c0-2.5,0.1-5,0-7.5c-0.2-3.8,1-5.7,5.3-5.9c4.7-0.2,4.9,2.4,4.8,5.9c-0.2,5,0,10-0.1,15
	c-0.1,3.2-1.2,5.6-5.1,5.6c-4,0-5-2.1-4.8-5.6C715.2,170.4,715.1,167.9,715.1,165.4z"/>
<path class="st2" d="M685,163.8c-0.2,3.4,0.3,7.1-0.9,10.7c-1,2.9-2.5,4.1-5.4,3.8c-3-0.3-3.7-2.2-3.7-4.8c0-5.8,0.1-11.6,0-17.4
	c-0.1-3.5,1.7-4.2,4.6-4.1c2.7,0.1,5.7-0.3,5.4,3.9C684.9,158.5,685,161,685,163.8z"/>
<path class="st2" d="M723.9,183.5c1.1,2.6-4.5,1.9-0.8,5c0.8,0.6-2.1,1-3.3,1.2c-2.8,0.4-3.3-1.7-3.9-3.7c-0.5-1.6,0.2-2.4,1.7-2.4
	C719.7,183.5,721.9,183.5,723.9,183.5z"/>
<path class="st2" d="M683.4,184.3c-2.5,1.6-2.7,2.9-0.5,4.6c0.2,0.2-2.4,0.7-3.7,0.8c-1.8,0.1-3.9,0.3-4.1-2.4
	c-0.1-1.7-0.1-3.5,2.2-3.7C679.3,183.4,681.3,183.1,683.4,184.3z"/>
<path class="st6" d="M450.6,345c-1.3-1.3-2.6-2.7-3.9-4c12.5-2,25.1-0.5,37.6-0.7c0,7.4,0,14.9,0,22.3c-4.3,0.1-8.6,1.2-12.7-0.9
	c-0.7-0.5-1.5-1-2.2-1.5C463.2,355,456.9,350,450.6,345z"/>
<path class="st15" d="M454.8,400c-1.3,0.1-2.5-0.1-3.4-1c-2.6-2.9-5.3-4.9-9.5-3c-1.1,0.5-2.1-1-2.6-2.1c2.9-3.7,5.8-7.3,8.7-11
	C450.3,388.5,452.6,394.2,454.8,400z"/>
<path class="st1" d="M469.5,360c0.7,0.5,1.5,1,2.2,1.5c-0.6,2.5-1.2,4.9-1.8,7.4c-1.8,0-3.6-0.1-5.4-0.1c-1.9-2.3-5.7-3.7-3.9-7.9
	C463.7,361.8,466.6,360.8,469.5,360z"/>
<path class="st12" d="M484.4,362.5c0-7.4,0-14.9,0-22.3c7.5,0,15.1,0,22.6,0c0,7.4,0,14.8,0,22.2
	C499.5,362.4,491.9,362.4,484.4,362.5z"/>
<path class="st8" d="M507,362.4c0-7.4,0-14.8,0-22.2c0.8,0,1.7-0.1,2.5-0.1c15.2-0.2,15.1-0.2,15.2,14.8c0,4.5-0.6,7.3-6,6.6
	c-0.9-0.1-1.9,0.6-2.8,1C512.9,362.4,510,362.4,507,362.4z"/>
<path class="st15" d="M464.5,368.8c1.8,0,3.6,0.1,5.4,0.1c0.7,3,0.5,6.3,3.4,8.4c-1.3,3.9-3.8,7.3-4.2,11.6
	c-0.1,1.6-1.6,2.3-3.2,2.4c-0.1-6.2-0.2-12.4-0.3-18.6c-0.3-0.4-0.5-0.9-0.8-1.3C464.7,370.5,464.6,369.7,464.5,368.8z"/>
<path class="st15" d="M496.3,382.4c-5-0.8-11,1.5-14.2-4.7c3.5-0.1,7,0,10.6-0.2C496.4,377.3,497.4,379.1,496.3,382.4z"/>
<path class="st4" d="M716.3,401.4c-3.8,0.4-6.9,2.5-10,4.5c-9.3,6.1-19.2,11.2-30,14.3c4.7-6,9.4-11.9,14.1-17.9
	c1.6-2.1,3.8-4,3.4-7c1.6-0.1,2.8,0.7,3.8,1.8c2,2.2,3.7,2.5,6.9,1.2C708.5,396.6,713.6,395.9,716.3,401.4z"/>
<path class="st4" d="M739.4,354.9c3.6,2.6,4.2,8,9.5,9.2c2.1,0.5,2.1,4.5,0.5,5.2c-4.9,2.2-4.1,7.3-6.6,10.6
	c-4.9,0.8-6.9,7.1-12.6,6.5c2.1-7.2-2.4-3-4.3-2.3c-7,2.6-15.1,1.2-19.6-3.2c-5-4.8-1.2-9,0.6-13.4c1,0,2,0,2.9,0
	c-0.8,6.4,2.3,10,8.4,10.9c4.3,0.7,7-2,8.7-5.7c2-4.3-1.2-7-3.1-10.2c1-2.4,3.4-2.8,5.4-3.8c3.9,2.8,4.9,7.4,7,11.4
	c0.6,1.1-0.3,3.5,2,3c2-0.4,1.9-2.5,1.8-4.2c-0.5-4.9-2.7-9-6.4-12.3C735.6,356,737.5,355.5,739.4,354.9z"/>
<path class="st2" d="M699,385.1c-3.9-3-5.2-8.7-11.5-9.4c-2.3-0.3-1.4-3.8,0.9-5.3c6.4-4.3,7.5-7.4,5-15.2c-1.1-3.5,1.3-5.1,3.6-4.9
	c7.4,0.5,12.6-2,15-9.3c0.1-0.4,1.4-0.4,2.2-0.5c0.6,4-2.4,7.1-2.9,10.9c-12.7,6.4-16,16.9-10,30.2
	C701.3,383.1,700.5,384.3,699,385.1z"/>
<path class="st4" d="M699,385.1c1.5-0.7,2.3-1.9,2.4-3.6c7.8,8.4,17,10.1,27.5,6.1c0.3,2.6-2.9,3.8-2.4,6.4c0,0,0,0,0,0
	c-2.6,0.8-5.1,1.6-7.7,2.5c-5.3-1.6-10.2-4.9-16.4-2c-3.1,1.5-4.8-1.2-4.6-4.5C698,388.2,698.6,386.6,699,385.1z"/>
<path class="st15" d="M739.4,354.9c-1.9,0.6-3.8,1.1-5.8,1.7c-4-3.3-8.8-4.9-13.5-6.5c0-1.6,0.1-3.3,1.7-4.3
	c4.5-0.1,8.8,2.3,13.5-0.4c3.1-1.8,5.9,1.6,4.9,5.4C739.9,352.2,739.7,353.6,739.4,354.9z"/>
<path class="st1" d="M721.8,345.8c-1.6,1-1.7,2.6-1.7,4.3c-2.9,0.4-5.8,0.8-8.7,1.2c0.5-3.8,3.4-6.8,2.9-10.9
	C719.5,338.4,719.3,343.9,721.8,345.8z"/>
<path class="st1" d="M726.4,393.9c-0.4-2.6,2.8-3.8,2.4-6.4c0.5-0.4,0.9-0.8,1.4-1.1c5.6,0.6,7.7-5.6,12.6-6.5c0,0.9,0,1.7-0.1,2.6
	c-2.4,1.5-4.7,3-5.1,6.1C733.9,390.4,730.2,392.2,726.4,393.9z"/>
<path class="st2" d="M682.5,368.7c0.9-4.4,1.4-9.1,4.9-12.5c3.8,2.5,3.7,7.1-0.5,10.2C685.6,367.5,684,368,682.5,368.7z"/>
<path class="st4" d="M737.7,388.7c0.4-3.1,2.8-4.6,5.1-6.1c1.6,1.9,3.6,3.9,1.3,6.3C742.2,390.9,739.8,390.7,737.7,388.7z"/>
<path class="st1" d="M718.8,396.3c2.6-0.8,5.1-1.6,7.7-2.5c-0.4,2.7-0.3,5.6-4,6.1C719.6,400.4,718.8,398.8,718.8,396.3z"/>
<path class="st2" d="M688.7,349.9c0.2-1.7,0.1-3.6,2.7-3.6C691.3,348.2,691.3,350,688.7,349.9z"/>
<path class="st15" d="M475.6,406.5c-1.2-0.1-2.4-0.3-3.6-0.4c0.2-1,0.4-2.1,1.7-2.1C475.4,404,475.6,405.2,475.6,406.5z"/>
<path class="st1" d="M464.8,371.4c0.3,0.4,0.5,0.9,0.8,1.3C465.3,372.2,465.1,371.8,464.8,371.4z"/>
<path class="st4" d="M706.3,164.5c0,1.9,0,3.7,0,5.6c0,8.8-0.3,8.8-8.7,7.3c-3.4-0.6-3.9-2.2-3.9-5c0.1-5.6,0.3-11.2-0.1-16.8
	c-0.3-5.3,3.1-4.7,6.4-4.8c3.6-0.1,6.8-0.2,6.3,5C706.1,158.7,706.4,161.6,706.3,164.5C706.3,164.5,706.3,164.5,706.3,164.5z"/>
<path class="st4" d="M700.3,187.2c-2.4-0.1-5.3,0.7-5.2-3.3c0.1-3.1,2.3-3,4.4-2.9c2.2,0.1,5.4-1.1,5.5,3
	C705.1,187.5,702.6,187.2,700.3,187.2z"/>
<path class="st2" d="M677.5,333.7c0.8,0.1,2.2,0,2.3,0.3c1.4,3.5-0.4,7.3,0.8,11c0.4,1.3-2.5,2.2-4.4,2.4l0,0c-0.6-4-2.8-1.4-4.4-1
	c-3.5,1-7,2.6-9.5-1.8c0.8-3.6,1.6-7.2,2.4-10.8c5.1-0.9,9.2,0.6,11.3,5.8C678.4,337.8,677.1,335.6,677.5,333.7L677.5,333.7z"/>
<path class="st2" d="M675,348.8c0.1,3,0.2,5.6-4.3,4c-1.8-0.7-4.1-0.1-6.2,0.1c-1.1,0.1-2.6,1.2-2.9-0.7c-0.3-2.2,1.5-2.1,3-2.1
	C668.1,350.2,671.6,349.8,675,348.8C675,348.8,675,348.8,675,348.8z"/>
<path class="st1" d="M658.7,347.5c-7.9-1.1-1.4-7.6-4-11.1c-1.2-1.5,2.5-1.3,4.1-1.4l-0.1-0.1c-2,4.2-0.8,8.3,0.1,12.5L658.7,347.5z
	"/>
<path class="st1" d="M664.8,333.9c-0.8,3.6-1.6,7.2-2.4,10.8C658.5,340.2,658.9,338.4,664.8,333.9z"/>
<path class="st2" d="M666,328.9c2.3,1.8,7-4.7,7.8,2.3c0,0,0,0,0,0c-2.6-0.1-5.2-0.2-7.7-0.2C666,330.3,666,329.6,666,328.9z"/>
<path class="st1" d="M666,328.9c0,0.7,0,1.4,0,2.1c-2,0.5-3.9,1.1-5.9,1.6c0,0-0.2-0.2-0.2-0.2C661,329.6,661.8,326.3,666,328.9z"/>
<path class="st2" d="M677.5,333.7c-1.1,0-2-0.2-2.5-1.2l0,0C676,332.5,677,332.7,677.5,333.7C677.5,333.7,677.5,333.7,677.5,333.7z"
	/>
<path class="st1" d="M658.7,335c-0.3-1.2,0-2.1,1.1-2.6c0,0,0.2,0.2,0.2,0.2C660.1,333.7,659.6,334.4,658.7,335
	C658.7,335,658.7,335,658.7,335z"/>
<path class="st2" d="M676.2,347.5c-0.4,0.4-0.8,0.8-1.3,1.3c0,0,0,0,0,0C675.4,348.3,675.8,347.9,676.2,347.5L676.2,347.5z"/>
<path class="st2" d="M675,332.5c-0.4-0.4-0.8-0.8-1.3-1.2c0,0,0,0,0,0C674.2,331.6,674.6,332.1,675,332.5L675,332.5z"/>
<path class="st1" d="M658.8,347.4c0.3,0.2,0.5,0.3,0.8,0.5c-0.7,0.8-0.7,0-0.9-0.4C658.7,347.5,658.8,347.4,658.8,347.4z"/>
<path class="st4" d="M166.1,283.6c0.3,0.4,0.6,0.9,0.9,1.3c-0.2,0.1-0.3,0.2-0.5,0.3C166.4,284.7,166.3,284.2,166.1,283.6
	C166.1,283.6,166.1,283.6,166.1,283.6z"/>
<path class="st13" d="M544.6,82.8c-3.3,0.1-6.2,0.3-4,4.9c0.7,1.4,0.4,2.9-1.2,3.7c-1.6,0.8-3.3,0.8-4.8-0.2
	c-1.6-0.9-1.4-2.4-0.8-3.9c2-4.4-1-4.4-3.9-4.6c-8.5-0.6-8.5-0.6-7.4-9.3c0.6,0,1.2,0,1.8,0.1c5.7,1,10-1.3,10.5-5.7
	c0.6-4.7-3.4-8.6-9.2-8.4c-2.2,0.1-4,0.8-3.6-2.6c0.3-2.5-0.4-5.1,3.6-4.9c3.3,0.1,6.7,0.6,9.9-0.8c1.9,3.5,5,6.4,5.6,10.6
	c-3.9,6.7-3.3,8.9,3.3,11.9C545.1,76.8,545.3,79.8,544.6,82.8z"/>
<path class="st13" d="M539.3,105.3c-8.4-1.6-9-1.3-10.1,7.2c-0.3,2.5-1.8,1.9-3,1.9c-1.7,0-4.1,0.8-4.2-2.2c-0.1-1.5-0.1-2.9,0-4.4
	c0.1-3.5-1.4-5.3-5-4c-2.5,0.9-4.7,0.6-5.9-1.8c-0.9-1.6-1-3.7,0.5-5.3c1.9-2.1,3.7-0.4,5.6,0.3c6,2.2,4.9-2.4,4.7-5.4
	c-0.2-4.2,0.4-7.1,5.6-6c0.8,0.2,2,0.3,1.9,1.2c-0.9,9.4,6.2,7.2,11.4,7.9c-1.9,2.6-3.3,5.2-1,8.3
	C539.6,103.8,539.5,104.6,539.3,105.3z"/>
<path class="st13" d="M514.7,137.8c-4.1-1.4-5.3-4.5-3.3-7.8c2.6-4.1,5.4,0,8.1,0.7c-0.4,0.9-0.8,1.8-1.2,2.7
	C517.1,134.8,515.9,136.3,514.7,137.8z"/>
<path class="st13" d="M522.2,127.3c-0.1-0.4-0.1-0.8-0.1-1.2c-0.3-9.1-0.3-9.1,8.7-9C528.7,121.2,525.9,124.6,522.2,127.3z"/>
<path class="st4" d="M544.4,73.9c-6.6-3-7.3-5.2-3.3-11.9C542.2,65.9,543.3,69.9,544.4,73.9z"/>
<path class="st4" d="M539.8,103c-2.2-3.1-0.9-5.7,1-8.3c0.3-1.3,1.3-2.1,2.4-2.8C543.2,96,541.6,99.6,539.8,103z"/>
<path class="st5" d="M672.6,83.4c-1.8-1.3-3.3-2.9-4.2-5c2.4-2.1,2.7-4.9,2.9-7.8c0.2-4.2,2.4-4.5,5.2-2.5c2.6,1.9,4.9,4.3,7.3,6.5
	c-2.4,3-0.7,6.5-1.2,9.7C679.2,84,675.9,83.7,672.6,83.4z"/>
<path class="st0" d="M570.9,319.8c-10.8,0.1-21.6,0.2-32.5,0.3c-0.9-2.2-1.8-4.4-2.8-6.6c-0.5-4.2-3.1-7.3-5.9-10.2
	c-2.5-4.2-4.9-8.3-7.4-12.5c4.2-1,7.5-2.8,9.5-7.1c2.1-4.6-3.9-5.9-3.4-9.9c4.7-0.8,9.1-1.9,9.7-7.8c0.1-2.2,0.2-4.3,0.2-6.5
	c3.5,6.3,7.1,12.6,10.5,19c4.9,9.3,14.8,10.5,22.1,2.6c1.2-4.6,2.3-9.2,3.5-13.7c0.3-1.1-0.8-3.3,1.7-3.1c1.8,0.2,1.9,1.7,2.3,3.2
	c1.6,6.4,3.1,12.8,5.1,19.2c2.1,6.8,2.6,14.1,6.3,20.5c-0.4,2.5,0.8,5.4-1.4,7.6C581.3,311.8,575.9,315.2,570.9,319.8z"/>
<path class="st9" d="M588.5,314.8c2.3-2.2,1-5,1.4-7.6c0.8-6.5,1.8-12.9,2.4-19.4c0.3-3.2,1.1-5.2,4.8-4.1c3,2,6.5,0.5,9.7,1.3
	c-1.4,7-2.9,14-4.3,21c-1.4,4.6-2.8,9.1-4.2,13.7c-3.3,0-6.5,0-9.8,0C588.5,318.2,588.5,316.5,588.5,314.8z"/>
<path class="st3" d="M606.8,285.1c-3.2-0.9-6.7,0.6-9.7-1.3c3.4,0,6.8-0.1,10.2-0.1c0,0-0.1-0.1-0.1-0.1
	C607.1,284.1,607,284.6,606.8,285.1z"/>
<path class="st3" d="M609.6,277.3c-0.1,0.4-0.2,0.8-0.2,1.2c-0.2-0.4-0.4-0.8-0.5-1.3c0-0.4,0.3-0.7,0.4-1.1
	C609.4,276.5,609.5,276.9,609.6,277.3z"/>
<path class="st3" d="M607.3,283.7c0.2-0.5,0.4-0.9,0.6-1.4c0,0.2,0.2,0.4,0.1,0.5C607.8,283.1,607.6,283.4,607.3,283.7
	C607.3,283.6,607.3,283.7,607.3,283.7z"/>
<path class="st12" d="M456.9,327.4c-3.4,0-6.7,0-10.1,0.1c-1.7,0-3.3,0-5,0c-0.1-1.4-1-2-2-2.9c-6.1-5.7-12.1-11.6-18.2-17.4
	c0.7-3.8,0.8-7.5-2.9-9.9c-2.1-1.4-4.3-0.9-5.9,1.4c-8.4-6-16.2-12.6-23.5-19.9c-0.2-0.2-0.2-0.8-0.2-1.2c5.9,0,11.7,0,17.6,0
	c1.6,4.7,5.5,7.6,9,10.7c12.6,11.1,25.5,21.8,37.4,33.7C454.8,323.5,456.9,324.8,456.9,327.4z"/>
<path class="st8" d="M421.7,307.2c6.1,5.8,12.1,11.6,18.2,17.4c0.9,0.9,1.9,1.5,2,2.9c-13.7,3.6-21.6-6.4-30.4-13.6
	c-6.6-5.4-12-12.1-18.7-17.3c-1.8-1.4-3.3-3.2-5.9-2.9c-1.2-2.8-2.5-5.5-3.6-8.4c-2.4-6.2-1.2-7.8,5.9-7.7c0.1,0.4,0,1,0.2,1.2
	c7.3,7.3,15.1,13.9,23.5,19.9C413.4,306.8,415.6,309,421.7,307.2z"/>
<path class="st0" d="M369.1,280.1c-3.3-0.8-3.8,1.9-4.7,3.8c-4,8.2-7.8,16.4-11.7,24.5c-2.2-3.6-0.1-7.6-1.1-11.3
	c0-1.5-0.1-3-0.1-4.5c1.3-5.5,2.6-11,3.9-16.5c4.6,0,9.2,0.1,13.8,0.1C369.1,277.6,369.1,278.9,369.1,280.1z"/>
<path class="st7" d="M314,271c-0.5-3.8,0.8-7.3,1.3-11c8.2,0.6,16.1-1,23.6-4.3c0.4,2.6-0.4,5.4,1.5,7.6c0,0,0,0.3,0,0.3
	c-6.7,1.7-12.7,5.4-19.7,6.6C318.5,270.7,316.3,271.3,314,271z"/>
<path class="st9" d="M340.4,263.3c-1.8-2.3-1.1-5.1-1.5-7.6c0.4-3.9,1.7-7,6.3-7.2c1.8,0.4,3.6,0.9,5.4,1.3c2.2,0.4,6.4,0.9,5.3,2.9
	c-1.3,2.5-0.1,8.2-6.2,7.2C346.2,259.3,344.5,265,340.4,263.3z"/>
<path class="st4" d="M310.7,256.9c-2.6-2.2-3.1-5.2-3.1-8.4c1.2-1.3,1-3.6,3.8-4.5C311.2,248.5,311,252.7,310.7,256.9z"/>
<path class="st3" d="M630,55.6c5.9,5.8,6,12.7,0.1,18.2c-5.2,4.9-14.1,4.6-18.4-0.6c-4.6-5.5-3.3-12.7,3.1-17.6c0,0,0.1,0.1,0.1,0.1
	c0.7,2.4-2.6,3-2.4,5.1c-2.5,5.1-1.4,9.6,3.4,12.2c3.9,2.1,8.6,3.4,11.6-2.1c3.2-0.2,3.5-2.7,3.9-5.1c2-3.8-0.7-6.5-2.4-9.4
	C629.4,56.3,629.7,55.9,630,55.6z"/>
<path class="st3" d="M648.7,83.3c-2.6,4.6-6.7,5-11.1,3.5c-5-1.6-4.3-5.8-3.8-9.8c2.2,1,2.6,2.8,2.4,4.9c0,3.5,2.7,4,5.1,3.6
	C643.8,85.3,646.2,84.1,648.7,83.3L648.7,83.3z"/>
<path class="st13" d="M636.2,82c0.2-2.1-0.2-3.9-2.4-4.9c2-4.5,4.8-7.3,10.1-5.1c-0.1,0.4-0.1,0.8,0,1.2
	C636.7,72.2,638.8,79.2,636.2,82z"/>
<path class="st3" d="M614.8,55.7c5.1-3.8,10.1-4.2,15.2-0.1c-0.3,0.3-0.6,0.7-0.9,1c-4.5-3.4-9.4-1.3-14.2-0.8L614.8,55.7z"/>
<path class="st3" d="M648.7,74.5c1.9,2.9,1.9,5.8,0,8.8c0,0,0,0,0,0C648.7,80.4,648.7,77.4,648.7,74.5L648.7,74.5z"/>
<path class="st3" d="M643.9,73.2c-0.1-0.4-0.1-0.8,0-1.2c1.3,0.1,2.7-0.2,3.5,1.3l0.1-0.1C646.3,73.2,645.1,73.2,643.9,73.2z"/>
<path class="st3" d="M647.4,73.3c0.4,0.4,0.8,0.8,1.3,1.3c0,0,0.1-0.1,0.1-0.1C647.6,74.7,647.3,74.2,647.4,73.3
	C647.5,73.2,647.4,73.3,647.4,73.3z"/>
<path class="st10" d="M538.2,266.1c-0.6,5.8-5,7-9.7,7.8c-0.5,3.9,5.6,5.2,3.4,9.9c-2,4.3-5.3,6.1-9.5,7.1
	c-4.1-5.4-7.3-11.8-14-14.8c-4.8-5.5-10-10.5-16.6-13.9c-0.4-0.8-0.7-1.6-1.1-2.4c3.5,0.3,6.9,0.1,10.4,0.7
	C513.5,262.5,525.6,266.3,538.2,266.1z"/>
<path class="st5" d="M529.8,303.4c2.8,2.9,5.4,5.9,5.9,10.2c-2,0.4-4.1,0.5-5.9,1.3c-6,2.7-10.2,1.3-12.4-5
	C521.9,308.5,526.8,307.7,529.8,303.4z"/>
<path class="st7" d="M515.5,310.2c-0.6-0.6-1.4-1.5-0.6-2c1-0.7,1,0.8,1.4,1.3C516.1,309.7,515.8,310,515.5,310.2z"/>
<path class="st7" d="M513.4,305.9c-0.1-0.1-0.3-0.1-0.4-0.2c0.2-0.2,0.3-0.3,0.5-0.4c0,0,0.2,0.2,0.3,0.3
	C513.7,305.7,513.5,305.8,513.4,305.9z"/>
<path class="st3" d="M371.9,244.5c-2.3-0.4-4-1.5-3.8-4c0.2-2.6,2.2-3.2,4.5-3.2c2.5,0.1,4.1,1.3,3.8,3.8
	C376.2,243.6,374.2,244.3,371.9,244.5z"/>
<path class="st13" d="M381.5,230.2c-8.9,1.8-18.6-1.3-27.1,3.6C362.6,228.1,372.2,230.4,381.5,230.2z"/>
<path class="st13" d="M452.6,130.5c4.7,0.2,6.2-1.9,5.8-6.6c-0.4-5.2,4.6-7.9,9.4-5.8c2,0.9,0.7,2,0.5,3c-0.8,4.3,0.8,7,5.3,7.2
	c4.6,0.1,7.2-2.3,6.7-6.9c-0.3-2.8-1-4.5,3.1-4.4c3.5,0.1,5.5,0.6,5.1,4.7c-0.5,5.3-0.4,10,7.5,7c2.8-1.1,3.6,1.9,3.6,4.4
	c0,2.4-1.1,4.7-3.6,3.8c-7.2-2.7-7.1,1.7-6.8,6.5c0.2,3.1-0.8,4.6-4.2,4.5c-3.1,0-4.5-0.7-4.3-4.2c0.3-3.8-2.5-5-5.7-5.1
	c-2.8-0.1-6.6,0.7-6.4,3.6c0.5,7.1-4,5.6-7.9,5.7C457.8,142.1,457,135.4,452.6,130.5z"/>
<path class="st13" d="M462,150.9c1.9,0,3.8-0.1,5.6-0.1c3.6,0.1,5.1-1.4,4.1-5c-0.4-1.4-1.4-2.7,0.5-3.8c1.6-0.9,3.2-0.9,4.7,0.1
	c1.7,1.1,0.9,2.4,0.5,3.8c-1.6,5.8,2.8,4.8,5.9,4.9c3.2,0,6.5-0.5,5.8,4.6c-0.3,2.3-0.8,3.6-3.3,3.2c-6.1-1.1-8.9,2-9.9,7.6
	C468.8,163.4,466,156.6,462,150.9z"/>
<path class="st13" d="M479.3,167.4c0-4.4,1.1-7.5,6.6-5.6c4.9,1.6,6.6-0.8,6-5.3c-0.7-5.3,1.6-6.7,6.8-5.2
	c-1.1,4.2-2.2,8.7,3.6,10.7C496,169.6,487.9,169.6,479.3,167.4z"/>
<path class="st8" d="M538.2,266.1c-12.6,0.2-24.7-3.6-37-5.6c-3.5-0.6-7-0.4-10.4-0.7c-2.8-4.2-5.7-8.4-8.5-12.6
	c0-1.6-0.1-3.3-0.1-4.9c6.1,0.7,12,3.2,18.3,2.4c-0.1,2.8,2,2.6,3.8,2.6c5.6,0,11.1-0.1,16.7-0.2c-1,2.7-2.7,5.3,2.8,4.8
	c4.2-0.4,8.6,0.8,12.2,3.4c0.8,1.4,1.7,2.8,2.5,4.3C538.4,261.8,538.3,263.9,538.2,266.1z"/>
<path class="st1" d="M535.9,255.4c-3.6-2.7-8-3.8-12.2-3.4c-5.5,0.5-3.7-2.1-2.8-4.8c0.4-0.3,0.7-0.6,1.1-1
	C531.7,245.2,533.5,246.4,535.9,255.4z"/>
<path class="st4" d="M666.2,164.3c0,2.3,0,4.6,0,6.8c-0.1,3.4,0.8,7.7-4.9,7.2c-4.4-0.4-8.6-1.1-7.8-7.5c0.6-4.7,0.5-9.6,0-14.3
	c-0.6-5.8,2.8-5.5,6.8-5.8c4.8-0.3,6.4,1.5,5.9,6.1C666,159.3,666.2,161.8,666.2,164.3C666.2,164.3,666.2,164.3,666.2,164.3z"/>
<path class="st4" d="M659.8,181c2.1,0.3,4.9-0.7,5,2.9c0.1,4-2.8,3.2-5.1,3.4c-2.7,0.2-5.5-0.3-5.5-3.4
	C654.2,180.1,657.7,181.3,659.8,181z"/>
<path class="st8" d="M339.2,182.4c-0.1-1.9,1.1-2.7,2.7-2.9c0.7,1.1,1.3,2.2,2.3,3.9C342.2,183,340.7,182.7,339.2,182.4z"/>
<path class="st4" d="M438.1,106.4c0,0.6,0,1.2,0.1,1.7c-1.6-2.4-3.1-4.9-2-7.9c1.3-3.8-4.2-4.5-3.5-7.9c1-0.2,2.1,0.8,3-0.3
	c0,0-0.1,0-0.1,0c-0.3,1.2,0.6,1.2,1.3,1.4c0,0-0.1-0.1-0.1-0.1c0.5,0.5,0.9,0.9,1.4,1.4c0,0-0.1-0.1-0.1-0.1
	C440.9,98.5,438,102.5,438.1,106.4z"/>
<path class="st13" d="M435.7,92c-0.9,1-2,0.1-3,0.3c-0.5-2.2-0.9-4.4-1.4-6.6C435.4,84.6,435.4,84.6,435.7,92z"/>
<path class="st0" d="M201.2,289.9c-4.4,0.4-3.2-2.8-2-4.2c7.3-8.7,11.1-19.5,17-29c6.9-10.9,9.7-23.8,12.5-36.4
	c3.1-14.1,4-28.5,3.5-42.7c-0.6-20.6-1.7-41.4-6.9-61.6c-0.1-0.5,0.2-1.1,0.5-2.9c3.9,7.4,4.5,14.6,6.1,21.5c5.5,23.8,5.8,48,4,72
	c-2.1,27.6-12.8,52.6-29.4,75C204.5,284.2,201.6,286.3,201.2,289.9C201.2,289.9,201.2,289.9,201.2,289.9z"/>
<path class="st2" d="M245.1,148.4c-2.2,13.5-1,27,1.3,40.4c0.2,1.2,0.8,2.3,1.2,3.5c-1.8-0.1-2.5-1.3-2.7-2.9
	c-2.1-12.3-3.3-24.7-1.6-37.1C243.5,150.9,243.7,149.3,245.1,148.4z"/>
<path class="st2" d="M247.6,192.2c1.4,0.1,2.8-0.2,3.8,1.3C250,193.4,248.5,193.7,247.6,192.2z"/>
<path class="st2" d="M246.3,145.9c-0.1,1-0.3,2-1.3,2.5C245.1,147.4,245.3,146.4,246.3,145.9z"/>
<path class="st2" d="M267.7,176.4c0,1.7-0.1,3.3,0,5c0.3,3.6-1.3,4.9-4.7,4.6c-1.7-0.2-3.3,0-5,0c-2.4,0-5.7,0.5-5.2-3.4
	c0.5-3.1-3-8,3.1-9.1c2-0.4,3.1-1.2,2.9-3.2c-0.4-4.4,2.4-4.5,5.6-4.4c4,0.2,3.1,3.1,3.2,5.5C267.7,173.1,267.7,174.7,267.7,176.4z
	 M266.6,176.6c-1.1-2.9,1.8-8.1-2.5-8.3c-3-0.1-1.4,5.2-1.3,8c0,2.7-2,7.6,1.9,7.6C268,184,265.4,179.1,266.6,176.6z"/>
<path class="st3" d="M351.6,297.3c1,3.7-1.1,7.7,1.1,11.3c-0.4,1.8-1.4,2.9-3.5,2.5C350,306.5,347.3,301.2,351.6,297.3z"/>
<path class="st4" d="M270.2,173.8c0-2.5,0-5,0-7.5c0-1.6,0.6-2.8,2.5-2.8c1.5,0,2.3,0.9,2.4,2.3c0.1,5.4,0.1,10.8,0,16.2
	c0,1.4-0.7,2.3-2.2,2.4c-1.9,0.1-2.7-0.9-2.7-2.6C270.2,179.2,270.2,176.5,270.2,173.8z"/>
<path class="st1" d="M290.2,171.5c0,2.9-0.1,5.8,0,8.7c0.1,3-0.7,4.6-4.1,4.6c-3.5,0-4.8-1.2-4.7-4.7c0.2-5.8,0.2-11.6,0-17.4
	c-0.1-3.4,1.5-4.2,4.5-4.3c3.3-0.1,4.5,1.2,4.3,4.4C290.1,165.7,290.2,168.6,290.2,171.5z"/>
<path class="st15" d="M126,320c-8.3,2.1-16.9,0.5-25.3,2.3c-3.4,0.8-8,0.5-8.2-4.2c-0.2-4.7,3.9-5.9,8-5.6c9,0.7,17.7-1.9,26.7-1.3
	c17-1.7,34-1.2,51.1-1.2c3.2,0,6.6-0.4,6.6,4.4c0,4.8-3.4,4.5-6.6,4.4C160.8,317.8,143.4,320.1,126,320z"/>
<path class="st15" d="M124.7,337.5c-8.6,2-17.3,1-26,1.2c-3.1,0.1-5.3-0.7-5.3-4.4c0-3.7,2.3-4.3,5.3-4.4c9.9-0.3,19.8-1.9,29.7-1.2
	c11,0.2,21.9-2,32.9-1.3c3.1,0.2,6,0.2,6,4.4c0,4.2-2.9,4-6,4.4C149.2,337.9,137,337.3,124.7,337.5z"/>
<path class="st15" d="M131,352.5c-0.4,0-0.8,0-1.2,0c-2.5,0-5,0-7.5,0c-7,0.1-14,1.9-21,1.3c-3.6-0.3-7.2-1-7.2-5.1
	c0-4.1,3.2-5.1,7.1-5c7.5,0.2,15,0,22.4,0c1,0,2.1,0,3.1,0c2.2,0.1,4.5-0.6,6.1,2.1C134.5,348.8,132.1,350.4,131,352.5z"/>
<path class="st0" d="M122.2,352.5c2.5,0,5,0,7.5,0C127.3,358.9,124.7,355.9,122.2,352.5z"/>
<path class="st1" d="M195,389.9c-18-2.3-36.2-0.1-54.2-1.8c-3.3-0.3-6.5,1.6-9.8,0c-1.4-0.7-3.7-0.4-3.5-2.8c0.1-2.1,1.8-2.6,3.5-3
	c1.8-0.4,3.6-1,5.5-1c18.5-0.5,37,2,55.6,1.3c1.4-0.1,2.8,0.8,4.1,1.2C195.8,385.9,195.4,387.9,195,389.9z"/>
<path class="st15" d="M146.1,391.4c15.1-0.2,30.2,0.6,45.1,3.5c2.5,0.5,5.6,0.6,4.6,4.2c-0.8,2.9-3.6,2.5-5.8,2
	c-12.4-3-25-3.6-37.6-3.6c-0.3-2.1-1.8-2.5-3.5-2.4C146.3,395.1,146,393.4,146.1,391.4z"/>
<path class="st15" d="M195,389.9c0.4-2,0.8-4.1,1.2-6.1c6.4,2.1,13.2,0.4,19.6,1.8c2.1,0.5,5.8,0.6,5,4.1c-0.7,3.1-3.6,2.2-6.1,1.8
	C208.2,390.8,201.6,390.5,195,389.9z"/>
<path class="st1" d="M146.1,391.4c-0.1,2,0.2,3.7,2.8,3.7c1.7,0,3.2,0.3,3.5,2.4c-6.7,0-13.4,0.1-20,0.1c-2.4,0-5-0.2-4.8-3.4
	c0.2-2.8,2.6-2.8,4.8-2.8C136.9,391.3,141.5,391.4,146.1,391.4z"/>
<path class="st8" d="M310.5,351.2c2.9,7.4,9.6,10.4,15.9,13.8c0.7,11.3-1.1,22.5-1.2,33.8c-5-0.3-7.7-5-12.3-6.1
	c0.4-11-1.6-21.9-2-32.9C310.7,357,310.6,354.1,310.5,351.2z"/>
<path class="st7" d="M588.5,314.8c0,1.7,0,3.3,0,5c-5.9,0-11.7,0-17.6,0C575.9,315.2,581.3,311.8,588.5,314.8z"/>
<path class="st13" d="M477.1,119.4c0,1.6,0.3,2.9-0.1,4c-0.5,1.8-2,2.6-3.9,2.2c-1.8-0.5-3-1.7-2.1-3.7c2.6-5.5,0.2-7.6-5.1-6.9
	c-6.2,0.8-8.8-1.2-7.8-7.7c0.6-4.1-1-6.1-5.4-3.9c-1.4,0.7-2.8,0.5-3.9-0.9c-1.1-1.5-1.3-3.1-0.5-4.7c0.8-1.7,2.6-2.5,4.2-1.9
	c5.8,2.4,6.1-1.3,5.6-5.1c-0.7-5.5,1.7-6.8,6.7-6.3c3.7,0.3,8.7,1.4,5.9-5.7c-0.9-2.2,1.2-4,3.5-4.1c2.4-0.1,3.3,2.1,2.9,4
	c-1.2,5.8,1.3,7.7,6.7,6.8c4.2-0.6,4.9,1.6,4.6,5.1c-0.3,4.6,0.1,8.2,6.5,5.7c2.4-0.9,4.4,1,4.5,3.8c0,2.8-1.2,5.4-4.4,4.5
	c-6-1.8-7.1,1.1-6.6,5.9c0.5,4.9-2.9,4.1-5.7,4C479.2,114.4,475.6,114.3,477.1,119.4z"/>
<path class="st13" d="M486.8,69.8c-1,0.3-2.2,0.8-3.4,0.9c-3.2,0.4-4.9-1.6-4.8-4.4c0.1-2.9,2.4-4.9,5.2-3.8c6.5,2.6,7.8-0.3,7.3-6
	c-0.2-2.3-0.3-4.6,3.3-4.6c2.8,0,4,0.5,4.1,3.7c0.2,4.5,3.3,6.5,7.6,6.6c4.5,0.1,7.2-2,7.1-6.7c0-2.4,0.6-3.5,3.1-3.4
	c2.4,0.1,3.5,1.2,3.2,3.5c-0.6,5.3,0,9,7.1,7.2c2.6-0.7,4.6,1.8,4.1,4.9c-0.4,2.8-2.5,4.1-5,3.1c-6.4-2.5-6.5,1.2-6.4,5.7
	c0,2.6,1.3,6.3-3.7,6.2c-2.1,0-3.4,0-3.1-3c0.5-5.2-2.7-7.6-7.5-7.8c-4.8-0.2-6.6,3.2-6.6,7.3c0,2.9-1.5,2.8-3.6,2.9
	c-2.5,0.1-3.3-1.1-3.2-3.4c0.1-1.9,0.1-3.8-0.1-5.6C491.3,70.5,489.8,69.2,486.8,69.8z"/>
<path class="st13" d="M501.2,106.3c2.1-9.5,1.8-10.1-7.7-12.7c-2.9-0.8-1.6-2.9-1.8-4.5c-0.3-2.1,0.4-3.7,3-3.5
	c4.9,0.3,9,0.1,6.6-6.9c-0.6-1.8,1.3-4.2,3.9-3.8c2.4,0.3,3.9,2.4,3.1,4.6c-2.1,6.3,1.7,6.6,6.1,6.2c7.3-0.7,4.3,4.5,4.9,7.8
	c-2,1.3-3.3-0.5-4.8-0.5c-5.4-0.3-8.3,2.4-8.1,7.8C506.6,105,506.6,105,501.2,106.3z"/>
<path class="st13" d="M438.1,106.4c-0.1-4,2.9-8,0-11.9c2.6,0,5.3,0,8.6,0c-1.9,3.9-1.4,7.3,0.2,11
	C443.4,104.8,440.7,105.3,438.1,106.4z"/>
<path class="st5" d="M483.8,73.5c4.3-1.1,4.6,1.3,4.6,4.1c0,2.8-0.2,4.6-3.9,4.8c-5.8,0.3-4.2-4.5-4.6-7
	C479.2,71.5,483.2,74.9,483.8,73.5z"/>
<path class="st13" d="M450.8,92.9c-0.1-0.1-2.9,1.1-1.7-1.1c1.3-2.3-2.3-6.9,3.3-7.2c3.8-0.2,3,2.3,3.2,4.5
	C455.9,92.2,455.2,94,450.8,92.9z"/>
<path class="st13" d="M497.3,108c-0.1,0,3-2.4,1.9,1.6c-0.6,2,1.5,5.7-3.4,5.1c-2.6-0.3-4.1-0.5-4.2-3.7
	C491.5,107.3,493,106.7,497.3,108z"/>
<path class="st13" d="M455.8,105.6c-1.3,3.5,2.3,7.6-2.8,9.2c-2.2,0.7-3.2-0.2-3.9-3C447.7,105.5,452.4,107.1,455.8,105.6z"/>
<path class="st13" d="M513,110.4c-1.2-3.3,0.9-3.3,3.4-3.4c3.4-0.2,2.8,2.1,2.9,4.1c0.2,3.3-1.8,3.5-4.4,3.5
	C511.2,114.6,512.3,112.5,513,110.4z"/>
<path class="st13" d="M438.2,94.6c-0.5-0.5-0.9-0.9-1.4-1.4C437.6,93.4,438.3,93.6,438.2,94.6z"/>
<path class="st13" d="M436.9,93.3c-0.7-0.2-1.6-0.2-1.3-1.4C436.5,92,436.9,92.5,436.9,93.3z"/>
<path class="st3" d="M730.3,386.4c-0.5,0.4-0.9,0.8-1.4,1.1c-10.5,4-19.8,2.3-27.5-6.1c-6-13.3-2.7-23.8,10-30.2
	c2.9-0.4,5.8-0.8,8.7-1.2c4.8,1.6,9.6,3.2,13.5,6.5c3.7,3.3,5.9,7.4,6.4,12.3c0.2,1.7,0.2,3.8-1.8,4.2c-2.3,0.5-1.4-1.9-2-3
	c-2.1-3.9-3-8.6-7-11.4c-4.4-5.6-10.3-5.2-16.2-3.5c-6.3,1.8-4.3,8.1-6.1,12.3c-1.7,4.4-5.6,8.6-0.6,13.4c4.6,4.4,12.6,5.8,19.6,3.2
	C727.9,383.4,732.4,379.2,730.3,386.4z"/>
<path class="st3" d="M723.9,362.5c1.8,3.1,5,5.9,3.1,10.2c-1.7,3.7-4.3,6.4-8.7,5.7c-6.1-0.9-9.2-4.5-8.4-10.9
	C713,361.5,718.6,362.3,723.9,362.5z M719.3,365.4c-2.5,0.3-3.9,1.9-4.2,4.4c-0.4,3.1,1.3,4.8,4.1,5c2.6,0.1,4.2-1.7,4.5-4.2
	C724.2,367.4,721.8,366.3,719.3,365.4z"/>
<path class="st0" d="M723.9,362.5c-5.3-0.2-10.9-1-14,5c-1,0-2,0-2.9,0c1.8-4.2-0.1-10.4,6.1-12.3c5.9-1.7,11.7-2.1,16.2,3.5
	C727.3,359.7,724.9,360.1,723.9,362.5z"/>
<path class="st3" d="M421.7,307.2c-6.1,1.8-8.3-0.3-8.7-8.5c1.5-2.3,3.8-2.7,5.9-1.4C422.5,299.6,422.4,303.4,421.7,307.2z"/>
<path class="st6" d="M627.5,71.1c-3,5.5-7.7,4.2-11.6,2.1c-4.8-2.6-5.9-7.1-3.4-12.2c1.2,0,2.4-0.1,3.6-0.1
	C619.5,64.7,626.5,64.5,627.5,71.1z"/>
<path class="st8" d="M616.1,60.8c-1.2,0-2.4,0.1-3.6,0.1c-0.2-2.2,3.1-2.7,2.4-5.1c4.8-0.4,9.6-2.6,14.2,0.8
	c1.7,2.9,4.3,5.6,2.4,9.4c-2-1.3-3.9-2.9-6-4C622.5,60.7,619.6,57.9,616.1,60.8z"/>
<path class="st12" d="M616.1,60.8c3.5-2.9,6.4-0.1,9.3,1.3c2.2,1,4,2.6,6,4c-0.4,2.4-0.8,4.8-3.9,5.1
	C626.5,64.5,619.5,64.7,616.1,60.8z"/>
<path class="st12" d="M647.5,73.2c-0.1,1,0.2,1.5,1.3,1.3c0,3,0,5.9,0,8.9c-2.5,0.8-4.9,2-7.4,2.3c-2.4,0.3-5.1-0.1-5.1-3.6
	c2.6-2.9,0.5-9.9,7.7-8.8C645.1,73.2,646.3,73.2,647.5,73.2z"/>
<path class="st4" d="M266.6,176.6c-1.1,2.5,1.5,7.4-1.9,7.4c-3.9-0.1-1.8-5-1.9-7.6c-0.1-2.8-1.6-8.1,1.3-8
	C268.3,168.5,265.4,173.7,266.6,176.6z"/>
<path class="st4" d="M719.3,365.4c2.5,0.9,4.9,2,4.4,5.2c-0.3,2.5-2,4.3-4.5,4.2c-2.8-0.1-4.5-1.9-4.1-5
	C715.4,367.3,716.8,365.7,719.3,365.4z"/>
</svg>
